<?xml version="1.0" standalone="no"?>
<!DOCTYPE svg PUBLIC "-//W3C//DTD SVG 1.1//EN" "http://www.w3.org/Graphics/SVG/1.1/DTD/svg11.dtd" >
<svg xmlns="http://www.w3.org/2000/svg" xmlns:xlink="http://www.w3.org/1999/xlink" version="1.1">
<metadata>
Created by FontForge 20170731 at Fri May  5 13:10:53 2023
 By Aleksey,,,
I1993 Tobias Frere-Jones. Produced by The Font Bureau, Inc. Based on a design by S.H. deRoos.
</metadata>
<defs>
<font id="Nobel-Bold" horiz-adv-x="1495" >
  <font-face 
    font-family="Nobel"
    font-weight="700"
    font-stretch="normal"
    units-per-em="2048"
    panose-1="0 0 0 0 0 0 0 0 0 0"
    ascent="1638"
    descent="-410"
    x-height="883"
    cap-height="1495"
    bbox="-129 -391 2220 1960"
    underline-thickness="40"
    underline-position="-312"
    unicode-range="U+0020-FB02"
  />
<missing-glyph horiz-adv-x="1024" 
 />
    <glyph glyph-name=".notdef" horiz-adv-x="1024" 
 />
    <glyph glyph-name=".null" horiz-adv-x="0" 
 />
    <glyph glyph-name="nonmarkingreturn" horiz-adv-x="682" 
 />
    <glyph glyph-name="space" unicode=" " horiz-adv-x="460" 
 />
    <glyph glyph-name="exclam" unicode="!" horiz-adv-x="626" 
d="M473 944l-47 -534h-225l-47 534v551h319v-551zM473 0h-319v299h319v-299z" />
    <glyph glyph-name="quotedbl" unicode="&#x22;" horiz-adv-x="921" 
d="M819 1194l-55 -287h-184l-56 287v301h295v-301zM397 1194l-55 -287h-184l-56 287v301h295v-301z" />
    <glyph glyph-name="numbersign" unicode="#" horiz-adv-x="1404" 
d="M1282 383h-240l-32 -383h-256l32 383h-233l-33 -383h-256l33 383h-174v227h194l25 281h-219v227h239l33 377h256l-33 -377h234l33 377h256l-33 -377h174v-227h-195l-24 -281h219v-227zM831 891h-233l-25 -281h234z" />
    <glyph glyph-name="dollar" unicode="$" horiz-adv-x="1406" 
d="M1331 442q0 -84 -29 -154t-78.5 -119.5t-118 -85.5t-144 -56t-160.5 -27v-205h-176v205q-163 13 -299 80t-260 192l198 193q68 -70 163 -123.5t198 -71.5v375q-87 17 -155.5 37.5t-138 55.5t-115.5 80t-74.5 112.5t-28.5 150.5q0 121 68 212t182 140.5t262 61.5v143h176
v-143q145 -16 262.5 -76.5t230.5 -156.5l-188 -197q-56 57 -137 100t-168 60v-320q64 -14 116 -28t108.5 -35.5t99.5 -46.5t83 -60.5t66 -77t41.5 -96.5t15.5 -119zM625 944v285q-205 -20 -205 -148q0 -50 52.5 -81.5t152.5 -55.5zM1024 422q0 72 -52.5 114t-170.5 72v-342
q223 29 223 156z" />
    <glyph glyph-name="percent" unicode="%" horiz-adv-x="1576" 
d="M1516 367q0 -167 -90 -279.5t-226 -112.5q-56 0 -109.5 24.5t-98 70.5t-72 121.5t-27.5 168.5q0 165 89.5 276.5t223.5 111.5q136 0 223 -111t87 -270zM1444 1495l-1022 -1495h-289l1022 1495h289zM698 1139q0 -167 -89.5 -279t-225.5 -112q-56 0 -109.5 24.5t-98 70.5
t-72 121.5t-27.5 168.5q0 165 89.5 276t223.5 111q136 0 222.5 -111t86.5 -270zM1303 360q0 87 -23.5 147t-75.5 60q-36 0 -59.5 -30.5t-32 -75t-8.5 -101.5q0 -204 96 -204q103 0 103 204zM485 1133q0 87 -23 146.5t-75 59.5q-53 0 -76.5 -58t-23.5 -148q0 -205 96 -205
q102 0 102 205z" />
    <glyph glyph-name="ampersand" unicode="&#x26;" horiz-adv-x="1413" 
d="M1368 0h-352l-70 86q-187 -111 -377 -111q-98 0 -192.5 33.5t-168 91.5t-118.5 143.5t-45 182.5q0 72 23 136t66.5 116t90 91.5t109.5 80.5q-45 54 -62.5 77.5t-44.5 67t-37 85t-10 91.5q0 101 57.5 182t149 124t195.5 43q106 0 198.5 -44.5t150.5 -127.5t58 -185
q0 -60 -20.5 -112.5t-62 -96t-83 -75.5t-102.5 -70l276 -346q70 70 164 180l180 -203q-82 -99 -176 -188zM713 1176q0 51 -36.5 83.5t-90.5 32.5q-47 0 -83 -37.5t-36 -83.5q0 -23 18.5 -56.5t32.5 -51.5t53 -66q68 44 105 87t37 92zM784 289l-297 370q-127 -101 -127 -217
q0 -93 76 -152t174 -59q80 0 174 58z" />
    <glyph glyph-name="quotesingle" unicode="'" horiz-adv-x="512" 
d="M397 1194l-55 -287h-184l-56 287v301h295v-301z" />
    <glyph glyph-name="parenleft" unicode="(" horiz-adv-x="741" 
d="M676 -367q-288 140 -441 386.5t-153 576.5q0 156 48 304.5t129.5 266.5t188.5 209t228 144v-273q-121 -135 -179.5 -288.5t-58.5 -362.5q0 -216 55 -377.5t183 -310.5v-275z" />
    <glyph glyph-name="parenright" unicode=")" horiz-adv-x="741" 
d="M659 596q0 -330 -152.5 -576.5t-440.5 -386.5v275q128 149 182.5 310.5t54.5 377.5q0 209 -58 362.5t-179 288.5v273q121 -53 227.5 -144t188.5 -209t129.5 -266.5t47.5 -304.5z" />
    <glyph glyph-name="asterisk" unicode="*" horiz-adv-x="872" 
d="M821 1171l-217 -114l107 -215l-103 -78l-174 172l-172 -170l-104 74l108 219l-215 110l39 123l242 -37l39 240h127l37 -240l241 37z" />
    <glyph glyph-name="plus" unicode="+" horiz-adv-x="1110" 
d="M1038 545h-346v-330h-274v330h-346v266h346v330h274v-330h346v-266z" />
    <glyph glyph-name="comma" unicode="," horiz-adv-x="512" 
d="M397 76q0 -105 -43 -201t-121 -203l-194 115q63 94 63 238v284h295v-233z" />
    <glyph glyph-name="hyphen" unicode="-" horiz-adv-x="778" 
d="M696 418h-614v270h614v-270z" />
    <glyph glyph-name="period" unicode="." horiz-adv-x="512" 
d="M410 0h-308v309h308v-309z" />
    <glyph glyph-name="slash" unicode="/" horiz-adv-x="909" 
d="M868 1495l-518 -1495h-309l520 1495h307z" />
    <glyph glyph-name="zero" unicode="0" horiz-adv-x="1316" 
d="M1251 754q0 -227 -70.5 -402.5t-207.5 -276t-322 -100.5t-321.5 100.5t-206.5 276t-70 402.5q0 220 70 392.5t207 273t321 100.5t321.5 -100.5t208 -273t70.5 -392.5zM911 754q0 71 -6.5 135.5t-25 131t-46.5 114t-75 78t-107 30.5q-62 0 -109.5 -30.5t-75 -78t-45 -115
t-23 -130.5t-5.5 -135q0 -90 11.5 -171.5t38.5 -159.5t80.5 -124.5t127.5 -46.5q63 0 111 32t75.5 81t45 118.5t23 133.5t5.5 137z" />
    <glyph glyph-name="one" unicode="1" horiz-adv-x="819" 
d="M680 0h-328v1065q-96 -96 -311 -113v242q70 9 122 26t103.5 50t94 88.5t79.5 136.5h240v-1495z" />
    <glyph glyph-name="two" unicode="2" horiz-adv-x="1187" 
d="M1092 1087q0 -106 -36 -187.5t-106 -172.5l-346 -451h475v-276h-1032l629 850q49 66 68.5 115t19.5 122q0 70 -44 118t-116 48q-209 0 -209 -209v-32h-307v32q0 117 43 209.5t116 149.5t164 87t193 30q100 0 187.5 -28t155 -80.5t106.5 -136t39 -188.5z" />
    <glyph glyph-name="three" unicode="3" horiz-adv-x="1224" 
d="M1139 461q0 -215 -155.5 -350.5t-416.5 -135.5q-325 0 -534 222l174 204q71 -65 164 -102t196 -37q105 0 174.5 54t69.5 145q0 98 -70 139t-211 41h-92v266h129q107 0 157 39.5t50 134.5q0 67 -60 109.5t-147 42.5q-101 0 -169 -20t-130 -74l-153 215q114 91 224 128.5
t259 37.5q127 0 241 -48t188.5 -142t74.5 -212q0 -113 -56 -197t-157 -122q116 -32 183 -123t67 -215z" />
    <glyph glyph-name="four" unicode="4" horiz-adv-x="1210" 
d="M1139 365h-172v-365h-328v365h-608v192l674 938h262v-885h172v-245zM639 610v445l-315 -445h315z" />
    <glyph glyph-name="five" unicode="5" horiz-adv-x="1228" 
d="M1122 526q0 -155 -79 -282t-212 -198t-290 -71q-139 0 -267 52t-213 131l177 221q140 -117 303 -117q103 0 178.5 76t75.5 188q0 118 -70.5 185t-163.5 67q-69 0 -139 -40.5t-119 -114.5l-190 71l82 801h821v-266h-574l-28 -264q60 47 118.5 63t147.5 16q196 0 319 -141
t123 -377z" />
    <glyph glyph-name="six" unicode="6" horiz-adv-x="1228" 
d="M1194 504q0 -232 -165.5 -380.5t-424.5 -148.5q-246 0 -402.5 151t-156.5 378q0 127 37.5 256.5t97 239t141.5 215t163 186t169 151.5l197 -229q-118 -89 -228.5 -207.5t-146.5 -208.5q64 50 120.5 66t143.5 16q126 0 231 -65.5t164.5 -176.5t59.5 -243zM866 498
q0 103 -71.5 171t-176.5 68q-108 0 -176.5 -67.5t-68.5 -171.5q0 -114 67 -185t178 -71q109 0 178.5 72t69.5 184z" />
    <glyph glyph-name="seven" unicode="7" horiz-adv-x="1208" 
d="M1169 1495l-680 -1495h-344l600 1219h-626v276h1050z" />
    <glyph glyph-name="eight" unicode="8" horiz-adv-x="1302" 
d="M1241 412q0 -130 -78.5 -230.5t-212 -153.5t-299.5 -53q-167 0 -300 53.5t-211.5 158.5t-78.5 245q0 250 265 373q-94 58 -142.5 124t-48.5 165q0 195 135.5 310.5t380.5 115.5q246 0 384.5 -115.5t138.5 -310.5q0 -100 -45 -166t-136 -123q124 -57 186 -151t62 -242z
M866 1094q0 78 -64 124t-151 46q-86 0 -147.5 -46t-61.5 -124q0 -84 59.5 -132.5t149.5 -48.5t152.5 49t62.5 132zM924 461q0 67 -40 115t-100.5 70t-132.5 22q-112 0 -192 -54t-80 -153q0 -97 81.5 -158t190.5 -61q110 0 191.5 61t81.5 158z" />
    <glyph glyph-name="nine" unicode="9" horiz-adv-x="1228" 
d="M1182 991q0 -126 -43.5 -262t-110 -251t-150.5 -223t-160.5 -184t-144.5 -128l-196 229q118 89 228.5 207.5t146.5 208.5q-64 -50 -120.5 -66t-144.5 -16q-126 0 -231 65.5t-164 176.5t-59 243q0 232 165.5 380.5t424.5 148.5q246 0 402.5 -151t156.5 -378zM854 997
q0 114 -67.5 185t-178.5 71q-109 0 -178.5 -72t-69.5 -184q0 -103 71.5 -171t176.5 -68q108 0 177 68t69 171z" />
    <glyph glyph-name="colon" unicode=":" horiz-adv-x="512" 
d="M410 573h-308v310h308v-310zM410 0h-308v309h308v-309z" />
    <glyph glyph-name="semicolon" unicode=";" horiz-adv-x="512" 
d="M410 573h-308v310h308v-310zM397 76q0 -105 -43 -201t-121 -203l-194 115q63 94 63 238v284h295v-233z" />
    <glyph glyph-name="less" unicode="&#x3c;" horiz-adv-x="798" 
d="M674 117l-596 409v277l596 405v-317l-361 -225l361 -228v-321z" />
    <glyph glyph-name="equal" unicode="=" horiz-adv-x="1069" 
d="M956 795h-843v266h843v-266zM956 303h-843v266h843v-266z" />
    <glyph glyph-name="greater" unicode="&#x3e;" horiz-adv-x="798" 
d="M721 528l-596 -405v317l360 226l-360 227v321l596 -409v-277z" />
    <glyph glyph-name="question" unicode="?" horiz-adv-x="942" 
d="M885 1137q0 -45 -13 -91.5t-28.5 -80.5t-48.5 -82t-51.5 -71t-59.5 -73q-133 -163 -133 -293v-47h-295v47q0 188 139 361q11 14 48.5 61.5t50 65.5t35 53t30.5 61t8 52q0 67 -41 114.5t-100 47.5q-72 0 -122 -29t-105 -86l-168 207q158 166 395 166q201 0 330 -105.5
t129 -277.5zM563 0h-319v299h319v-299z" />
    <glyph glyph-name="at" unicode="@" horiz-adv-x="1728" 
d="M1636 809q0 -99 -27 -185t-69 -142t-93 -96.5t-98.5 -58.5t-86.5 -18q-73 0 -131 25.5t-87 66.5q-129 -92 -266 -92q-152 0 -235.5 81.5t-83.5 205.5q0 146 130 228.5t333 82.5h116q0 75 -35.5 102t-123.5 27q-162 0 -267 -47l-63 166q56 33 142 49.5t165 16.5
q393 0 393 -254v-471q0 -47 49 -47q77 0 146 93t69 255q0 124 -46 232.5t-128.5 188t-204.5 125.5t-268 46q-176 0 -324 -84.5t-234.5 -234t-86.5 -331.5q0 -181 86.5 -329.5t234.5 -232t324 -83.5q141 0 260 56l50 -107q-151 -68 -312 -68q-157 0 -300 61.5t-246.5 165
t-164.5 246.5t-61 300t61 300t164.5 246.5t246.5 164.5t300 61q171 0 317 -56t245 -152t154.5 -226t55.5 -277zM1034 569v160h-106q-122 0 -186 -34.5t-64 -96.5q0 -98 153 -98q123 0 203 69z" />
    <glyph glyph-name="A" unicode="A" horiz-adv-x="1454" 
d="M1423 0h-360l-115 377h-454l-117 -377h-346l534 1495h316zM866 653l-110 365l-33 121q-15 -66 -31 -121l-112 -365h286z" />
    <glyph glyph-name="B" unicode="B" horiz-adv-x="1351" 
d="M1270 424q0 -199 -147.5 -311.5t-401.5 -112.5h-567v1495h518q237 0 378.5 -107t141.5 -294q0 -110 -63 -196t-162 -124q129 -19 216 -120t87 -230zM870 1055q0 90 -57 127t-172 37h-160v-347h160q229 0 229 183zM932 442q0 154 -211 154h-240v-320h240q112 0 161.5 42.5
t49.5 123.5z" />
    <glyph glyph-name="C" unicode="C" horiz-adv-x="1474" 
d="M1411 217q-111 -120 -245 -181t-320 -61q-169 0 -311 55t-242 155.5t-155.5 247t-55.5 323.5q0 165 59.5 308.5t161.5 242.5t241.5 156t295.5 57q166 0 295 -52.5t243 -169.5l-184 -215q-150 150 -354 150q-189 0 -304.5 -134t-115.5 -343q0 -233 110.5 -363.5
t315.5 -130.5q67 0 122.5 12.5t102.5 40t77 51.5t75 66z" />
    <glyph glyph-name="D" unicode="D" horiz-adv-x="1466" 
d="M1384 750q0 -179 -65.5 -324.5t-175 -236.5t-248 -140t-289.5 -49h-452v1495h452q161 0 301.5 -49.5t247 -141.5t168 -235t61.5 -319zM1047 750q0 199 -123.5 334t-317.5 135h-125v-943h125q135 0 237 66.5t153 173t51 234.5z" />
    <glyph glyph-name="E" unicode="E" horiz-adv-x="1171" 
d="M1055 0h-901v1495h870v-276h-543v-351h504v-276h-504v-316h574v-276z" />
    <glyph glyph-name="F" unicode="F" horiz-adv-x="1067" 
d="M954 1219h-473v-357h443v-276h-443v-586h-327v1495h800v-276z" />
    <glyph glyph-name="G" unicode="G" horiz-adv-x="1648" 
d="M1579 754q0 -181 -57 -329.5t-156 -246t-232 -150.5t-286 -53q-220 0 -394.5 98t-273 276t-98.5 405q0 170 60.5 314.5t163.5 243t242 153.5t294 55q350 0 577 -244l-202 -199q-144 156 -375 156q-122 0 -223 -66t-157 -175.5t-56 -237.5q0 -131 56.5 -243.5
t158.5 -180.5t227 -68q137 0 232 54.5t137 160.5h-381v277h743z" />
    <glyph glyph-name="H" unicode="H" horiz-adv-x="1482" 
d="M1329 0h-328v598h-520v-598h-327v1495h327v-621h520v621h328v-1495z" />
    <glyph glyph-name="I" unicode="I" horiz-adv-x="634" 
d="M481 0h-327v1495h327v-1495z" />
    <glyph glyph-name="J" unicode="J" horiz-adv-x="882" 
d="M739 473q0 -137 -67.5 -246t-180.5 -168t-249 -59h-170v281h104q119 0 177.5 63t58.5 203v948h327v-1022z" />
    <glyph glyph-name="K" unicode="K" horiz-adv-x="1458" 
d="M1399 0h-398l-436 612l-84 -92v-520h-327v1495h327v-543l484 543h405l-582 -637z" />
    <glyph glyph-name="L" unicode="L" horiz-adv-x="1085" 
d="M1014 0h-860v1495h327v-1219h533v-276z" />
    <glyph glyph-name="M" unicode="M" horiz-adv-x="1802" 
d="M1649 0h-328v862l6 105q-13 -35 -27 -60l-333 -612h-125l-340 612l-27 60q6 -52 6 -105v-862h-327v1495h321l404 -729q7 -13 14 -30t11 -28l3 -10q13 39 27 68l381 729h334v-1495z" />
    <glyph glyph-name="N" unicode="N" horiz-adv-x="1609" 
d="M1456 0h-282l-660 870l-37 62q4 -39 4 -76v-856h-327v1495h282l660 -862q10 -13 19.5 -28.5t13.5 -24.5l4 -9q-5 39 -5 76v848h328v-1495z" />
    <glyph glyph-name="O" unicode="O" horiz-adv-x="1703" 
d="M1622 754q0 -129 -35.5 -247t-103.5 -214t-161 -167.5t-214.5 -111t-257.5 -39.5q-170 0 -315 62t-243.5 167.5t-154 248t-55.5 301.5q0 160 56 301t155.5 243.5t245 162t315.5 59.5q229 0 405 -99t269.5 -272.5t93.5 -394.5zM1284 754q0 131 -52.5 240t-151.5 174
t-226 65q-93 0 -175 -40t-138.5 -106t-88.5 -153t-32 -180q0 -101 34.5 -192.5t92.5 -157t137.5 -104t165.5 -38.5q130 0 231 71t152 182t51 239z" />
    <glyph glyph-name="P" unicode="P" horiz-adv-x="1247" 
d="M1196 1055q0 -213 -147 -337t-400 -124h-168v-594h-327v1495h495q253 0 400 -115.5t147 -324.5zM868 1049q0 90 -54 130t-165 40h-168v-349h168q219 0 219 179z" />
    <glyph glyph-name="Q" unicode="Q" horiz-adv-x="1703" 
d="M1638 203l-133 -240q-86 26 -229 131q-186 -119 -426 -119q-170 0 -315 62t-243.5 167.5t-154 248t-55.5 301.5q0 160 56 301t155.5 243.5t245 162t315.5 59.5q229 0 405 -99t269.5 -272.5t93.5 -394.5q0 -272 -149 -475q104 -62 165 -76zM1284 754q0 125 -53 234
t-153 177t-224 68q-93 0 -175 -40t-138.5 -106t-88.5 -153t-32 -180q0 -131 59 -244.5t158 -180.5t213 -67q108 0 194 47q-45 54 -69 101l174 159q16 -24 70 -82q65 121 65 267z" />
    <glyph glyph-name="R" unicode="R" horiz-adv-x="1329" 
d="M1268 0h-371l-416 707v-707h-327v1495h536q232 0 373 -125t141 -321q0 -163 -90.5 -273t-243.5 -151zM877 1049q0 76 -53.5 123t-133.5 47h-209v-361h209q86 0 136.5 51.5t50.5 139.5z" />
    <glyph glyph-name="S" unicode="S" horiz-adv-x="1214" 
d="M1106 424q0 -211 -140 -330t-384 -119q-146 0 -265.5 48t-236.5 139l170 229q71 -56 160.5 -92.5t177.5 -36.5q107 0 148.5 34.5t41.5 106.5q0 42 -28 78t-76.5 62.5t-97.5 47t-107 43.5t-88 40q-51 28 -86.5 52t-72 60t-59 76.5t-36.5 98t-14 126.5q0 89 30 162.5
t81 123t120 83.5t144.5 49t156.5 15q113 0 229.5 -32.5t202.5 -96.5l-147 -244q-51 38 -128 62t-157 24q-103 0 -154 -46t-51 -100q0 -33 16 -60.5t39 -47t63.5 -40.5t73.5 -34t86.5 -33.5t86.5 -35.5q62 -27 109.5 -57.5t94 -78.5t72 -118t25.5 -158z" />
    <glyph glyph-name="T" unicode="T" horiz-adv-x="1056" 
d="M985 1219h-289v-1219h-327v1219h-297v276h913v-276z" />
    <glyph glyph-name="U" unicode="U" horiz-adv-x="1581" 
d="M1438 606q0 -149 -53.5 -270.5t-144.5 -199.5t-208.5 -119.5t-249.5 -41.5q-130 0 -245 41.5t-203 119.5t-139.5 199.5t-51.5 270.5v889h330v-889q0 -152 87 -250t222 -98q140 0 235 98.5t95 249.5v889h326v-889z" />
    <glyph glyph-name="V" unicode="V" horiz-adv-x="1351" 
d="M1321 1495l-487 -1495h-314l-489 1495h336l290 -954l23 -84q15 47 25 84l288 954h328z" />
    <glyph glyph-name="W" unicode="W" horiz-adv-x="1953" 
d="M1882 1495l-393 -1495h-318l-161 786q-5 27 -13 86t-13 104l-5 46q-19 -177 -31 -236l-162 -786h-327l-387 1495h340l192 -799q6 -25 12.5 -64.5t9.5 -65.5l3 -27q10 96 22 157l164 799h326l176 -799l22 -157q11 100 25 157l186 799h332z" />
    <glyph glyph-name="X" unicode="X" horiz-adv-x="1431" 
d="M1382 0h-366l-303 528l-299 -528h-365l479 815l-405 680h362l228 -391l215 391h366l-401 -680z" />
    <glyph glyph-name="Y" unicode="Y" horiz-adv-x="1413" 
d="M1382 1495l-516 -889v-606h-327v606l-508 889h372l275 -518q7 -15 14.5 -35t11.5 -32l3 -13q12 47 28 80l273 518h374z" />
    <glyph glyph-name="Z" unicode="Z" horiz-adv-x="1351" 
d="M1255 1495l-688 -1219h672v-276h-1180l689 1219h-615v276h1122z" />
    <glyph glyph-name="bracketleft" unicode="[" horiz-adv-x="747" 
d="M686 -367h-532v1862h532v-274h-221v-1313h221v-275z" />
    <glyph glyph-name="backslash" unicode="\" horiz-adv-x="909" 
d="M868 0h-309l-518 1495h307z" />
    <glyph glyph-name="bracketright" unicode="]" horiz-adv-x="747" 
d="M594 -367h-533v275h222v1313h-222v274h533v-1862z" />
    <glyph glyph-name="asciicircum" unicode="^" horiz-adv-x="1193" 
d="M1133 756h-322l-217 463l-215 -463h-318l375 739h318z" />
    <glyph glyph-name="underscore" unicode="_" horiz-adv-x="1024" 
d="M1024 -354h-1024v225h1024v-225z" />
    <glyph glyph-name="grave" unicode="`" horiz-adv-x="1024" 
d="M700 1014h-227l-223 342h293z" />
    <glyph glyph-name="a" unicode="a" horiz-adv-x="1083" 
d="M987 0h-317v68q-77 -54 -136 -73.5t-169 -19.5q-132 0 -226 76.5t-94 198.5q0 66 25.5 119t73.5 88.5t105 60.5t132 39.5t142 22t147 10.5v31q0 45 -31 63t-100 18q-169 0 -316 -75l-98 190q160 90 424 90q225 0 331.5 -80.5t106.5 -265.5v-561zM670 264v148
q-54 0 -102.5 -6.5t-91 -21t-68 -40.5t-25.5 -61q0 -37 30.5 -59.5t71.5 -22.5q114 0 185 63z" />
    <glyph glyph-name="b" unicode="b" horiz-adv-x="1150" 
d="M1100 440q0 -191 -116.5 -328t-297.5 -137q-81 0 -155.5 31.5t-110.5 83.5v-90h-318v1495h318v-702q36 52 110.5 83t155.5 31q120 0 216 -66.5t147 -172.5t51 -228zM782 444q0 90 -50.5 146.5t-129.5 56.5q-81 0 -131.5 -56.5t-50.5 -146.5q0 -92 50 -150t132 -58
q78 0 129 58.5t51 149.5z" />
    <glyph glyph-name="c" unicode="c" horiz-adv-x="946" 
d="M924 166q-81 -101 -170.5 -146t-216.5 -45q-209 0 -347.5 133t-138.5 330q0 195 138.5 332t347.5 137q222 0 358 -164l-182 -170q-76 82 -176 82q-84 0 -137.5 -61.5t-53.5 -155.5q0 -83 54 -148t137 -65q58 0 96 21.5t78 68.5z" />
    <glyph glyph-name="d" unicode="d" horiz-adv-x="1150" 
d="M1049 0h-318v90q-36 -52 -110.5 -83.5t-155.5 -31.5q-181 0 -297.5 137t-116.5 328q0 122 51 228t147 172.5t216 66.5q81 0 155.5 -31t110.5 -83v702h318v-1495zM731 444q0 90 -50.5 146.5t-131.5 56.5q-79 0 -129.5 -56.5t-50.5 -146.5q0 -91 51 -149.5t129 -58.5
q82 0 132 58t50 150z" />
    <glyph glyph-name="e" unicode="e" horiz-adv-x="1032" 
d="M977 123q-96 -80 -200 -114t-230 -34q-79 0 -150.5 16.5t-135.5 53.5t-110 91.5t-73 134.5t-27 178q0 214 126 336t319 122q213 0 342 -140.5t129 -379.5h-619q8 -82 59 -134t140 -52q100 0 168 22.5t127 71.5zM641 555q-6 68 -46 107.5t-103 39.5t-96 -38.5t-46 -108.5
h291z" />
    <glyph glyph-name="f" unicode="f" horiz-adv-x="622" 
d="M580 647h-117v-647h-318v647h-110v236h110v364q0 126 66.5 199.5t191.5 73.5h166v-267h-51q-55 0 -55 -100v-270h117v-236z" />
    <glyph glyph-name="g" unicode="g" horiz-adv-x="1150" 
d="M1049 18q0 -198 -127.5 -303.5t-352.5 -105.5q-127 0 -243.5 30t-182.5 70l103 209q125 -72 303 -72q182 0 182 162v92q-38 -48 -107.5 -81t-158.5 -33q-120 0 -216 63.5t-147 167.5t-51 225q0 191 116.5 328t297.5 137q81 0 155.5 -31t110.5 -83v90h318v-865zM731 438
q0 92 -50 150.5t-132 58.5q-78 0 -129 -59t-51 -150q0 -90 50.5 -146t129.5 -56q81 0 131.5 56t50.5 146z" />
    <glyph glyph-name="h" unicode="h" horiz-adv-x="1103" 
d="M1008 0h-318v455q0 94 -28 140t-97 46t-107 -47t-38 -129v-465h-318v1495h318v-704q85 116 254 116q87 0 152.5 -29t104.5 -81t58 -119t19 -148v-530z" />
    <glyph glyph-name="i" unicode="i" horiz-adv-x="522" 
d="M420 1026h-318v291h318v-291zM420 0h-318v883h318v-883z" />
    <glyph glyph-name="j" unicode="j" horiz-adv-x="522" 
d="M420 1026h-318v291h318v-291zM420 -94q0 -126 -66.5 -199.5t-191.5 -73.5h-193v267h78q55 0 55 100v883h318v-977z" />
    <glyph glyph-name="k" unicode="k" horiz-adv-x="1114" 
d="M1092 883l-359 -377l338 -506h-377l-184 281l-90 -97v-184h-318v1495h318v-956l317 344h355z" />
    <glyph glyph-name="l" unicode="l" horiz-adv-x="522" 
d="M420 0h-318v1495h318v-1495z" />
    <glyph glyph-name="m" unicode="m" horiz-adv-x="1650" 
d="M1554 0h-317v455q0 97 -23.5 141.5t-91.5 44.5q-135 0 -135 -176v-465h-317v455q0 97 -23.5 141.5t-91.5 44.5q-135 0 -135 -176v-465h-318v883h318v-92q80 116 244 116q186 0 270 -145q111 145 297 145q87 0 150.5 -28.5t100.5 -81t54.5 -119t17.5 -148.5v-530z" />
    <glyph glyph-name="n" unicode="n" horiz-adv-x="1103" 
d="M1008 0h-318v455q0 94 -28 140t-97 46t-107 -47t-38 -129v-465h-318v883h318v-92q85 116 254 116q87 0 152.5 -29t104.5 -81t58 -119t19 -148v-530z" />
    <glyph glyph-name="o" unicode="o" horiz-adv-x="1054" 
d="M1004 444q0 -128 -65.5 -236.5t-175 -170.5t-235.5 -62q-129 0 -238 60t-174 168t-65 239q0 128 65.5 235.5t174.5 168.5t235 61q128 0 237.5 -59t175 -166t65.5 -238zM694 444q0 82 -44 146.5t-124 64.5q-77 0 -121.5 -65.5t-44.5 -147.5q0 -84 45 -149.5t123 -65.5
t122 66t44 151z" />
    <glyph glyph-name="p" unicode="p" horiz-adv-x="1150" 
d="M1100 442q0 -122 -51 -228t-147 -172.5t-216 -66.5q-81 0 -155.5 31.5t-110.5 83.5v-457h-318v1250h318v-90q36 52 110.5 83t155.5 31q181 0 297.5 -137t116.5 -328zM782 438q0 91 -51 150t-129 59q-82 0 -132 -58.5t-50 -150.5q0 -90 50.5 -146t131.5 -56q79 0 129.5 56
t50.5 146z" />
    <glyph glyph-name="q" unicode="q" horiz-adv-x="1150" 
d="M1049 -367h-318v457q-36 -52 -110.5 -83.5t-155.5 -31.5q-120 0 -216 66.5t-147 172.5t-51 228q0 191 116.5 328t297.5 137q81 0 155.5 -31t110.5 -83v90h318v-1250zM731 438q0 92 -50 150.5t-132 58.5q-78 0 -129 -59t-51 -150q0 -90 50.5 -146t129.5 -56q81 0 131.5 56
t50.5 146z" />
    <glyph glyph-name="r" unicode="r" horiz-adv-x="868" 
d="M862 823l-155 -268q-40 31 -71 43t-71 12q-72 0 -108.5 -50t-36.5 -126v-434h-318v883h318v-117q35 60 95.5 100.5t133.5 40.5q129 0 213 -84z" />
    <glyph glyph-name="s" unicode="s" horiz-adv-x="847" 
d="M797 256q0 -73 -30.5 -129t-84 -88t-118.5 -48t-140 -16q-108 0 -210.5 26t-170.5 75l102 200q126 -75 232 -75q50 0 76 13.5t26 35.5q0 32 -30.5 51.5t-94.5 42.5q-115 44 -161 73q-119 78 -119 220q0 129 100.5 199.5t267.5 70.5q97 0 169.5 -19t152.5 -63l-90 -196
q-103 57 -225 57q-97 0 -97 -47q0 -5 2.5 -10t8 -9.5t11.5 -9t16 -9.5t18.5 -9t22.5 -9t24 -9t27 -10.5t28 -10.5q45 -16 80 -32t76 -42.5t68 -56.5t45 -73t18 -93z" />
    <glyph glyph-name="t" unicode="t" horiz-adv-x="704" 
d="M639 0h-199q-132 0 -213.5 91.5t-81.5 232.5v323h-110v236h110v366h318v-366h149v-236h-149v-266q0 -52 26 -83.5t72 -31.5h78v-266z" />
    <glyph glyph-name="u" unicode="u" horiz-adv-x="1103" 
d="M1001 0h-317v92q-86 -117 -254 -117q-87 0 -152.5 29t-104.5 81t-58 119t-19 148v531h318v-455q0 -94 28 -140t97 -46t107 47t38 129v465h317v-883z" />
    <glyph glyph-name="v" unicode="v" horiz-adv-x="1044" 
d="M1024 883l-389 -883h-217l-398 883h338l142 -363q7 -19 13.5 -47.5t9.5 -47.5l3 -19q11 69 29 114l141 363h328z" />
    <glyph glyph-name="w" unicode="w" horiz-adv-x="1556" 
d="M1536 883l-358 -883h-197l-168 332q-6 12 -11.5 29t-7.5 29l-3 11q-13 -44 -25 -71l-168 -330h-199l-379 883h330l166 -441l16 -57q9 32 19 57l235 514l236 -514q5 -12 9.5 -26t6.5 -22l2 -9q7 32 15 57l162 441h319z" />
    <glyph glyph-name="x" unicode="x" horiz-adv-x="995" 
d="M971 0h-340l-90 150l-45 79q-27 -46 -45 -77l-93 -152h-333l305 453l-273 430h336l76 -138l33 -65q12 28 30 65l70 138h340l-276 -432z" />
    <glyph glyph-name="y" unicode="y" horiz-adv-x="987" 
d="M967 883l-371 -1080q-68 -194 -252 -194h-184v260h67q47 0 84 25.5t37 62.5q0 56 -24 123l-304 803h334l121 -402l29 -110q14 57 28 110l105 402h330z" />
    <glyph glyph-name="z" unicode="z" horiz-adv-x="972" 
d="M944 883l-391 -590l-39 -51q34 4 61 4h318v-246h-875l400 592q7 11 16.5 23t15.5 18l5 6q-25 -2 -54 -2h-323v246h866z" />
    <glyph glyph-name="braceleft" unicode="{" horiz-adv-x="716" 
d="M668 -367q-225 37 -344 178.5t-119 368.5q0 59 -2.5 93.5t-11.5 70.5t-26.5 56t-48 35t-75.5 22v237q45 7 75.5 23t48 36t26.5 55.5t11.5 70.5t2.5 94q0 227 119 368.5t344 178.5v-246q-74 -56 -105 -114t-31 -159q0 -61 -2 -103t-9 -86.5t-19.5 -75.5t-33 -61.5
t-51.5 -54.5t-73 -45q63 -32 101.5 -70t57 -93.5t24 -111t5.5 -148.5q0 -101 31 -159t105 -114v-246z" />
    <glyph glyph-name="bar" unicode="|" horiz-adv-x="577" 
d="M444 -367h-311v1862h311v-1862z" />
    <glyph glyph-name="braceright" unicode="}" horiz-adv-x="716" 
d="M676 459q-45 -7 -75.5 -23t-48 -36t-26.5 -55.5t-11.5 -70.5t-2.5 -94q0 -227 -119 -368.5t-344 -178.5v246q73 56 104 114t31 159q0 61 2 103t9 86.5t20 75.5t33.5 61.5t51.5 54.5t73 45q-63 32 -101.5 70t-57.5 93.5t-24.5 111.5t-5.5 148q0 101 -31 159t-104 114v246
q225 -37 344 -178.5t119 -368.5q0 -59 2.5 -93.5t11.5 -70.5t26.5 -56t48 -35t75.5 -22v-237z" />
    <glyph glyph-name="asciitilde" unicode="~" horiz-adv-x="1146" 
d="M1065 971q0 -118 -28 -216t-91 -163.5t-153 -65.5q-99 0 -218 72q-24 14 -62.5 40.5t-60.5 39t-38 12.5q-30 0 -44 -45.5t-14 -112.5h-274q0 88 15.5 165t46.5 140.5t85 100.5t125 37q101 0 221 -78q19 -11 47.5 -30t45 -29t35 -18.5t30.5 -8.5q30 0 44 45.5t14 114.5
h274z" />
    <glyph glyph-name="nbspace" unicode="&#xa0;" horiz-adv-x="229" 
 />
    <glyph glyph-name="exclamdown" unicode="&#xa1;" horiz-adv-x="626" 
d="M473 1196h-319v299h319v-299zM473 0h-319v551l47 534h225l47 -534v-551z" />
    <glyph glyph-name="cent" unicode="&#xa2;" horiz-adv-x="952" 
d="M924 166q-72 -89 -149.5 -134.5t-180.5 -54.5v-139h-98v139q-194 14 -319.5 144t-125.5 317q0 121 56.5 224.5t159 168.5t229.5 74v109h98v-109q180 -18 301 -162l-182 -170q-53 59 -119 74v-416q57 15 117 84zM496 229v422q-68 -15 -109 -73t-41 -140q0 -73 41.5 -132.5
t108.5 -76.5z" />
    <glyph glyph-name="sterling" unicode="&#xa3;" horiz-adv-x="1546" 
d="M1438 317q0 -156 -71.5 -249t-190.5 -93q-88 0 -176.5 36.5t-196.5 101.5q-129 -138 -379 -138q-83 0 -158 27t-126.5 85t-51.5 134q0 77 44 134t111 84.5t144 27.5q140 0 219 -29q-13 72 -86 160h-373v92h289q-76 86 -88 101h-201v92h140q-64 115 -64 247q0 92 49 167.5
t129 123t177 73.5t198 26q96 0 181 -16.5t158 -52.5t125 -89t82 -129.5t30 -169.5h-332q0 106 -66.5 158.5t-177.5 52.5q-81 0 -148 -52.5t-67 -121.5q0 -61 24.5 -110.5t71.5 -106.5h439v-92h-361q39 -45 74 -101h287v-92h-240q41 -108 41 -242v-10q39 -19 60.5 -28t54 -17
t63.5 -8q48 0 67 21.5t19 60.5v63h277v-121zM584 244q-107 57 -185 57q-44 0 -73 -19t-29 -61q0 -38 34 -56t81 -18q118 0 172 97z" />
    <glyph glyph-name="currency" unicode="&#xa4;" 
d="M1004 1245h-512v250h512v-250zM1495 492h-250v512h250v-512zM1004 492h-512v512h512v-512zM250 492h-250v512h250v-512zM1004 0h-512v250h512v-250z" />
    <glyph glyph-name="yen" unicode="&#xa5;" horiz-adv-x="1413" 
d="M1382 1495l-512 -879h293v-157h-297v-125h297v-158h-297v-176h-327v176h-293v158h293v125h-293v157h286l-501 879h372l275 -518q7 -15 14.5 -35t11.5 -32l3 -13q12 47 28 80l273 518h374z" />
    <glyph glyph-name="brokenbar" unicode="&#xa6;" 
d="M1004 1245h-512v250h512v-250zM1495 492h-250v512h250v-512zM1004 492h-512v512h512v-512zM250 492h-250v512h250v-512zM1004 0h-512v250h512v-250z" />
    <glyph glyph-name="section" unicode="&#xa7;" horiz-adv-x="1462" 
d="M1370 582q0 -209 -223 -351q84 -87 84 -241q0 -168 -138.5 -274.5t-351.5 -106.5q-170 0 -292 39t-234 116l152 246q176 -125 387 -125q78 0 117.5 24t39.5 62q0 43 -30 69t-127 54l-301 84q-173 47 -267 135.5t-94 233.5q0 208 223 350q-84 87 -84 242
q0 168 138.5 274.5t351.5 106.5q169 0 291.5 -39.5t234.5 -116.5l-151 -246q-176 125 -387 125q-78 0 -118 -24t-40 -62q0 -43 30.5 -69t127.5 -54l301 -84q173 -47 266.5 -135t93.5 -233zM1053 530q0 64 -44.5 98t-170.5 68l-275 76q-153 -97 -153 -174q0 -64 44.5 -98
t170.5 -68l274 -76q154 97 154 174z" />
    <glyph glyph-name="dieresis" unicode="&#xa8;" horiz-adv-x="1024" 
d="M860 1014h-258v266h258v-266zM422 1014h-258v266h258v-266z" />
    <glyph glyph-name="copyright" unicode="&#xa9;" horiz-adv-x="1728" 
d="M1636 748q0 -157 -61 -300t-164.5 -246.5t-246.5 -165t-300 -61.5t-300 61.5t-246.5 165t-164.5 246.5t-61 300t61 300t164.5 246.5t246.5 164.5t300 61t300 -61t246.5 -164.5t164.5 -246.5t61 -300zM1511 745q0 132 -51 252t-137.5 206.5t-206.5 138t-252 51.5
t-252 -51.5t-206.5 -138t-137.5 -206.5t-51 -252q0 -176 86.5 -324.5t235.5 -234.5t325 -86t325 86t235.5 234.5t86.5 324.5zM1223 457q-56 -75 -149 -121.5t-206 -46.5q-83 0 -161 32.5t-140.5 91.5t-100.5 151.5t-38 203.5q0 120 56.5 222.5t159 164.5t228.5 62
q213 0 332 -142l-143 -133q-42 40 -80 56t-104 16q-111 0 -175.5 -75t-64.5 -171q0 -120 71.5 -198t163.5 -78q75 0 121.5 20t89.5 70z" />
    <glyph glyph-name="ordfeminine" unicode="&#xaa;" horiz-adv-x="923" 
d="M772 819h-176v49q-90 -69 -213 -69t-188.5 65t-65.5 164q0 118 103.5 184t265.5 66h102q0 51 -30 70.5t-105 19.5q-130 0 -211 -37l-53 137q44 26 112.5 39t132.5 13q326 0 326 -224v-477zM772 522h-643v166h643v-166zM596 1012v118h-109q-176 0 -176 -102
q0 -35 31.5 -53.5t83.5 -18.5t88 12t82 44z" />
    <glyph glyph-name="guillemotleft" unicode="&#xab;" horiz-adv-x="921" 
d="M819 84l-311 227v279l311 227v-268l-133 -98l133 -99v-268zM393 84l-311 227v279l311 227v-268l-133 -98l133 -99v-268z" />
    <glyph glyph-name="logicalnot" unicode="&#xac;" 
d="M1004 1245h-512v250h512v-250zM1495 492h-250v512h250v-512zM1004 492h-512v512h512v-512zM250 492h-250v512h250v-512zM1004 0h-512v250h512v-250z" />
    <glyph glyph-name="registered" unicode="&#xae;" horiz-adv-x="1728" 
d="M1636 748q0 -157 -61 -300t-164.5 -246.5t-246.5 -165t-300 -61.5t-300 61.5t-246.5 165t-164.5 246.5t-61 300t61 300t164.5 246.5t246.5 164.5t300 61t300 -61t246.5 -164.5t164.5 -246.5t61 -300zM1511 745q0 132 -51 252t-137.5 206.5t-206.5 138t-252 51.5
t-252 -51.5t-206.5 -138t-137.5 -206.5t-51 -252q0 -176 86.5 -324.5t235.5 -234.5t325 -86t325 86t235.5 234.5t86.5 324.5zM1257 317h-235l-244 390v-390h-205v897h353q123 0 204.5 -77t81.5 -187q0 -106 -55.5 -175.5t-148.5 -84.5zM1004 944q0 45 -32.5 72.5t-82.5 27.5
h-111v-223h107q53 0 86 32.5t33 90.5z" />
    <glyph glyph-name="macron" unicode="&#xaf;" horiz-adv-x="1024" 
d="M819 1075h-614v135h614v-135z" />
    <glyph glyph-name="degree" unicode="&#xb0;" horiz-adv-x="872" 
d="M821 1135q0 -160 -112.5 -272.5t-272.5 -112.5t-272.5 112.5t-112.5 272.5t112.5 272.5t272.5 112.5t272.5 -112.5t112.5 -272.5zM629 1135q0 78 -57.5 135t-135.5 57t-135 -57t-57 -135t57 -135.5t135 -57.5t135.5 57.5t57.5 135.5z" />
    <glyph glyph-name="plusminus" unicode="&#xb1;" horiz-adv-x="1728" 
d="M1626 0h-317v1495h317v-1495zM1163 647h-116v-647h-318v647h-111v236h111v364q0 126 66.5 199.5t191.5 73.5h166v-267h-51q-29 0 -42 -31.5t-13 -68.5v-270h116v-236zM580 647h-117v-647h-318v647h-110v236h110v364q0 126 66.5 199.5t191.5 73.5h166v-267h-51
q-29 0 -42 -31.5t-13 -68.5v-270h117v-236z" />
    <glyph glyph-name="twosuperior" unicode="&#xb2;" 
d="M1004 1245h-512v250h512v-250zM1495 492h-250v512h250v-512zM1004 492h-512v512h512v-512zM250 492h-250v512h250v-512zM1004 0h-512v250h512v-250z" />
    <glyph glyph-name="threesuperior" unicode="&#xb3;" 
d="M1004 1245h-512v250h512v-250zM1495 492h-250v512h250v-512zM1004 492h-512v512h512v-512zM250 492h-250v512h250v-512zM1004 0h-512v250h512v-250z" />
    <glyph glyph-name="acute" unicode="&#xb4;" horiz-adv-x="1024" 
d="M778 1356l-223 -342h-227l157 342h293z" />
    <glyph glyph-name="mu" unicode="&#xb5;" 
d="M1004 1245h-512v250h512v-250zM1495 492h-250v512h250v-512zM1004 492h-512v512h512v-512zM250 492h-250v512h250v-512zM1004 0h-512v250h512v-250z" />
    <glyph glyph-name="paragraph" unicode="&#xb6;" horiz-adv-x="1617" 
d="M1464 -367h-272v1588h-152v-1588h-272v791h-182q-120 0 -221.5 45.5t-168 120.5t-104 169t-37.5 193q0 108 38 205t108.5 173t180.5 120.5t245 44.5h837v-1862zM768 698v523h-131q-130 0 -200 -69t-70 -187q0 -121 68.5 -194t189.5 -73h143z" />
    <glyph glyph-name="periodcentered" unicode="&#xb7;" horiz-adv-x="512" 
d="M410 565h-308v309h308v-309z" />
    <glyph glyph-name="cedilla" unicode="&#xb8;" horiz-adv-x="1024" 
d="M717 -186q0 -80 -68 -130.5t-157 -50.5q-117 0 -213 66l65 88q64 -41 141 -41q31 0 50.5 14t19.5 41q0 39 -68 39q-48 0 -77 -10l-43 70l98 129h135l-68 -86q82 4 133.5 -33.5t51.5 -95.5z" />
    <glyph glyph-name="onesuperior" unicode="&#xb9;" 
d="M1004 1245h-512v250h512v-250zM1495 492h-250v512h250v-512zM1004 492h-512v512h512v-512zM250 492h-250v512h250v-512zM1004 0h-512v250h512v-250z" />
    <glyph glyph-name="ordmasculine" unicode="&#xba;" horiz-adv-x="995" 
d="M856 1171q0 -156 -103 -264t-257 -108q-155 0 -257 101t-102 265q0 92 43.5 172.5t126 131.5t185.5 51q156 0 260 -103.5t104 -245.5zM856 522h-719v166h719v-166zM664 1161q0 83 -48 131.5t-124 48.5q-70 0 -116 -52t-46 -124q0 -87 43.5 -136.5t115.5 -49.5
q86 0 130.5 50.5t44.5 131.5z" />
    <glyph glyph-name="guillemotright" unicode="&#xbb;" horiz-adv-x="921" 
d="M840 311l-312 -227v268l134 99l-134 98v268l312 -227v-279zM414 311l-312 -227v268l134 99l-134 98v268l312 -227v-279z" />
    <glyph glyph-name="onequarter" unicode="&#xbc;" 
d="M1004 1245h-512v250h512v-250zM1495 492h-250v512h250v-512zM1004 492h-512v512h512v-512zM250 492h-250v512h250v-512zM1004 0h-512v250h512v-250z" />
    <glyph glyph-name="onehalf" unicode="&#xbd;" 
d="M1004 1245h-512v250h512v-250zM1495 492h-250v512h250v-512zM1004 492h-512v512h512v-512zM250 492h-250v512h250v-512zM1004 0h-512v250h512v-250z" />
    <glyph glyph-name="threequarters" unicode="&#xbe;" 
d="M1004 1245h-512v250h512v-250zM1495 492h-250v512h250v-512zM1004 492h-512v512h512v-512zM250 492h-250v512h250v-512zM1004 0h-512v250h512v-250z" />
    <glyph glyph-name="questiondown" unicode="&#xbf;" horiz-adv-x="942" 
d="M698 1196h-319v299h319v-299zM911 141q-158 -166 -395 -166q-201 0 -330 105.5t-129 277.5q0 45 13 91.5t28.5 80.5t48.5 82t51.5 71t59.5 73q133 163 133 293v47h295v-47q0 -188 -139 -361q-11 -14 -48.5 -61.5t-50 -65.5t-35 -53t-30.5 -61t-8 -52q0 -67 41 -114.5
t100 -47.5q72 0 122 29t105 86z" />
    <glyph glyph-name="Agrave" unicode="&#xc0;" horiz-adv-x="1454" 
d="M1423 0h-360l-115 377h-454l-117 -377h-346l534 1495h316zM866 653l-110 365l-33 121q-15 -66 -31 -121l-112 -365h286zM838 1618h-228l-223 342h293z" />
    <glyph glyph-name="Aacute" unicode="&#xc1;" horiz-adv-x="1454" 
d="M1423 0h-360l-115 377h-454l-117 -377h-346l534 1495h316zM866 653l-110 365l-33 121q-15 -66 -31 -121l-112 -365h286zM1065 1960l-223 -342h-228l158 342h293z" />
    <glyph glyph-name="Acircumflex" unicode="&#xc2;" horiz-adv-x="1454" 
d="M1423 0h-360l-115 377h-454l-117 -377h-346l534 1495h316zM866 653l-110 365l-33 121q-15 -66 -31 -121l-112 -365h286zM1044 1618h-231l-92 143l-92 -143h-228l211 301h222z" />
    <glyph glyph-name="Atilde" unicode="&#xc3;" horiz-adv-x="1454" 
d="M1423 0h-360l-115 377h-454l-117 -377h-346l534 1495h316zM866 653l-110 365l-33 121q-15 -66 -31 -121l-112 -365h286zM1106 1868q0 -119 -69.5 -186.5t-192.5 -67.5q-44 0 -142 39q-88 39 -120 39q-84 0 -84 -74h-170q0 118 70 186t192 68q45 0 141 -41q5 -2 21.5 -8.5
t23 -9l19.5 -7.5t20.5 -7t18 -3.5t18.5 -1.5q84 0 84 74h170z" />
    <glyph glyph-name="Adieresis" unicode="&#xc4;" horiz-adv-x="1454" 
d="M1364 1208h-258v287h258v-287zM340 1208h-258v287h258v-287zM1423 0h-360l-115 377h-454l-117 -377h-346l534 1495h316zM866 653l-110 365l-33 121q-15 -66 -31 -121l-112 -365h286z" />
    <glyph glyph-name="Aring" unicode="&#xc5;" horiz-adv-x="1454" 
d="M1423 0h-360l-115 377h-454l-117 -377h-346l524 1466q-44 38 -70 91t-26 110q0 106 79 185t185 79t185 -79t79 -185q0 -57 -26 -110t-70 -91zM831 1667q0 46 -31 77.5t-77 31.5t-77.5 -31.5t-31.5 -77.5t31.5 -77t77.5 -31t77 31t31 77zM866 653l-110 365l-33 121
q-15 -66 -31 -121l-112 -365h286z" />
    <glyph glyph-name="AE" unicode="&#xc6;" horiz-adv-x="1951" 
d="M1835 0h-870v387h-416l-201 -387h-328l775 1495h1009v-276h-542v-351h503v-276h-503v-316h573v-276zM965 653v568l-289 -568h289z" />
    <glyph glyph-name="Ccedilla" unicode="&#xc7;" horiz-adv-x="1474" 
d="M1411 217q-111 -119 -244.5 -180.5t-318.5 -61.5l-27 -32q82 4 133.5 -33.5t51.5 -95.5q0 -80 -68.5 -130.5t-157.5 -50.5q-117 0 -213 66l66 88q64 -41 141 -41q31 0 50.5 14t19.5 41q0 39 -68 39q-49 0 -78 -10l-43 70l64 84q-292 39 -464.5 244.5t-172.5 527.5
q0 165 59.5 308.5t161.5 242.5t241.5 156t295.5 57q166 0 295 -52.5t243 -169.5l-184 -215q-150 150 -354 150q-189 0 -304.5 -134t-115.5 -343q0 -233 110.5 -363.5t315.5 -130.5q67 0 122.5 12.5t102.5 40t77 51.5t75 66z" />
    <glyph glyph-name="Egrave" unicode="&#xc8;" horiz-adv-x="1171" 
d="M1055 0h-901v1495h870v-276h-543v-351h504v-276h-504v-316h574v-276zM739 1618h-227l-223 342h293z" />
    <glyph glyph-name="Eacute" unicode="&#xc9;" horiz-adv-x="1171" 
d="M1055 0h-901v1495h870v-276h-543v-351h504v-276h-504v-316h574v-276zM877 1960l-224 -342h-227l158 342h293z" />
    <glyph glyph-name="Ecircumflex" unicode="&#xca;" horiz-adv-x="1171" 
d="M1055 0h-901v1495h870v-276h-543v-351h504v-276h-504v-316h574v-276zM903 1618h-231l-92 143l-93 -143h-227l211 301h221z" />
    <glyph glyph-name="Edieresis" unicode="&#xcb;" horiz-adv-x="1171" 
d="M1055 0h-901v1495h870v-276h-543v-351h504v-276h-504v-316h574v-276zM928 1618h-258v266h258v-266zM489 1618h-258v266h258v-266z" />
    <glyph glyph-name="Igrave" unicode="&#xcc;" horiz-adv-x="634" 
d="M481 0h-327v1495h327v-1495zM604 1618h-227l-223 342h292z" />
    <glyph glyph-name="Iacute" unicode="&#xcd;" horiz-adv-x="634" 
d="M481 0h-327v1495h327v-1495zM651 1960l-223 -342h-227l157 342h293z" />
    <glyph glyph-name="Icircumflex" unicode="&#xce;" horiz-adv-x="634" 
d="M481 0h-327v1495h327v-1495zM797 1618h-232l-92 143l-92 -143h-227l211 301h221z" />
    <glyph glyph-name="Idieresis" unicode="&#xcf;" horiz-adv-x="634" 
d="M481 0h-327v1495h327v-1495zM850 1618h-258v266h258v-266zM412 1618h-258v266h258v-266z" />
    <glyph glyph-name="Eth" unicode="&#xd0;" horiz-adv-x="1527" 
d="M1446 750q0 -179 -65.5 -324.5t-175 -236.5t-248 -140t-289.5 -49h-453v592h-164v270h164v633h453q161 0 301.5 -49.5t247 -141.5t168 -235t61.5 -319zM1108 750q0 130 -54.5 237t-156 169.5t-229.5 62.5h-125v-357h225v-270h-225v-316h125q102 0 186 38.5t139 104
t85 151t30 180.5z" />
    <glyph glyph-name="Ntilde" unicode="&#xd1;" horiz-adv-x="1609" 
d="M1456 0h-282l-660 870l-37 62q4 -39 4 -76v-856h-327v1495h282l660 -862q10 -13 19.5 -28.5t13.5 -24.5l4 -9q-5 39 -5 76v848h328v-1495zM1182 1868q0 -119 -69.5 -186.5t-192.5 -67.5q-44 0 -142 39q-88 39 -121 39q-84 0 -84 -74h-170q0 117 70 185.5t193 68.5
q45 0 141 -41q5 -2 21.5 -8.5t23 -9l19.5 -7.5t20.5 -7t18 -3.5t18.5 -1.5q84 0 84 74h170z" />
    <glyph glyph-name="Ograve" unicode="&#xd2;" horiz-adv-x="1703" 
d="M1622 754q0 -129 -35.5 -247t-103.5 -214t-161 -167.5t-214.5 -111t-257.5 -39.5q-170 0 -315 62t-243.5 167.5t-154 248t-55.5 301.5q0 160 56 301t155.5 243.5t245 162t315.5 59.5q229 0 405 -99t269.5 -272.5t93.5 -394.5zM1284 754q0 131 -52.5 240t-151.5 174
t-226 65q-93 0 -175 -40t-138.5 -106t-88.5 -153t-32 -180q0 -101 34.5 -192.5t92.5 -157t137.5 -104t165.5 -38.5q130 0 231 71t152 182t51 239zM967 1618h-228l-223 342h293z" />
    <glyph glyph-name="Oacute" unicode="&#xd3;" horiz-adv-x="1703" 
d="M1622 754q0 -129 -35.5 -247t-103.5 -214t-161 -167.5t-214.5 -111t-257.5 -39.5q-170 0 -315 62t-243.5 167.5t-154 248t-55.5 301.5q0 160 56 301t155.5 243.5t245 162t315.5 59.5q229 0 405 -99t269.5 -272.5t93.5 -394.5zM1284 754q0 131 -52.5 240t-151.5 174
t-226 65q-93 0 -175 -40t-138.5 -106t-88.5 -153t-32 -180q0 -101 34.5 -192.5t92.5 -157t137.5 -104t165.5 -38.5q130 0 231 71t152 182t51 239zM1139 1960l-224 -342h-227l158 342h293z" />
    <glyph glyph-name="Ocircumflex" unicode="&#xd4;" horiz-adv-x="1703" 
d="M1622 754q0 -129 -35.5 -247t-103.5 -214t-161 -167.5t-214.5 -111t-257.5 -39.5q-170 0 -315 62t-243.5 167.5t-154 248t-55.5 301.5q0 160 56 301t155.5 243.5t245 162t315.5 59.5q229 0 405 -99t269.5 -272.5t93.5 -394.5zM1284 754q0 131 -52.5 240t-151.5 174
t-226 65q-93 0 -175 -40t-138.5 -106t-88.5 -153t-32 -180q0 -101 34.5 -192.5t92.5 -157t137.5 -104t165.5 -38.5q130 0 231 71t152 182t51 239zM1174 1618h-232l-92 143l-92 -143h-228l211 301h222z" />
    <glyph glyph-name="Otilde" unicode="&#xd5;" horiz-adv-x="1703" 
d="M1622 754q0 -129 -35.5 -247t-103.5 -214t-161 -167.5t-214.5 -111t-257.5 -39.5q-170 0 -315 62t-243.5 167.5t-154 248t-55.5 301.5q0 160 56 301t155.5 243.5t245 162t315.5 59.5q229 0 405 -99t269.5 -272.5t93.5 -394.5zM1284 754q0 131 -52.5 240t-151.5 174
t-226 65q-93 0 -175 -40t-138.5 -106t-88.5 -153t-32 -180q0 -101 34.5 -192.5t92.5 -157t137.5 -104t165.5 -38.5q130 0 231 71t152 182t51 239zM1235 1868q0 -119 -69.5 -186.5t-192.5 -67.5q-45 0 -142 39q-88 39 -120 39q-84 0 -84 -74h-170q0 118 70 186t192 68
q45 0 141 -41q92 -37 121 -37q84 0 84 74h170z" />
    <glyph glyph-name="Odieresis" unicode="&#xd6;" horiz-adv-x="1703" 
d="M1622 754q0 -129 -35.5 -247t-103.5 -214t-161 -167.5t-214.5 -111t-257.5 -39.5q-170 0 -315 62t-243.5 167.5t-154 248t-55.5 301.5q0 272 154 475h-154v266h258v-154q214 179 514 179q306 0 510 -172v147h258v-266h-145q145 -196 145 -475zM1284 754q0 125 -53 234
t-153 177t-224 68q-93 0 -175 -40t-138.5 -106t-88.5 -153t-32 -180q0 -131 59 -244.5t158 -180.5t213 -67q130 0 231 71t152 182t51 239z" />
    <glyph glyph-name="multiply" unicode="&#xd7;" 
d="M1004 1245h-512v250h512v-250zM1495 492h-250v512h250v-512zM1004 492h-512v512h512v-512zM250 492h-250v512h250v-512zM1004 0h-512v250h512v-250z" />
    <glyph glyph-name="Oslash" unicode="&#xd8;" horiz-adv-x="1703" 
d="M1634 1389l-159 -156q147 -202 147 -479q0 -129 -35.5 -247t-103.5 -214t-161 -167.5t-214.5 -111t-257.5 -39.5q-287 0 -494 170l-151 -149l-121 115l158 153q-160 209 -160 490q0 160 56 301t155.5 243.5t245 162t315.5 59.5q300 0 504 -168l151 147zM1126 1126
q-117 107 -272 107q-93 0 -175 -40t-138.5 -106t-88.5 -153t-32 -180q0 -131 63 -254zM1284 754q0 126 -57 237l-641 -622q120 -107 264 -107q130 0 231 71t152 182t51 239z" />
    <glyph glyph-name="Ugrave" unicode="&#xd9;" horiz-adv-x="1581" 
d="M1438 606q0 -149 -53.5 -270.5t-144.5 -199.5t-208.5 -119.5t-249.5 -41.5q-130 0 -245 41.5t-203 119.5t-139.5 199.5t-51.5 270.5v889h330v-889q0 -152 87 -250t222 -98q140 0 235 98.5t95 249.5v889h326v-889zM940 1597h-227l-224 342h293z" />
    <glyph glyph-name="Uacute" unicode="&#xda;" horiz-adv-x="1581" 
d="M1438 606q0 -149 -53.5 -270.5t-144.5 -199.5t-208.5 -119.5t-249.5 -41.5q-130 0 -245 41.5t-203 119.5t-139.5 199.5t-51.5 270.5v889h330v-889q0 -152 87 -250t222 -98q140 0 235 98.5t95 249.5v889h326v-889zM1096 1939l-224 -342h-227l158 342h293z" />
    <glyph glyph-name="Ucircumflex" unicode="&#xdb;" horiz-adv-x="1581" 
d="M1438 606q0 -149 -53.5 -270.5t-144.5 -199.5t-208.5 -119.5t-249.5 -41.5q-130 0 -245 41.5t-203 119.5t-139.5 199.5t-51.5 270.5v889h330v-889q0 -152 87 -250t222 -98q140 0 235 98.5t95 249.5v889h326v-889zM1114 1618h-231l-92 143l-93 -143h-227l211 301h221z" />
    <glyph glyph-name="Udieresis" unicode="&#xdc;" horiz-adv-x="1581" 
d="M1010 1167h-166v328h166v-328zM741 1167h-166v328h166v-328zM1438 606q0 -149 -53.5 -270.5t-144.5 -199.5t-208.5 -119.5t-249.5 -41.5q-130 0 -245 41.5t-203 119.5t-139.5 199.5t-51.5 270.5v889h330v-889q0 -152 87 -250t222 -98q140 0 235 98.5t95 249.5v889h326
v-889z" />
    <glyph glyph-name="Yacute" unicode="&#xdd;" horiz-adv-x="1413" 
d="M1382 1495l-516 -889v-606h-327v606l-508 889h372l275 -518q7 -15 14.5 -35t11.5 -32l3 -13q12 47 28 80l273 518h374zM1020 1960l-223 -342h-228l158 342h293z" />
    <glyph glyph-name="Thorn" unicode="&#xde;" horiz-adv-x="1247" 
d="M1196 774q0 -213 -147 -337t-400 -124h-168v-313h-327v1495h327v-281h168q253 0 400 -115.5t147 -324.5zM868 768q0 90 -54 130t-165 40h-168v-348h168q219 0 219 178z" />
    <glyph glyph-name="germandbls" unicode="&#xdf;" horiz-adv-x="1132" 
d="M1081 418q0 -197 -120 -320t-314 -123q-52 0 -121 21v248q38 -17 101 -17q79 0 112 48t33 143q0 113 -65.5 207.5t-200.5 124.5v184q89 0 139.5 51.5t50.5 130.5q0 74 -34.5 113t-100.5 39q-75 0 -108 -41t-33 -97v-1130h-318v1133q0 169 135 278t332 109
q194 0 315.5 -103t121.5 -270q0 -107 -55 -187.5t-144 -115.5q55 -21 100 -52.5t86 -81t64.5 -124.5t23.5 -168z" />
    <glyph glyph-name="agrave" unicode="&#xe0;" horiz-adv-x="1083" 
d="M987 0h-317v68q-77 -54 -136 -73.5t-169 -19.5q-132 0 -226 76.5t-94 198.5q0 66 25.5 119t73.5 88.5t105 60.5t132 39.5t142 22t147 10.5v31q0 45 -31 63t-100 18q-169 0 -316 -75l-98 190q160 90 424 90q225 0 331.5 -80.5t106.5 -265.5v-561zM670 264v148
q-54 0 -102.5 -6.5t-91 -21t-68 -40.5t-25.5 -61q0 -37 30.5 -59.5t71.5 -22.5q114 0 185 63zM692 1014h-227l-223 342h293z" />
    <glyph glyph-name="aacute" unicode="&#xe1;" horiz-adv-x="1083" 
d="M987 0h-317v68q-77 -54 -136 -73.5t-169 -19.5q-132 0 -226 76.5t-94 198.5q0 66 25.5 119t73.5 88.5t105 60.5t132 39.5t142 22t147 10.5v31q0 45 -31 63t-100 18q-169 0 -316 -75l-98 190q160 90 424 90q225 0 331.5 -80.5t106.5 -265.5v-561zM670 264v148
q-54 0 -102.5 -6.5t-91 -21t-68 -40.5t-25.5 -61q0 -37 30.5 -59.5t71.5 -22.5q114 0 185 63zM854 1356l-223 -342h-228l158 342h293z" />
    <glyph glyph-name="acircumflex" unicode="&#xe2;" horiz-adv-x="1083" 
d="M987 0h-317v68q-77 -54 -136 -73.5t-169 -19.5q-132 0 -226 76.5t-94 198.5q0 66 25.5 119t73.5 88.5t105 60.5t132 39.5t142 22t147 10.5v31q0 45 -31 63t-100 18q-169 0 -316 -75l-98 190q160 90 424 90q225 0 331.5 -80.5t106.5 -265.5v-561zM670 264v148
q-54 0 -102.5 -6.5t-91 -21t-68 -40.5t-25.5 -61q0 -37 30.5 -59.5t71.5 -22.5q114 0 185 63zM864 1014h-231l-92 143l-92 -143h-228l211 301h221z" />
    <glyph glyph-name="atilde" unicode="&#xe3;" horiz-adv-x="1083" 
d="M987 0h-317v68q-77 -54 -136 -73.5t-169 -19.5q-132 0 -226 76.5t-94 198.5q0 66 25.5 119t73.5 88.5t105 60.5t132 39.5t142 22t147 10.5v31q0 45 -31 63t-100 18q-169 0 -316 -75l-98 190q160 90 424 90q225 0 331.5 -80.5t106.5 -265.5v-561zM670 264v148
q-54 0 -102.5 -6.5t-91 -21t-68 -40.5t-25.5 -61q0 -37 30.5 -59.5t71.5 -22.5q114 0 185 63zM942 1264q0 -119 -69.5 -186.5t-192.5 -67.5q-44 0 -141 39q-85 38 -121 38q-84 0 -84 -73h-170q0 118 70 186t192 68q45 0 141 -41q92 -37 121 -37q84 0 84 74h170z" />
    <glyph glyph-name="adieresis" unicode="&#xe4;" horiz-adv-x="1083" 
d="M987 0h-317v68q-77 -54 -136 -73.5t-169 -19.5q-132 0 -226 76.5t-94 198.5q0 66 25.5 119t73.5 88.5t105 60.5t132 39.5t142 22t147 10.5v31q0 45 -31 63t-100 18q-169 0 -316 -75l-98 190q160 90 424 90q225 0 331.5 -80.5t106.5 -265.5v-561zM670 264v148
q-54 0 -102.5 -6.5t-91 -21t-68 -40.5t-25.5 -61q0 -37 30.5 -59.5t71.5 -22.5q114 0 185 63zM893 1014h-258v266h258v-266zM455 1014h-258v266h258v-266z" />
    <glyph glyph-name="aring" unicode="&#xe5;" horiz-adv-x="1083" 
d="M987 0h-317v68q-77 -54 -136 -73.5t-169 -19.5q-132 0 -226 76.5t-94 198.5q0 66 25.5 119t73.5 88.5t105 60.5t132 39.5t142 22t147 10.5v31q0 45 -31 63t-100 18q-169 0 -316 -75l-98 190q160 90 424 90q225 0 331.5 -80.5t106.5 -265.5v-561zM670 264v148
q-54 0 -102.5 -6.5t-91 -21t-68 -40.5t-25.5 -61q0 -37 30.5 -59.5t71.5 -22.5q114 0 185 63zM813 1264q0 -106 -79 -185.5t-185 -79.5t-185 79.5t-79 185.5t79 185t185 79t185 -79t79 -185zM657 1264q0 46 -31 77t-77 31t-77.5 -31t-31.5 -77t31.5 -77.5t77.5 -31.5
t77 31.5t31 77.5z" />
    <glyph glyph-name="ae" unicode="&#xe6;" horiz-adv-x="1642" 
d="M1587 123q-96 -80 -200 -114t-230 -34q-122 0 -227.5 41.5t-171.5 124.5q-95 -94 -177.5 -130t-215.5 -36q-132 0 -226 76.5t-94 198.5q0 66 26 119t75 88.5t107 60.5t134 39.5t143.5 22t147.5 10.5v31q0 44 -34.5 62.5t-104.5 18.5q-169 0 -316 -75l-98 190
q160 90 424 90q217 0 309 -86q48 39 114 62.5t134 23.5q213 0 342 -140.5t129 -379.5h-627q6 -79 61.5 -132.5t145.5 -53.5q100 0 168 22.5t127 71.5zM1251 555q-6 68 -46 107.5t-103 39.5q-65 0 -103 -39.5t-47 -107.5h299zM678 264v148q-54 0 -103.5 -6.5t-94 -21
t-71 -40.5t-26.5 -61q0 -37 30.5 -59.5t71.5 -22.5q122 0 193 63z" />
    <glyph glyph-name="ccedilla" unicode="&#xe7;" horiz-adv-x="946" 
d="M924 166q-78 -97 -162.5 -142t-202.5 -49l-27 -32q82 4 133.5 -33.5t51.5 -95.5q0 -80 -68 -130.5t-157 -50.5q-117 0 -213 66l65 88q64 -41 141 -41q31 0 50.5 14t19.5 41q0 39 -68 39q-48 0 -77 -10l-43 70l65 86q-168 32 -274.5 157.5t-106.5 294.5q0 195 138.5 332
t347.5 137q222 0 358 -164l-182 -170q-76 82 -176 82q-84 0 -137.5 -61.5t-53.5 -155.5q0 -83 54 -148t137 -65q58 0 96 21.5t78 68.5z" />
    <glyph glyph-name="egrave" unicode="&#xe8;" horiz-adv-x="1032" 
d="M977 123q-96 -80 -200 -114t-230 -34q-79 0 -150.5 16.5t-135.5 53.5t-110 91.5t-73 134.5t-27 178q0 214 126 336t319 122q213 0 342 -140.5t129 -379.5h-619q8 -82 59 -134t140 -52q100 0 168 22.5t127 71.5zM641 555q-6 68 -46 107.5t-103 39.5t-96 -38.5t-46 -108.5
h291zM641 1014h-227l-224 342h293z" />
    <glyph glyph-name="eacute" unicode="&#xe9;" horiz-adv-x="1032" 
d="M977 123q-96 -80 -200 -114t-230 -34q-79 0 -150.5 16.5t-135.5 53.5t-110 91.5t-73 134.5t-27 178q0 214 126 336t319 122q213 0 342 -140.5t129 -379.5h-619q8 -82 59 -134t140 -52q100 0 168 22.5t127 71.5zM641 555q-6 68 -46 107.5t-103 39.5t-96 -38.5t-46 -108.5
h291zM834 1356l-224 -342h-227l158 342h293z" />
    <glyph glyph-name="ecircumflex" unicode="&#xea;" horiz-adv-x="1032" 
d="M977 123q-96 -80 -200 -114t-230 -34q-79 0 -150.5 16.5t-135.5 53.5t-110 91.5t-73 134.5t-27 178q0 214 126 336t319 122q213 0 342 -140.5t129 -379.5h-619q8 -82 59 -134t140 -52q100 0 168 22.5t127 71.5zM641 555q-6 68 -46 107.5t-103 39.5t-96 -38.5t-46 -108.5
h291zM821 1014h-231l-92 143l-92 -143h-228l211 301h221z" />
    <glyph glyph-name="edieresis" unicode="&#xeb;" horiz-adv-x="1032" 
d="M977 123q-96 -80 -200 -114t-230 -34q-79 0 -150.5 16.5t-135.5 53.5t-110 91.5t-73 134.5t-27 178q0 214 126 336t319 122q213 0 342 -140.5t129 -379.5h-619q8 -82 59 -134t140 -52q100 0 168 22.5t127 71.5zM641 555q-6 68 -46 107.5t-103 39.5t-96 -38.5t-46 -108.5
h291zM846 1014h-258v266h258v-266zM408 1014h-258v266h258v-266z" />
    <glyph glyph-name="igrave" unicode="&#xec;" horiz-adv-x="522" 
d="M420 0h-318v883h318v-883zM553 1014h-227l-224 342h293z" />
    <glyph glyph-name="iacute" unicode="&#xed;" horiz-adv-x="522" 
d="M420 0h-318v883h318v-883zM592 1356l-223 -342h-228l158 342h293z" />
    <glyph glyph-name="icircumflex" unicode="&#xee;" horiz-adv-x="522" 
d="M420 0h-318v883h318v-883zM745 1014h-231l-92 143l-92 -143h-228l211 301h222z" />
    <glyph glyph-name="idieresis" unicode="&#xef;" horiz-adv-x="522" 
d="M594 1014h-258v266h258v-266zM182 1014h-258v266h258v-266zM420 0h-318v883h318v-883z" />
    <glyph glyph-name="eth" unicode="&#xf0;" horiz-adv-x="1056" 
d="M1006 506q0 -122 -39 -224t-105.5 -168t-152.5 -102.5t-181 -36.5q-129 0 -238 60t-174 168t-65 239q0 201 113.5 333t300.5 132q62 0 117.5 -22.5t89.5 -61.5q-24 130 -131 271l-248 -101l-88 181l196 77q-72 69 -145 121l184 162q115 -76 217 -178l170 67l86 -180
l-118 -47q211 -305 211 -690zM694 444q0 82 -44 146.5t-124 64.5q-77 0 -121.5 -65.5t-44.5 -147.5q0 -84 45 -149.5t123 -65.5t122 66t44 151z" />
    <glyph glyph-name="ntilde" unicode="&#xf1;" horiz-adv-x="1103" 
d="M1008 0h-318v455q0 94 -28 140t-97 46t-107 -47t-38 -129v-465h-318v883h318v-92q85 116 254 116q87 0 152.5 -29t104.5 -81t58 -119t19 -148v-530zM946 1264q0 -119 -69.5 -186.5t-192.5 -67.5q-43 0 -141 39q-86 38 -121 38q-84 0 -84 -73h-170q0 118 70 186t192 68
q45 0 141 -41q5 -2 21.5 -8.5t23 -9l19.5 -7.5t20.5 -7t18 -3.5t18.5 -1.5q84 0 84 74h170z" />
    <glyph glyph-name="ograve" unicode="&#xf2;" horiz-adv-x="1054" 
d="M1004 444q0 -128 -65.5 -236.5t-175 -170.5t-235.5 -62q-129 0 -238 60t-174 168t-65 239q0 128 65.5 235.5t174.5 168.5t235 61q128 0 237.5 -59t175 -166t65.5 -238zM694 444q0 82 -44 146.5t-124 64.5q-77 0 -121.5 -65.5t-44.5 -147.5q0 -84 45 -149.5t123 -65.5
t122 66t44 151zM649 1014h-227l-223 342h293z" />
    <glyph glyph-name="oacute" unicode="&#xf3;" horiz-adv-x="1054" 
d="M1004 444q0 -128 -65.5 -236.5t-175 -170.5t-235.5 -62q-129 0 -238 60t-174 168t-65 239q0 128 65.5 235.5t174.5 168.5t235 61q128 0 237.5 -59t175 -166t65.5 -238zM694 444q0 82 -44 146.5t-124 64.5q-77 0 -121.5 -65.5t-44.5 -147.5q0 -84 45 -149.5t123 -65.5
t122 66t44 151zM831 1356l-223 -342h-227l158 342h292z" />
    <glyph glyph-name="ocircumflex" unicode="&#xf4;" horiz-adv-x="1054" 
d="M1004 444q0 -128 -65.5 -236.5t-175 -170.5t-235.5 -62q-129 0 -238 60t-174 168t-65 239q0 128 65.5 235.5t174.5 168.5t235 61q128 0 237.5 -59t175 -166t65.5 -238zM694 444q0 82 -44 146.5t-124 64.5q-77 0 -121.5 -65.5t-44.5 -147.5q0 -84 45 -149.5t123 -65.5
t122 66t44 151zM846 1014h-232l-92 143l-92 -143h-227l211 301h221z" />
    <glyph glyph-name="otilde" unicode="&#xf5;" horiz-adv-x="1054" 
d="M1004 444q0 -128 -65.5 -236.5t-175 -170.5t-235.5 -62q-129 0 -238 60t-174 168t-65 239q0 128 65.5 235.5t174.5 168.5t235 61q128 0 237.5 -59t175 -166t65.5 -238zM694 444q0 82 -44 146.5t-124 64.5q-77 0 -121.5 -65.5t-44.5 -147.5q0 -84 45 -149.5t123 -65.5
t122 66t44 151zM911 1264q0 -119 -69.5 -186.5t-192.5 -67.5q-43 0 -141 39q-85 38 -121 38q-84 0 -84 -73h-170q0 118 70 186t192 68q46 0 142 -41q7 -3 22 -9t22 -9t19.5 -7.5t20.5 -6.5t18 -3.5t18 -1.5q84 0 84 74h170z" />
    <glyph glyph-name="odieresis" unicode="&#xf6;" horiz-adv-x="1054" 
d="M1004 444q0 -128 -65.5 -236.5t-175 -170.5t-235.5 -62q-129 0 -238 60t-174 168t-65 239q0 128 65.5 235.5t174.5 168.5t235 61q128 0 237.5 -59t175 -166t65.5 -238zM694 444q0 82 -44 146.5t-124 64.5q-77 0 -121.5 -65.5t-44.5 -147.5q0 -84 45 -149.5t123 -65.5
t122 66t44 151zM864 1014h-258v266h258v-266zM426 1014h-258v266h258v-266z" />
    <glyph glyph-name="divide" unicode="&#xf7;" 
d="M1004 1245h-512v250h512v-250zM1495 492h-250v512h250v-512zM1004 492h-512v512h512v-512zM250 492h-250v512h250v-512zM1004 0h-512v250h512v-250z" />
    <glyph glyph-name="oslash" unicode="&#xf8;" horiz-adv-x="1054" 
d="M1028 819l-110 -106q86 -120 86 -269q0 -128 -65.5 -236.5t-175 -170.5t-235.5 -62q-154 0 -276 86l-96 -94l-111 105l96 94q-90 120 -90 276q0 128 65.5 235.5t174.5 168.5t235 61q157 0 285 -88l102 101zM694 444q0 82 -44 146.5t-124 64.5q-77 0 -121.5 -65.5
t-44.5 -147.5q0 -84 45 -149.5t123 -65.5t122 66t44 151z" />
    <glyph glyph-name="ugrave" unicode="&#xf9;" horiz-adv-x="1103" 
d="M1001 0h-317v92q-86 -117 -254 -117q-87 0 -152.5 29t-104.5 81t-58 119t-19 148v531h318v-455q0 -94 28 -140t97 -46t107 47t38 129v465h317v-883zM690 1014h-227l-223 342h292z" />
    <glyph glyph-name="uacute" unicode="&#xfa;" horiz-adv-x="1103" 
d="M1001 0h-317v92q-86 -117 -254 -117q-87 0 -152.5 29t-104.5 81t-58 119t-19 148v531h318v-455q0 -94 28 -140t97 -46t107 47t38 129v465h317v-883zM860 1356l-223 -342h-227l157 342h293z" />
    <glyph glyph-name="ucircumflex" unicode="&#xfb;" horiz-adv-x="1103" 
d="M1001 0h-317v92q-86 -117 -254 -117q-87 0 -152.5 29t-104.5 81t-58 119t-19 148v531h318v-455q0 -94 28 -140t97 -46t107 47t38 129v465h317v-883zM868 1014h-231l-92 143l-92 -143h-228l211 301h221z" />
    <glyph glyph-name="udieresis" unicode="&#xfc;" horiz-adv-x="1103" 
d="M1001 0h-317v92q-86 -117 -254 -117q-87 0 -152.5 29t-104.5 81t-58 119t-19 148v531h318v-455q0 -94 28 -140t97 -46t107 47t38 129v465h317v-883zM895 1014h-258v266h258v-266zM457 1014h-258v266h258v-266z" />
    <glyph glyph-name="yacute" unicode="&#xfd;" horiz-adv-x="987" 
d="M967 883l-371 -1080q-68 -194 -252 -194h-184v260h67q47 0 84 25.5t37 62.5q0 56 -24 123l-304 803h334l121 -402l29 -110q14 57 28 110l105 402h330zM819 1356l-223 -342h-227l157 342h293z" />
    <glyph glyph-name="thorn" unicode="&#xfe;" horiz-adv-x="1150" 
d="M1100 442q0 -122 -51 -228t-147 -172.5t-216 -66.5q-81 0 -155.5 31.5t-110.5 83.5v-457h-318v1862h318v-702q36 52 110.5 83t155.5 31q181 0 297.5 -137t116.5 -328zM782 438q0 90 -50.5 146.5t-129.5 56.5q-83 0 -132.5 -56t-49.5 -147q0 -89 50 -142.5t132 -53.5
q79 0 129.5 53.5t50.5 142.5z" />
    <glyph glyph-name="ydieresis" unicode="&#xff;" horiz-adv-x="987" 
d="M967 883l-371 -1080q-68 -194 -252 -194h-184v260h67q47 0 84 25.5t37 62.5q0 56 -24 123l-304 803h334l121 -402l29 -110q14 57 28 110l105 402h330zM842 1014h-258v266h258v-266zM403 1014h-258v266h258v-266z" />
    <glyph glyph-name="dotlessi" unicode="&#x131;" horiz-adv-x="522" 
d="M420 0h-318v883h318v-883z" />
    <glyph glyph-name="Lslash" unicode="&#x141;" horiz-adv-x="1126" 
d="M1055 0h-860v569l-91 -37l-106 230l197 80v653h327v-518l207 84l105 -230l-312 -126v-429h533v-276z" />
    <glyph glyph-name="lslash" unicode="&#x142;" horiz-adv-x="665" 
d="M668 764l-176 -72v-692h-318v561l-70 -29l-106 230l176 72v661h318v-530l71 28z" />
    <glyph glyph-name="OE" unicode="&#x152;" horiz-adv-x="2281" 
d="M2165 0h-871v160q-60 -77 -189.5 -131t-254.5 -54q-170 0 -315 62t-243.5 167.5t-154 248t-55.5 301.5q0 160 56 301t155.5 243.5t245 162t315.5 59.5q125 0 245 -48.5t195 -128.5v152h840v-276h-553v-351h514v-276h-514v-316h584v-276zM1284 754q0 131 -52.5 240
t-151.5 174t-226 65q-93 0 -175 -40t-138.5 -106t-88.5 -153t-32 -180q0 -101 34.5 -192.5t92.5 -157t137.5 -104t165.5 -38.5q130 0 231 71t152 182t51 239z" />
    <glyph glyph-name="oe" unicode="&#x153;" horiz-adv-x="1673" 
d="M1618 123q-96 -80 -200 -114t-230 -34q-100 0 -202 44t-148 112q-40 -63 -131.5 -109.5t-178.5 -46.5q-129 0 -238 60t-174 168t-65 239q0 128 65.5 235.5t174.5 168.5t235 61q96 0 182 -41t126 -106q37 61 125.5 104t177.5 43q213 0 342 -140.5t129 -379.5h-619
q8 -82 59 -134t140 -52q100 0 168 22.5t127 71.5zM1303 555q-6 68 -46.5 107.5t-103.5 39.5t-95.5 -38.5t-45.5 -108.5h291zM694 444q0 82 -44 146.5t-124 64.5q-77 0 -121.5 -65.5t-44.5 -147.5q0 -84 45 -149.5t123 -65.5t122 66t44 151z" />
    <glyph glyph-name="Scaron" unicode="&#x160;" horiz-adv-x="1214" 
d="M1106 424q0 -211 -140 -330t-384 -119q-146 0 -265.5 48t-236.5 139l170 229q71 -56 160.5 -92.5t177.5 -36.5q107 0 148.5 34.5t41.5 106.5q0 42 -28 78t-76.5 62.5t-97.5 47t-107 43.5t-88 40q-51 28 -86.5 52t-72 60t-59 76.5t-36.5 98t-14 126.5q0 89 30 162.5
t81 123t120 83.5t144.5 49t156.5 15q113 0 229.5 -32.5t202.5 -96.5l-147 -244q-51 38 -128 62t-157 24q-103 0 -154 -46t-51 -100q0 -33 16 -60.5t39 -47t63.5 -40.5t73.5 -34t86.5 -33.5t86.5 -35.5q62 -27 109.5 -57.5t94 -78.5t72 -118t25.5 -158zM928 1919l-211 -301
h-221l-211 301h231l92 -143l92 143h228z" />
    <glyph glyph-name="scaron" unicode="&#x161;" horiz-adv-x="847" 
d="M797 256q0 -73 -30.5 -129t-84 -88t-118.5 -48t-140 -16q-108 0 -210.5 26t-170.5 75l102 200q126 -75 232 -75q50 0 76 13.5t26 35.5q0 32 -30.5 51.5t-94.5 42.5q-115 44 -161 73q-119 78 -119 220q0 129 100.5 199.5t267.5 70.5q97 0 169.5 -19t152.5 -63l-90 -196
q-103 57 -225 57q-97 0 -97 -47q0 -5 2.5 -10t8 -9.5t11.5 -9t16 -9.5t18.5 -9t22.5 -9t24 -9t27 -10.5t28 -10.5q45 -16 80 -32t76 -42.5t68 -56.5t45 -73t18 -93zM748 1315l-211 -301h-222l-211 301h232l92 -144l92 144h228z" />
    <glyph glyph-name="Ydieresis" unicode="&#x178;" horiz-adv-x="1413" 
d="M1382 1495l-516 -889v-606h-327v606l-508 889h372l275 -518q7 -15 14.5 -35t11.5 -32l3 -13q12 47 28 80l273 518h374zM1053 1618h-258v266h258v-266zM614 1618h-258v266h258v-266z" />
    <glyph glyph-name="Zcaron" unicode="&#x17d;" horiz-adv-x="1351" 
d="M1255 1495l-688 -1219h672v-276h-1180l689 1219h-615v276h1122zM999 1919l-211 -301h-221l-211 301h232l92 -143l92 143h227z" />
    <glyph glyph-name="zcaron" unicode="&#x17e;" horiz-adv-x="972" 
d="M944 883l-391 -590l-39 -51q34 4 61 4h318v-246h-875l400 592q7 11 16.5 23t15.5 18l5 6q-25 -2 -54 -2h-323v246h866zM809 1315l-211 -301h-221l-211 301h231l92 -144l93 144h227z" />
    <glyph glyph-name="florin" unicode="&#x192;" horiz-adv-x="749" 
d="M692 1520l-22 -267h-52q-29 0 -45 -31.5t-20 -68.5l-23 -270h117l-20 -236h-117l-66 -741q-11 -126 -83 -199.5t-197 -73.5h-166l22 267h52q29 0 44 31t19 69l58 647h-111l20 236h111l31 364q11 126 84 199.5t198 73.5h166z" />
    <glyph glyph-name="circumflex" unicode="&#x2c6;" horiz-adv-x="1024" 
d="M834 1014h-232l-92 143l-92 -143h-228l211 301h222z" />
    <glyph glyph-name="caron" unicode="&#x2c7;" horiz-adv-x="1024" 
d="M829 1315l-211 -301h-221l-211 301h232l92 -144l92 144h227z" />
    <glyph glyph-name="breve" unicode="&#x2d8;" horiz-adv-x="1024" 
d="M815 1305q-12 -145 -93.5 -223t-209.5 -78t-209.5 78t-93.5 223h153q13 -59 50 -104.5t100 -45.5t101 47t49 103h153z" />
    <glyph glyph-name="dotaccent" unicode="&#x2d9;" horiz-adv-x="1024" 
d="M639 1014h-258v266h258v-266z" />
    <glyph glyph-name="ring" unicode="&#x2da;" horiz-adv-x="1024" 
d="M776 1264q0 -106 -79 -185.5t-185 -79.5t-185 79.5t-79 185.5t79 185t185 79t185 -79t79 -185zM621 1264q0 46 -31.5 77t-77.5 31t-77.5 -31t-31.5 -77t31.5 -77.5t77.5 -31.5t77.5 31.5t31.5 77.5z" />
    <glyph glyph-name="ogonek" unicode="&#x2db;" horiz-adv-x="1024" 
d="M694 -305q-81 -66 -202 -66q-92 0 -164 46t-72 124q0 122 207 226h135q-174 -121 -174 -218q0 -41 22.5 -60t55.5 -19q73 0 137 43z" />
    <glyph glyph-name="tilde" unicode="&#x2dc;" horiz-adv-x="1024" 
d="M901 1264q0 -119 -69.5 -186.5t-192.5 -67.5q-43 0 -141 39q-86 38 -121 38q-84 0 -84 -73h-170q0 118 70 186t192 68q45 0 141 -41q5 -2 21.5 -8.5t23 -9l19.5 -7.5t20.5 -7t18 -3.5t18.5 -1.5q84 0 84 74h170z" />
    <glyph glyph-name="hungarumlaut" unicode="&#x2dd;" horiz-adv-x="1024" 
d="M905 1356l-190 -342h-252l190 342h252zM561 1356l-190 -342h-252l190 342h252z" />
    <glyph glyph-name="Delta" unicode="&#x394;" 
d="M1004 1245h-512v250h512v-250zM1495 492h-250v512h250v-512zM1004 492h-512v512h512v-512zM250 492h-250v512h250v-512zM1004 0h-512v250h512v-250z" />
    <glyph glyph-name="Omega" unicode="&#x3a9;" 
d="M1004 1245h-512v250h512v-250zM1495 492h-250v512h250v-512zM1004 492h-512v512h512v-512zM250 492h-250v512h250v-512zM1004 0h-512v250h512v-250z" />
    <glyph glyph-name="pi" unicode="&#x3c0;" horiz-adv-x="1728" 
d="M1636 748q0 -157 -61 -300t-164.5 -246.5t-246.5 -165t-300 -61.5t-300 61.5t-246.5 165t-164.5 246.5t-61 300t61 300t164.5 246.5t246.5 164.5t300 61t300 -61t246.5 -164.5t164.5 -246.5t61 -300zM1511 745q0 132 -51 252t-137.5 206.5t-206.5 138t-252 51.5
t-252 -51.5t-206.5 -138t-137.5 -206.5t-51 -252q0 -176 86.5 -324.5t235.5 -234.5t325 -86t325 86t235.5 234.5t86.5 324.5zM1255 899q0 -112 -82 -199.5t-208 -87.5h-150v-313h-205v897h342q135 0 219 -87.5t84 -209.5zM1047 907q0 58 -34 85.5t-89 27.5h-109v-232h115
q51 0 84 29.5t33 89.5z" />
    <glyph glyph-name="endash" unicode="&#x2013;" horiz-adv-x="942" 
d="M860 418h-778v270h778v-270z" />
    <glyph glyph-name="emdash" unicode="&#x2014;" horiz-adv-x="1331" 
d="M1249 418h-1167v270h1167v-270z" />
    <glyph glyph-name="quoteleft" unicode="&#x2018;" horiz-adv-x="512" 
d="M461 1405q-64 -95 -64 -238v-235h-295v184q0 105 43 201t121 203z" />
    <glyph glyph-name="quoteright" unicode="&#x2019;" horiz-adv-x="512" 
d="M397 1311q0 -105 -43 -201t-121 -203l-194 115q63 94 63 238v235h295v-184z" />
    <glyph glyph-name="quotesinglbase" unicode="&#x201a;" horiz-adv-x="512" 
d="M397 51q0 -105 -43 -200.5t-121 -202.5l-194 114q63 94 63 238v236h295v-185z" />
    <glyph glyph-name="quotedblleft" unicode="&#x201c;" horiz-adv-x="921" 
d="M883 1405q-64 -95 -64 -238v-235h-295v184q0 105 43 201t121 203zM461 1405q-64 -95 -64 -238v-235h-295v184q0 105 43 201t121 203z" />
    <glyph glyph-name="quotedblright" unicode="&#x201d;" horiz-adv-x="921" 
d="M819 1311q0 -105 -43 -201t-121 -203l-194 115q63 94 63 238v235h295v-184zM397 1311q0 -105 -43 -201t-121 -203l-194 115q63 94 63 238v235h295v-184z" />
    <glyph glyph-name="quotedblbase" unicode="&#x201e;" horiz-adv-x="921" 
d="M819 51q0 -105 -43 -200.5t-121 -202.5l-194 114q63 94 63 238v236h295v-185zM397 51q0 -105 -43 -200.5t-121 -202.5l-194 114q63 94 63 238v236h295v-185z" />
    <glyph glyph-name="dagger" unicode="&#x2020;" horiz-adv-x="1177" 
d="M1116 692h-385v-1059h-285v1059h-385v271h385v532h285v-532h385v-271z" />
    <glyph glyph-name="daggerdbl" unicode="&#x2021;" horiz-adv-x="1177" 
d="M1116 147h-385v-514h-285v514h-385v271h385v274h-385v271h385v532h285v-532h385v-271h-385v-274h385v-271z" />
    <glyph glyph-name="bullet" unicode="&#x2022;" horiz-adv-x="782" 
d="M733 778q0 -142 -100.5 -243t-241.5 -101q-140 0 -240 101t-100 243q0 138 100.5 238t239.5 100q141 0 241.5 -100t100.5 -238z" />
    <glyph glyph-name="ellipsis" unicode="&#x2026;" 
d="M1393 0h-308v309h308v-309zM901 0h-307v309h307v-309zM410 0h-308v309h308v-309z" />
    <glyph glyph-name="perthousand" unicode="&#x2030;" horiz-adv-x="2281" 
d="M2220 367q0 -167 -89.5 -279.5t-225.5 -112.5q-56 0 -109.5 24.5t-98.5 70.5t-72.5 121.5t-27.5 168.5q0 165 89.5 276.5t224.5 111.5q136 0 222.5 -111t86.5 -270zM1516 367q0 -167 -90 -279.5t-226 -112.5q-56 0 -109.5 24.5t-98 70.5t-72 121.5t-27.5 168.5
q0 165 89.5 276.5t223.5 111.5q136 0 223 -111t87 -270zM1444 1495l-1022 -1495h-289l1022 1495h289zM698 1139q0 -167 -89.5 -279t-225.5 -112q-56 0 -109.5 24.5t-98 70.5t-72 121.5t-27.5 168.5q0 165 89.5 276t223.5 111q136 0 222.5 -111t86.5 -270zM2007 360
q0 87 -23 147t-75 60q-53 0 -77 -59t-24 -148q0 -204 97 -204q102 0 102 204zM1303 360q0 87 -23.5 147t-75.5 60q-36 0 -59.5 -30.5t-32 -75t-8.5 -101.5q0 -204 96 -204q103 0 103 204zM485 1133q0 87 -23 146.5t-75 59.5q-53 0 -76.5 -58t-23.5 -148q0 -205 96 -205
q102 0 102 205z" />
    <glyph glyph-name="guilsinglleft" unicode="&#x2039;" horiz-adv-x="495" 
d="M393 84l-311 227v279l311 227v-268l-133 -98l133 -99v-268z" />
    <glyph glyph-name="guilsinglright" unicode="&#x203a;" horiz-adv-x="495" 
d="M414 311l-312 -227v268l134 99l-134 98v268l312 -227v-279z" />
    <glyph glyph-name="fraction" unicode="&#x2044;" horiz-adv-x="925" 
d="M1055 1495l-867 -1495h-317l866 1495h318z" />
    <glyph glyph-name="trademark" unicode="&#x2122;" horiz-adv-x="1677" 
d="M1579 598h-164v637l-260 -383h-70l-264 371v-625h-164v897h146l317 -438l307 438h152v-897zM561 1339h-170v-741h-164v741h-161v156h495v-156z" />
    <glyph glyph-name="partialdiff" unicode="&#x2202;" 
d="M1004 1245h-512v250h512v-250zM1495 492h-250v512h250v-512zM1004 492h-512v512h512v-512zM250 492h-250v512h250v-512zM1004 0h-512v250h512v-250z" />
    <glyph glyph-name="product" unicode="&#x220f;" 
d="M1004 1245h-512v250h512v-250zM1495 492h-250v512h250v-512zM1004 492h-512v512h512v-512zM250 492h-250v512h250v-512zM1004 0h-512v250h512v-250z" />
    <glyph glyph-name="summation" unicode="&#x2211;" 
d="M1004 1245h-512v250h512v-250zM1495 492h-250v512h250v-512zM1004 492h-512v512h512v-512zM250 492h-250v512h250v-512zM1004 0h-512v250h512v-250z" />
    <glyph glyph-name="minus" unicode="&#x2212;" 
d="M1004 1245h-512v250h512v-250zM1495 492h-250v512h250v-512zM1004 492h-512v512h512v-512zM250 492h-250v512h250v-512zM1004 0h-512v250h512v-250z" />
    <glyph glyph-name="radical" unicode="&#x221a;" horiz-adv-x="1191" 
d="M1161 1495l-487 -1495h-309l-334 766h331l132 -307l26 -82q11 49 21 82l301 1036h319z" />
    <glyph glyph-name="infinity" unicode="&#x221e;" horiz-adv-x="1728" 
d="M1626 1026h-317v291h317v-291zM1626 0h-317v883h317v-883zM1163 647h-116v-647h-318v647h-111v236h111v364q0 126 66.5 199.5t191.5 73.5h166v-267h-51q-29 0 -42 -31.5t-13 -68.5v-270h116v-236zM580 647h-117v-647h-318v647h-110v236h110v364q0 126 66.5 199.5
t191.5 73.5h166v-267h-51q-29 0 -42 -31.5t-13 -68.5v-270h117v-236z" />
    <glyph glyph-name="integral" unicode="&#x222b;" 
d="M1004 1245h-512v250h512v-250zM1495 492h-250v512h250v-512zM1004 492h-512v512h512v-512zM250 492h-250v512h250v-512zM1004 0h-512v250h512v-250z" />
    <glyph glyph-name="approxequal" unicode="&#x2248;" 
d="M1004 1245h-512v250h512v-250zM1495 492h-250v512h250v-512zM1004 492h-512v512h512v-512zM250 492h-250v512h250v-512zM1004 0h-512v250h512v-250z" />
    <glyph glyph-name="notequal" unicode="&#x2260;" horiz-adv-x="1206" 
d="M1163 647h-116v-647h-318v647h-111v236h111v364q0 126 66.5 199.5t191.5 73.5h166v-267h-51q-29 0 -42 -31.5t-13 -68.5v-270h116v-236zM580 647h-117v-647h-318v647h-110v236h110v364q0 126 66.5 199.5t191.5 73.5h166v-267h-51q-29 0 -42 -31.5t-13 -68.5v-270h117
v-236z" />
    <glyph glyph-name="lessequal" unicode="&#x2264;" 
d="M1004 1245h-512v250h512v-250zM1495 492h-250v512h250v-512zM1004 492h-512v512h512v-512zM250 492h-250v512h250v-512zM1004 0h-512v250h512v-250z" />
    <glyph glyph-name="greaterequal" unicode="&#x2265;" 
d="M1004 1245h-512v250h512v-250zM1495 492h-250v512h250v-512zM1004 492h-512v512h512v-512zM250 492h-250v512h250v-512zM1004 0h-512v250h512v-250z" />
    <glyph glyph-name="lozenge" unicode="&#x25ca;" 
d="M1004 1245h-512v250h512v-250zM1495 492h-250v512h250v-512zM1004 492h-512v512h512v-512zM250 492h-250v512h250v-512zM1004 0h-512v250h512v-250z" />
    <glyph glyph-name="apple" unicode="&#xf8ff;" 
d="M1004 1245h-512v250h512v-250zM1495 492h-250v512h250v-512zM1004 492h-512v512h512v-512zM250 492h-250v512h250v-512zM1004 0h-512v250h512v-250z" />
    <glyph glyph-name="fi" unicode="&#xfb01;" horiz-adv-x="1144" 
d="M1042 1026h-317v291h317v-291zM1042 0h-317v883h317v-883zM580 647h-117v-647h-318v647h-110v236h110v364q0 126 66.5 199.5t191.5 73.5h166v-267h-51q-29 0 -42 -31.5t-13 -68.5v-270h117v-236z" />
    <glyph glyph-name="fl" unicode="&#xfb02;" horiz-adv-x="1144" 
d="M1042 0h-317v1495h317v-1495zM580 647h-117v-647h-318v647h-110v236h110v364q0 126 66.5 199.5t191.5 73.5h166v-267h-51q-29 0 -42 -31.5t-13 -68.5v-270h117v-236z" />
    <glyph glyph-name="NUL" horiz-adv-x="0" 
 />
    </font>
</defs>
</svg>
