<svg xmlns="http://www.w3.org/2000/svg" width="213.615" height="209.403" viewBox="0 0 213.615 209.403">
  <g id="Group_1" data-name="Group 1" transform="translate(4443.427 5696.612)">
    <path id="Path_1475" data-name="Path 1475" d="M-4370.874-5266.8c-.438.686-.777,1.224-1.124,1.757a9,9,0,0,1-3.98,3.369,4.654,4.654,0,0,1-6.637-2.749c-.112-.291-.226-.581-.374-.96-.719.828-1.322,1.619-2.024,2.31-2.233,2.2-4.617,4.181-7.812,4.841-.282.059-.564.119-.849.159a6.005,6.005,0,0,1-7.2-5.241,15.559,15.559,0,0,1,.33-6.2c.139-.621.3-1.236.476-1.947-1.112.136-2.146.261-3.18.389-.414.051-.453.4-.542.7-.453,1.538-.9,3.076-1.361,4.611a60.338,60.338,0,0,1-4.025,9.971,11.312,11.312,0,0,1-1.106,1.8,2,2,0,0,1-2.3.771,1.926,1.926,0,0,1-1.323-2.021,20.752,20.752,0,0,1,.454-3.518c.867-3.778,1.808-7.539,2.719-11.306.065-.271.123-.543.209-.928-3.461.064-6.805.311-10.177.653a4.668,4.668,0,0,0-.225.543c-1.9,6.888-3.816,13.77-5.672,20.668a86.585,86.585,0,0,0-2.1,13.087,137.785,137.785,0,0,0-.778,16.99,59.959,59.959,0,0,0,1.771,13.6,37.747,37.747,0,0,0,4.386,10.73c1.822,2.978,3.778,5.874,5.693,8.794a18.542,18.542,0,0,0,1.283,1.681,76.022,76.022,0,0,0,31.235,22.863,65.939,65.939,0,0,0,15.211,3.622,102.438,102.438,0,0,0,21.395.652,86.255,86.255,0,0,0,24.356-5.67,103.128,103.128,0,0,0,13.1-6,91.415,91.415,0,0,0,21.754-17.275,188.182,188.182,0,0,0,24.782-32.15c4.807-7.9,9.14-16.032,13.146-24.352.123-.254.223-.52.346-.809-.187-.136-.332-.258-.49-.357a9.566,9.566,0,0,1-4.486-7.369,13.155,13.155,0,0,1,1.377-7.553,7.208,7.208,0,0,1,1.868-2.416,4.741,4.741,0,0,1,6.8.472c2.277,2.458,2.765,5.4,2.374,8.589-.1.852-.261,1.7-.411,2.656a7.478,7.478,0,0,0,.775-.223,21.766,21.766,0,0,0,9.462-7.313,13.71,13.71,0,0,1,2.162-2.3c.757-.652,1.229-.444,1.539.526a5.7,5.7,0,0,1-.465,4.289,16.241,16.241,0,0,1-3.374,4.646,25.491,25.491,0,0,1-11.826,6.866,1.145,1.145,0,0,0-.855.794c-2.681,6.7-5.835,13.185-9.017,19.656a168.915,168.915,0,0,1-29.753,42.654,98.439,98.439,0,0,1-24.349,19.083,104.492,104.492,0,0,1-33.518,11.7,103.969,103.969,0,0,1-23.4.776,87.332,87.332,0,0,1-15.953-2.4,74.227,74.227,0,0,1-19.372-8.321,82.8,82.8,0,0,1-19.423-16.341c-.892-1.006-1.761-2.041-2.56-3.121a100.6,100.6,0,0,1-8.451-13.52,48.985,48.985,0,0,1-4.775-16.049,104.019,104.019,0,0,1-.687-18.708,118.64,118.64,0,0,1,3.186-20.572c1.542-6.988,3.708-13.789,5.771-20.625.089-.3.156-.6.274-1.056-.526.12-.921.2-1.309.3-1.854.5-3.7,1.04-5.563,1.508a7.03,7.03,0,0,1-1.9.17.937.937,0,0,1-.719-.479.963.963,0,0,1,.28-.828,20.621,20.621,0,0,1,2.153-1.608,36,36,0,0,1,7.843-3.6,1.587,1.587,0,0,0,1.156-1.121c.74-2.419,1.533-4.822,2.3-7.232a4.3,4.3,0,0,0,.079-.632c-.408.289-.684.487-.963.68a19.92,19.92,0,0,1-9.461,3.74,9.543,9.543,0,0,1-5.335-.882,5.766,5.766,0,0,1-3.372-4.707,3.641,3.641,0,0,1,.231-1.683,1.268,1.268,0,0,1,2.235-.414,1.455,1.455,0,0,1,.193.214,4.4,4.4,0,0,0,4.026,1.8,13.974,13.974,0,0,0,4.951-1.083,19.639,19.639,0,0,0,6.081-3.806c1.858-1.719,3.678-3.48,5.5-5.234.994-.955,1.958-1.94,2.955-2.892a2.051,2.051,0,0,1,2.387-.468,2.084,2.084,0,0,1,1.175,2.13,3.989,3.989,0,0,1-.135.852,30.312,30.312,0,0,1-.955,3.223,88.206,88.206,0,0,0-3.378,11.806c-.281,1.113-.62,2.211-.953,3.387a2.431,2.431,0,0,0,.477.023,78.492,78.492,0,0,1,9.463-.979,1.028,1.028,0,0,0,1.022-.794c1.324-3.267,2.592-6.56,4.047-9.768,1.015-2.24,2.277-4.371,3.473-6.525a5.55,5.55,0,0,1,1.11-1.313,1.332,1.332,0,0,1,1.594-.294,1.264,1.264,0,0,1,.708,1.363,28.364,28.364,0,0,1-.733,3.757c-.875,2.981-1.86,5.93-2.776,8.9-.4,1.286-.736,2.588-1.1,3.885-.076.272-.13.551-.22.941l3.822.75c.106-.156.282-.407.448-.664a21.931,21.931,0,0,1,4.9-5.375,10.929,10.929,0,0,1,4.916-2.3,6.657,6.657,0,0,1,2.191-.04,4.021,4.021,0,0,1,3.342,3.826,7.907,7.907,0,0,1-.281,2.843,15.6,15.6,0,0,1-9.778,10.382,22.787,22.787,0,0,1-3.32.711,5.365,5.365,0,0,0,.338,2.917.99.99,0,0,0,1.208.545,7.066,7.066,0,0,0,3.43-1.409,28.733,28.733,0,0,0,6.281-6.968c1.028-1.623,2.063-3.241,3.068-4.878a21.149,21.149,0,0,0,1.027-1.955,13,13,0,0,1,5.905-5.982,7.747,7.747,0,0,1,4.166-.939,3.25,3.25,0,0,1,2.88,1.5c.224-.11.413-.214.611-.3a1.766,1.766,0,0,1,2.548,1.46,5.708,5.708,0,0,1-.069,1.529c-.436,2.753-.917,5.5-1.339,8.254-.168,1.1-.227,2.208-.335,3.313l.195.066a2.673,2.673,0,0,0,.365-.479c.461-1.022.971-2.028,1.339-3.083.8-2.3,1.6-4.6,2.267-6.943a164.675,164.675,0,0,1,7.416-20.71,4.005,4.005,0,0,1,.637-1.062,1.65,1.65,0,0,1,1.839-.494,1.618,1.618,0,0,1,1.206,1.47,7.5,7.5,0,0,1-.11,1.815c-.5,2.807-1.009,5.613-1.557,8.411-.955,4.875-1.957,9.742-2.478,14.688-.169,1.591-.252,3.2-.271,4.794a7.625,7.625,0,0,0,.378,2.162c.179.616.532.746,1.114.472a2.7,2.7,0,0,0,.9-.691,20.737,20.737,0,0,0,1.362-1.859,37.667,37.667,0,0,0,3.644-7.3q2.019-5.3,4.038-10.6c.167-.439.312-.886.5-1.416a8.764,8.764,0,0,1-.949-.133,7.121,7.121,0,0,1-1.639-.5,2.029,2.029,0,0,1-.359-3.394,4.823,4.823,0,0,1,1.6-.841,15.779,15.779,0,0,1,2.427-.587,1.071,1.071,0,0,0,.969-.889c.508-1.854,1.04-3.7,1.584-5.545a9.873,9.873,0,0,1,.633-1.708,2.132,2.132,0,0,1,2.479-1.187,2.131,2.131,0,0,1,1.572,2.254,10.651,10.651,0,0,1-.214,1.617c-.257,1.414-.534,2.825-.822,4.338a4.743,4.743,0,0,0,.725-.005c.663-.118,1.319-.273,1.981-.388a6.243,6.243,0,0,1,2.859.088,2.379,2.379,0,0,1,1.3,3.882,4.452,4.452,0,0,1-3.008,1.733c-1.33.2-2.669.35-4.011.454a1.215,1.215,0,0,0-1.231,1.041,38.838,38.838,0,0,0-1.8,8.05,31.057,31.057,0,0,0-.111,5.949,4.855,4.855,0,0,0,.768,2.351c.463.649.839.821,1.563.5a8.057,8.057,0,0,0,1.864-1.146,12.608,12.608,0,0,0,2.635-3.406,60.116,60.116,0,0,0,5.458-12.065c1.051-3.228,1.95-6.506,2.949-9.752.171-.557-.085-.824-.446-1.128a28.95,28.95,0,0,1-4.846-5.444,19.084,19.084,0,0,1-2.979-7.035,2.349,2.349,0,0,1,.929-2.8,2.386,2.386,0,0,1,2.929.453,25.162,25.162,0,0,1,2.524,2.752c1.106,1.371,2.119,2.816,3.2,4.208.366.472.817.876,1.32,1.408.249-.413.424-.7.6-1a14.282,14.282,0,0,1,4.193-4.568,5.48,5.48,0,0,1,3.431-1.056,4.81,4.81,0,0,1,4.321,2.9,8.892,8.892,0,0,1-.5,9.164,9.075,9.075,0,0,1-9.185,4.182c-.285-.033-.569-.072-.853-.1-.027,0-.058.021-.166.065-.07.251-.17.549-.237.855-.224,1.023-.437,2.049-.681,3.208.336-.082.539-.124.737-.18a3.645,3.645,0,0,1,4.756,2.4,7.418,7.418,0,0,1,.354,1.877,20.35,20.35,0,0,1-.476,5.635c-.318,1.6-.626,3.207-.909,4.817a5.643,5.643,0,0,0,.015,1.088l.2.054a2.856,2.856,0,0,0,.423-.434c1.22-1.92,2.476-3.818,3.631-5.776a101.27,101.27,0,0,1,5.655-9.043,6.038,6.038,0,0,1,.805-.949,2.023,2.023,0,0,1,2.237-.4,2.013,2.013,0,0,1,1.3,1.765,4.153,4.153,0,0,1-.1,1.427c-.29,1.082-.616,2.157-1,3.207a45.989,45.989,0,0,0-2.451,8.78c-.083.537-.115,1.083-.156,1.625a2.151,2.151,0,0,0,.084.463,8.942,8.942,0,0,0,.937-.177,17.526,17.526,0,0,0,5.774-3.374,1,1,0,0,0,.253-.756,15.851,15.851,0,0,1,2.67-9.562,26.344,26.344,0,0,1,4.165-5.144,9.853,9.853,0,0,1,5.367-2.807,6.126,6.126,0,0,1,4.25.834,3.851,3.851,0,0,1,1.979,4.147,8.822,8.822,0,0,1-.784,2.354,17.476,17.476,0,0,1-3.482,4.926c-1.977,1.962-4.049,3.829-6.083,5.733-.244.229-.5.441-.923.8a4.4,4.4,0,0,0,2.369-.219,11.924,11.924,0,0,0,3.846-2.324,30.682,30.682,0,0,0,6.035-6.94c1.664-2.664,3.278-5.358,4.922-8.034a11.115,11.115,0,0,0,1.218-2.807,23.412,23.412,0,0,1,1.074-2.772,3.643,3.643,0,0,1,.627-.96,2.238,2.238,0,0,1,2.522-.712,2.15,2.15,0,0,1,1.565,1.991,7.249,7.249,0,0,1-.179,1.8c-.222,1.2-.495,2.382-.733,3.575a5.252,5.252,0,0,0-.064.765c-.023.464.231.629.661.6a4.167,4.167,0,0,0,2.507-1.1c.312-.276.6-.585.924-.841a2.547,2.547,0,0,1,3.042-.2,2.517,2.517,0,0,1,.935,2.9,5.363,5.363,0,0,1-.588,1.309c-.6.944-1.213,1.889-1.9,2.775a55.9,55.9,0,0,0-4.642,7.406,4.69,4.69,0,0,0-.786,2.32,2.824,2.824,0,0,0,.842-.013,20.062,20.062,0,0,0,2.952-1.115,25.077,25.077,0,0,0,5.807-4.237,6.066,6.066,0,0,1,1.356-1.055,1.627,1.627,0,0,1,2.546,1.405,3.757,3.757,0,0,1-.339,1.853,14.745,14.745,0,0,1-1.759,2.735,32.209,32.209,0,0,1-7.457,6.313,6.9,6.9,0,0,1-4.114,1.113,5.825,5.825,0,0,1-5.727-6.552,9.215,9.215,0,0,1,1.021-3.487c.918-1.724,1.912-3.407,2.876-5.106.2-.36.418-.713.65-1.106l-2.294-1c-.165.26-.341.52-.5.791-.868,1.5-1.717,3.006-2.6,4.494a32.987,32.987,0,0,1-6.842,8.258,32.094,32.094,0,0,1-3.726,2.7,10.468,10.468,0,0,1-5.3,1.521,7.38,7.38,0,0,1-5.563-1.952c-.363.288-.714.547-1.045.83a19.475,19.475,0,0,1-5.111,3.207,7.81,7.81,0,0,1-4.986.461,4.471,4.471,0,0,1-3.577-3.248,1.5,1.5,0,0,0-.112-.263c-.011-.022-.054-.027-.158-.074-.156.2-.331.4-.5.622-.715.946-1.409,1.908-2.146,2.835a9.537,9.537,0,0,1-3.234,2.515,3.638,3.638,0,0,1-4.231-.785,4.6,4.6,0,0,1-1.29-3.583,51.02,51.02,0,0,1,1.826-9.317c.294-1.114.578-2.233.806-3.363a8.342,8.342,0,0,0,.137-1.813,1.274,1.274,0,0,0-1.141-1.219.8.8,0,0,0-.879.444,5.043,5.043,0,0,0-.285.813,60,60,0,0,1-5.781,12.966,17.8,17.8,0,0,1-4.084,4.939,12.2,12.2,0,0,1-3.755,2.1,5.724,5.724,0,0,1-6.228-1.3,17.209,17.209,0,0,1-1.764-2.259c-.165-.219-.29-.469-.513-.838-.228.428-.387.729-.548,1.028a32.547,32.547,0,0,1-3.61,5.665,7.5,7.5,0,0,1-4.307,2.715,10.294,10.294,0,0,1-1.427.195,5.207,5.207,0,0,1-5.246-2.858c-.425-.782-.707-1.64-1.1-2.581-.174.246-.342.448-.471.672a14.732,14.732,0,0,1-2.73,3.459,7.372,7.372,0,0,1-1.206.947,3.648,3.648,0,0,1-5.437-1.749A21.356,21.356,0,0,1-4370.874-5266.8Zm2.585-14.817c-.975.208-1.758.361-2.532.548a3.921,3.921,0,0,0-.988.365,8.855,8.855,0,0,0-3.752,3.482,39.375,39.375,0,0,0-1.927,4.176,11.754,11.754,0,0,0-.793,4.8,11.818,11.818,0,0,0,.3,1.889c.088.417.373.549.8.411a3.344,3.344,0,0,0,1.8-1.221,23.973,23.973,0,0,0,1.975-3.06c1.547-3.162,3-6.369,4.476-9.566C-4368.684-5280.337-4368.532-5280.925-4368.289-5281.622Zm119.971,32.485c.314-.75.625-1.379.846-2.039a8,8,0,0,0-.623-6.21,1,1,0,0,0-.95-.691,1.072,1.072,0,0,0-.887.783,7.506,7.506,0,0,0-.145,6.138A4.051,4.051,0,0,0-4248.318-5249.137Zm-146.229-22.746c2.91-.588,6.884-4.888,6.8-7.353C-4390.035-5278.838-4394.058-5274.486-4394.547-5271.882Zm108.956-21.909a3.973,3.973,0,0,0-2.484,1.23,16.592,16.592,0,0,0-3.932,5.619c-.1.254-.174.521-.259.783l.19.123C-4289.743-5288.471-4287.174-5290.7-4285.591-5293.792Zm-31.807-10.874c2.174.263,4.327-2.459,3.547-4.382C-4315.121-5308.759-4316.924-5306.554-4317.4-5304.665Z" transform="translate(0 -339.336)" fill="#3cbfae"/>
    <path id="Path_1476" data-name="Path 1476" d="M-4260.849-5639.34c-.394.2-.779.423-1.184.6a13.9,13.9,0,0,1-1.778.721,3.74,3.74,0,0,1-4.321-1.478c-.095-.125-.194-.245-.345-.434-.39.386-.748.745-1.11,1.1a13.231,13.231,0,0,1-4.193,3.007,10.242,10.242,0,0,1-2.665.746,4.834,4.834,0,0,1-5.375-3.782,9.925,9.925,0,0,1-.083-4.1,25.3,25.3,0,0,1,1.655-5.811c.122-.292.236-.586.408-1.013l-3.416-.376c-.164.426-.332.8-.452,1.187-1.222,3.916-2.407,7.843-3.664,11.747-.608,1.89-1.336,3.741-2.034,5.6a5.664,5.664,0,0,1-.622,1.188,1.884,1.884,0,0,1-1.887.908,1.869,1.869,0,0,1-1.633-1.435,6.772,6.772,0,0,1-.223-1.7,28.575,28.575,0,0,1,1.081-8.65c.8-2.7,1.684-5.38,2.532-8.069.114-.36.234-.717.377-1.154a2.862,2.862,0,0,0-.509-.114,56.955,56.955,0,0,0-10.346.708,1.292,1.292,0,0,0-1.116.98,107.426,107.426,0,0,0-5.055,18.124c-.286,1.507-.758,2.979-1.182,4.458a5.121,5.121,0,0,1-.588,1.306,1.516,1.516,0,0,1-1.561.74,1.478,1.478,0,0,1-1.3-1.127,7.35,7.35,0,0,1-.205-1.61,37.394,37.394,0,0,1,1.272-10.173,81.934,81.934,0,0,1,3.049-9.916c.12-.316.232-.635.4-1.083a6.544,6.544,0,0,0-.7.133,37.035,37.035,0,0,0-9.124,4.007,3.2,3.2,0,0,1-.934.481,1.131,1.131,0,0,1-.882-.07,1.071,1.071,0,0,1-.149-.865,2.939,2.939,0,0,1,.455-.942,9.578,9.578,0,0,1,2.924-2.876,60.283,60.283,0,0,1,8.2-4.211c.5-.225,1-.44,1.507-.63a1.248,1.248,0,0,0,.835-.843,46.235,46.235,0,0,1,5.125-10.408c.1-.163.185-.335.384-.7-.367.21-.576.308-.761.438a59.557,59.557,0,0,1-10.005,5.708,15.536,15.536,0,0,1-5.539,1.487,9.449,9.449,0,0,1-4.49-.843,6.224,6.224,0,0,1-3.663-5.657c-.041-.506-.051-1.062.546-1.314.4-.168.749.061,1.206.732.288.424.576.848.867,1.27a4.025,4.025,0,0,0,3.278,1.722,9.105,9.105,0,0,0,4.473-.933c1.766-.834,3.512-1.718,5.214-2.674a46.159,46.159,0,0,0,6.444-4.36c.7-.565,1.437-1.076,2.14-1.633,1.807-1.432,3.6-2.879,5.407-4.316a29.055,29.055,0,0,1,2.351-1.824,2.374,2.374,0,0,1,3.016.267,2.394,2.394,0,0,1,.342,3.009c-1.462,2.447-2.985,4.857-4.458,7.3q-2.9,4.813-5.761,9.655a19.945,19.945,0,0,0-.845,1.829,5.593,5.593,0,0,0,.756-.045,77.833,77.833,0,0,1,10.665-1.426,1.3,1.3,0,0,0,1.272-.9,116.951,116.951,0,0,1,8.847-15.957,9,9,0,0,1,1.018-1.272.961.961,0,0,1,1.137-.285.919.919,0,0,1,.575,1.016,16.971,16.971,0,0,1-.571,3c-1.079,3.152-2.248,6.272-3.389,9.4-.494,1.355-1.007,2.7-1.5,4.056-.107.294-.184.6-.265.87l4.621,1.438c.16-.2.4-.485.639-.781a17.669,17.669,0,0,1,4.5-4.146,9.686,9.686,0,0,1,3.455-1.4,3.737,3.737,0,0,1,2.614.339,1.68,1.68,0,0,1,.592,2.543c-.353.466-.622.554-1.019.153a1.166,1.166,0,0,0-1.408-.229,10.671,10.671,0,0,0-1.63.806,10.953,10.953,0,0,0-2.958,2.721,25.421,25.421,0,0,0-5.322,12.393,12.485,12.485,0,0,0-.067,1.726,5.38,5.38,0,0,0,.177.922,3.98,3.98,0,0,0,2.068-.629,12.238,12.238,0,0,0,3.256-2.671,26.743,26.743,0,0,0,2.031-2.557,40.755,40.755,0,0,0,4.365-7.67,38.626,38.626,0,0,1,4.556-7.781,4.12,4.12,0,0,1,.561-.656,1.674,1.674,0,0,1,2.039-.253,1.651,1.651,0,0,1,.71,1.843,6.193,6.193,0,0,1-.325.9,97.009,97.009,0,0,1-4.335,9.32,26.712,26.712,0,0,0-2.216,6.535,10.863,10.863,0,0,0-.136,1.2,5.428,5.428,0,0,0,2.266-1.055,21.03,21.03,0,0,0,6.81-8.313,72.072,72.072,0,0,1,5.1-10.01c.255-.407.5-.821.79-1.207a1.729,1.729,0,0,1,2.967-.229,1.856,1.856,0,0,0,.211.144c.273-.24.546-.51.848-.738a23.222,23.222,0,0,1,2.559-1.86c2.659-1.484,5.113-.727,6.574,1.952a8.415,8.415,0,0,1,1.05,4.149,6.343,6.343,0,0,0,.123,1.509c.126-.254.256-.508.379-.764.982-2.052,1.949-4.11,2.954-6.15a8.472,8.472,0,0,1,.988-1.529,1.194,1.194,0,0,1,1.447-.462,1.11,1.11,0,0,1,.631,1.283c-.2,1.165-.454,2.322-.7,3.48a3.051,3.051,0,0,0-.119,1.155c.3-.37.594-.739.887-1.111a21.6,21.6,0,0,1,4.859-4.755,14.665,14.665,0,0,1,2.248-1.283,2.951,2.951,0,0,1,4.317,1.849,14.2,14.2,0,0,1,.717,6.159,13.6,13.6,0,0,0-.114,2.157c.126-.258.263-.511.377-.774.787-1.823,1.546-3.66,2.361-5.472a10.969,10.969,0,0,1,2.524-3.712,5.016,5.016,0,0,1,1.331-.923c1.042-.451,1.819.179,1.639,1.3a11.394,11.394,0,0,1-.414,1.478c-.391,1.286-.807,2.565-1.179,3.856-.717,2.495-1.426,4.991-2.106,7.495-.3,1.112-.546,2.241-.78,3.369a13.377,13.377,0,0,0-.14,1.472,2.233,2.233,0,0,0,1.433-.258,29.2,29.2,0,0,0,4.766-2.682c1.136-.719,1.98-1.493,1.649-2.976.562-5.277,2.445-9.926,6.455-13.562.9-.818,1.786-1.659,2.72-2.438a9.423,9.423,0,0,1,5.245-2.182,4.414,4.414,0,0,1,2.769.6,3.482,3.482,0,0,1,1.6,4.454,10.02,10.02,0,0,1-1.048,2.154,52.158,52.158,0,0,1-3.545,4.9c-2.2,2.545-4.551,4.957-6.838,7.424-.214.231-.432.459-.677.72a1.418,1.418,0,0,0,1.2.282,8.267,8.267,0,0,0,3.838-1.123,19.837,19.837,0,0,0,3.858-2.849,48.485,48.485,0,0,0,9.479-11.914c.123-.222.238-.447.383-.721-.16-.129-.294-.255-.444-.357a4.963,4.963,0,0,1-2.162-5.362,7.585,7.585,0,0,1,2.532-4.425,3.868,3.868,0,0,1,3.1-1.026,3.393,3.393,0,0,1,3.163,3.293c.037.659.006,1.322.006,2.123.656-.459,1.276-.89,1.893-1.326a10.2,10.2,0,0,1,.933-.673,2.443,2.443,0,0,1,2.863.3,2.428,2.428,0,0,1,.535,2.826,10.13,10.13,0,0,1-.534.91c-.8,1.385-1.664,2.74-2.387,4.165q-1.763,3.471-3.367,7.021a27.975,27.975,0,0,0-1.117,3.165,5.221,5.221,0,0,0-.107,1.113,1.807,1.807,0,0,0,1.563-.167,17.759,17.759,0,0,0,3.058-1.781c1.641-1.328,3.151-2.815,4.725-4.226a6.994,6.994,0,0,1,1.27-1.009,1.293,1.293,0,0,1,2.077,1.084,3.62,3.62,0,0,1-.27,1.768,14.738,14.738,0,0,1-1.535,2.651,42.034,42.034,0,0,1-5.39,5.739,7.86,7.86,0,0,1-4.293,2,5.7,5.7,0,0,1-6.7-5.061,9.394,9.394,0,0,1-.032-1.628c.028-.541.127-1.076.215-1.773a4.823,4.823,0,0,0-.495.5,49.305,49.305,0,0,1-5.978,6.764,25.172,25.172,0,0,1-5.481,4.037,13.7,13.7,0,0,1-4.229,1.535,8.1,8.1,0,0,1-6.387-1.4c-.1-.075-.214-.137-.4-.254-.259.2-.522.422-.8.621-1.513,1.075-3,2.2-4.555,3.2a11.014,11.014,0,0,1-4.215,1.55c-3.321.546-5.785-1.353-6-4.708a34.57,34.57,0,0,1,.121-3.475c-.205.363-.357.629-.506.9a25.444,25.444,0,0,1-4.464,5.873,12.391,12.391,0,0,1-11.262,3.587c-.22-.036-.442-.062-.664-.089-.027,0-.058.023-.183.076-.111.282-.262.629-.385.987-.975,2.815-1.94,5.635-2.918,8.45a9.575,9.575,0,0,1-.621,1.507,2.406,2.406,0,0,1-2.941,1.2,2.378,2.378,0,0,1-1.525-2.781,33.4,33.4,0,0,1,.991-3.812c1.023-3.1,2.114-6.184,3.176-9.274a2.506,2.506,0,0,0,.19-1.018c-.2.243-.4.49-.6.729-1.066,1.238-2.072,2.537-3.227,3.686a16.759,16.759,0,0,1-2.878,2.227,9.8,9.8,0,0,1-7.09,1.447c-.407-.069-.817-.12-1.291-.189-.127.31-.261.595-.364.891-.819,2.36-1.611,4.731-2.453,7.083q-.906,2.533-1.927,5.023a4.49,4.49,0,0,1-.946,1.427,2.512,2.512,0,0,1-2.926.56,2.447,2.447,0,0,1-1.583-2.42,5.87,5.87,0,0,1,.32-1.785c1.1-3.245,2.246-6.478,3.375-9.714.114-.326.225-.652.337-.979Zm27.641-8.487.206.206c.293-.1.59-.185.878-.3a19.447,19.447,0,0,0,8.866-7.247,15.938,15.938,0,0,0,2.742-7,8.091,8.091,0,0,0-.048-3.043c-.388.228-.691.388-.974.577a13.791,13.791,0,0,0-3.443,3.318c-1.366,1.855-2.792,3.683-3.976,5.653C-4230.486-5653.115-4231.8-5650.444-4233.208-5647.827Zm-7.188-14.508a1.189,1.189,0,0,0-.376.112,26.337,26.337,0,0,0-2.41,1.886c-3.854,3.72-6.353,8.31-8.35,13.21a1.434,1.434,0,0,0,0,.423c.379-.186.664-.323.946-.467a21.241,21.241,0,0,0,4.946-3.774,24.132,24.132,0,0,0,5.157-8.136,7.054,7.054,0,0,0,.4-1.868A1.8,1.8,0,0,0-4240.4-5662.335Zm50.512-8.207a5.092,5.092,0,0,0-3.241,1.3c-.827.707-1.58,1.5-2.4,2.22a13.147,13.147,0,0,0-3.9,7.026,5.342,5.342,0,0,0-.048.8C-4195.725-5662.629-4192.11-5665.914-4189.884-5670.542Zm13.127-6.77c-.641.782-.658.9-.295,1.417Z" transform="translate(-106.721 -13.308)" fill="#3cbfae"/>
    <path id="Path_1477" data-name="Path 1477" d="M-3791.8-4710.232c-.378.348-.7.658-1.037.949a6.687,6.687,0,0,1-4.279,1.729,4.921,4.921,0,0,1-4.956-3.507c-.106-.325-.194-.657-.331-1.127a10.281,10.281,0,0,1-.664.8,19.782,19.782,0,0,1-2.381,2.21,4.8,4.8,0,0,1-6.937-1.2c-.052-.079-.112-.153-.249-.338-.2.339-.365.587-.493.855a10.623,10.623,0,0,1-4.887,4.991,15.013,15.013,0,0,1-1.792.656c-.239.085-.488.148-.72.249a1.975,1.975,0,0,1-2.754-.949,7.008,7.008,0,0,1-.79-3.816,24.132,24.132,0,0,1,.674-4.26c.855-3.287,1.829-6.542,2.751-9.811.085-.3.145-.612.262-1.112a5.968,5.968,0,0,0-.541.422,34.75,34.75,0,0,0-5.832,8.191,69.133,69.133,0,0,0-4.165,9.495,5.98,5.98,0,0,1-.544,1.226,2.343,2.343,0,0,1-2.553,1.117,2.325,2.325,0,0,1-1.86-2.073,7.263,7.263,0,0,1,.087-1.91c.69-3.945,1.413-7.885,2.12-11.827.112-.625.2-1.254.322-2.043a4.107,4.107,0,0,0-.652.431,27.144,27.144,0,0,0-2,2.2c-1.179,1.558-2.3,3.159-3.4,4.774a5.894,5.894,0,0,0-.693,1.569,56.667,56.667,0,0,1-2.919,8.032,7.723,7.723,0,0,1-1.794,2.59,5.027,5.027,0,0,1-1.18.811,1.945,1.945,0,0,1-2.658-1c-.093-.191-.168-.391-.288-.673-.278.273-.482.513-.723.7a13.565,13.565,0,0,1-1.91,1.437,3.638,3.638,0,0,1-5.407-2.172,10.891,10.891,0,0,1-.3-1.4c-.054-.276-.088-.556-.16-1.018l-.647.874c-.685.928-1.332,1.887-2.064,2.776a11.192,11.192,0,0,1-4.629,3.342,4.606,4.606,0,0,1-6.558-3.889,9.862,9.862,0,0,1,.307-3.715,60.442,60.442,0,0,1,4.384-12.288,12.638,12.638,0,0,1,1.2-1.963,2.72,2.72,0,0,1,1.031-.826,1.094,1.094,0,0,1,1.61,1.032,9.833,9.833,0,0,1-.328,1.98c-.876,3.907-1.776,7.808-2.643,11.717-.171.773-.235,1.571-.373,2.526a3.8,3.8,0,0,0,.8-.38,20.143,20.143,0,0,0,2.094-1.962,53.6,53.6,0,0,0,5.648-8.577c1.472-2.626,3.005-5.219,4.523-7.819a4.6,4.6,0,0,1,.688-.92,2.181,2.181,0,0,1,2.463-.584,2.155,2.155,0,0,1,1.462,2.065,6.335,6.335,0,0,1-.2,1.517c-.692,3.324-1.4,6.645-2.1,9.968a2.028,2.028,0,0,0,.009.937,6.533,6.533,0,0,0,.443-.493,63.629,63.629,0,0,0,7.08-12.636c.281-.646.544-1.3.849-1.937a5.285,5.285,0,0,1,.648-1.062,2.5,2.5,0,0,1,2.776-.8,2.483,2.483,0,0,1,1.637,2.375c0,.409-.062.818-.11,1.4l.726-.654c.809-.729,1.607-1.471,2.432-2.181a8.366,8.366,0,0,1,1.174-.834,2.679,2.679,0,0,1,4.275,1.813,22.166,22.166,0,0,1,.192,3.439c.013.3,0,.608,0,1.061a3.478,3.478,0,0,0,.334-.371c1.7-2.781,4.009-5.075,6.086-7.552a8.011,8.011,0,0,1,2.082-1.676,2.835,2.835,0,0,1,4.393,1.638,9.172,9.172,0,0,1,.424,2.543,28.994,28.994,0,0,1-.871,7.332c-.454,2.1-.979,4.18-1.47,6.27a1.84,1.84,0,0,0-.017.993c.261-.457.563-.9.777-1.373a87.236,87.236,0,0,1,5.254-9.5,22.532,22.532,0,0,1,3.4-4.4,15.181,15.181,0,0,1,7.179-3.888,3.167,3.167,0,0,1,3.057.517c.157-.306.281-.553.409-.8.4-.767.767-1.552,1.214-2.289a3.316,3.316,0,0,1,.916-.964,1.78,1.78,0,0,1,2-.074,1.739,1.739,0,0,1,.907,1.684,3.1,3.1,0,0,1-.124.755c-1.159,3.865-2.345,7.723-3.48,11.595-.5,1.689-.9,3.406-1.316,5.118a4.327,4.327,0,0,0-.1,1.238c.027.509.3.72.775.544a3.7,3.7,0,0,0,1.312-.758,15.78,15.78,0,0,0,1.8-2.113,42.673,42.673,0,0,0,4.58-8.753q1.431-3.568,2.908-7.118a9.068,9.068,0,0,1,.741-1.452,2.383,2.383,0,0,1,2.994-1.038,2.335,2.335,0,0,1,1.25,2.82c-.277,1.218-.613,2.422-.912,3.635a1.955,1.955,0,0,0-.023.945c.192-.243.375-.494.576-.729,1.854-2.164,3.68-4.354,5.584-6.474a13.607,13.607,0,0,1,2.395-2.07,2.605,2.605,0,0,1,4.252,2.14,9.726,9.726,0,0,1-.271,2.376c-.826,3.887-1.7,7.763-2.861,11.567-.259.848-.415,1.726-.679,2.846.527-.234.838-.345,1.122-.5a31.2,31.2,0,0,0,6.467-4.957c.716-.688,1.384-1.427,2.088-2.126a5.65,5.65,0,0,1,2.6-1.575c1.019-.259,1.364.015,1.331,1.087a5.367,5.367,0,0,1-.948,2.889,50.319,50.319,0,0,1-3.5,4.806,57.865,57.865,0,0,1-4.608,4.49,9.7,9.7,0,0,1-4.2,2.249,4.649,4.649,0,0,1-6.125-4.2,9.416,9.416,0,0,1,.3-3.716c.539-1.911,1.133-3.807,1.7-5.709.263-.88.522-1.762.782-2.644l-.171-.087c-.156.185-.328.358-.464.556-.817,1.188-1.679,2.348-2.426,3.579-2,3.286-3.924,6.613-5.918,9.9a22.655,22.655,0,0,1-1.906,2.65c-1.434,1.738-3.2,1.653-4.547-.164A1.781,1.781,0,0,0-3791.8-4710.232Zm-7.711-15.645a8.358,8.358,0,0,0-1.223.119,7.9,7.9,0,0,0-4.285,2.588,18.894,18.894,0,0,0-3.735,7.194,11.721,11.721,0,0,0-.344,1.693c-.069.595-.217,1.321.433,1.647.63.317,1.2-.159,1.611-.583a13.6,13.6,0,0,0,1.627-2.007c.986-1.5,1.952-3.015,2.838-4.573.981-1.725,1.868-3.5,2.787-5.262A6.88,6.88,0,0,0-3799.508-4725.877Z" transform="translate(-510.131 -856.616)" fill="#3cbfae"/>
    <path id="Path_1478" data-name="Path 1478" d="M-4213.492-4727.917c-.368,0-.679-.023-.985,0-3.224.289-6.445.6-9.67.867a1.084,1.084,0,0,0-1.062.88c-1.774,5.216-3.756,10.361-5.256,15.669a11.93,11.93,0,0,1-.771,1.964,1.53,1.53,0,0,1-1.676,1.012,1.478,1.478,0,0,1-1.232-1.521,21.484,21.484,0,0,1,.336-4.1c.826-4.114,1.761-8.206,2.653-12.306.054-.247.1-.494.176-.856-.328-.02-.594-.036-.861-.054-1.373-.094-2.746-.172-4.115-.3a2.751,2.751,0,0,1-1-.325,1.193,1.193,0,0,1-.394-1.993,3.847,3.847,0,0,1,1.52-.942,22.606,22.606,0,0,1,2.716-.6c1.006-.2,2.016-.379,3.027-.542a.864.864,0,0,0,.758-.619q1.969-5.368,3.963-10.727a2.073,2.073,0,0,0,.036-.4c-.338.19-.6.328-.86.485A30.685,30.685,0,0,1-4234-4738.9a11.113,11.113,0,0,1-5.509.318,5.053,5.053,0,0,1-2.811-1.562,2.762,2.762,0,0,1-.617-2.859c.278-.815,1.153-1.345,1.809-.444a1.5,1.5,0,0,0,1.47.528,13.364,13.364,0,0,0,2.654-.388,31.847,31.847,0,0,0,14.81-8.893,9.477,9.477,0,0,0,2.006-3.136,9.249,9.249,0,0,1,.773-1.543,2.546,2.546,0,0,1,1.573-1.185,2.207,2.207,0,0,1,2.771,1.7,3.381,3.381,0,0,1-.122,1.6c-.8,2.334-1.668,4.642-2.494,6.966q-2.59,7.29-5.156,14.589a5.286,5.286,0,0,0-.135.729c.783-.116,1.469-.235,2.16-.313,2.833-.317,5.667-.647,8.505-.91a1.2,1.2,0,0,0,1.165-.888c1.483-3.685,2.953-7.377,4.542-11.018,1-2.286,2.176-4.495,3.313-6.718a9.854,9.854,0,0,1,1.144-1.656,2.848,2.848,0,0,1,.882-.724,1.148,1.148,0,0,1,1.773,1.016,2.931,2.931,0,0,1-.093.952c-.508,1.785-1,3.576-1.57,5.34-1.384,4.266-2.812,8.517-4.219,12.775a5.083,5.083,0,0,0-.108.553c.413.025.754.031,1.091.07a11.437,11.437,0,0,1,1.705.245,2.022,2.022,0,0,1,1.562,1.652,2.063,2.063,0,0,1-.872,2.1,4.214,4.214,0,0,1-1.254.689,27.4,27.4,0,0,1-3.335.887,1.316,1.316,0,0,0-1.208.992c-1.515,4.56-3.061,9.109-4.606,13.658q-.448,1.318-.97,2.611a3.377,3.377,0,0,1-.6.977,1.5,1.5,0,0,1-2.542-.378,3.047,3.047,0,0,1-.26-1.49,41.424,41.424,0,0,1,.668-4.555c.785-3.534,1.664-7.045,2.5-10.567C-4213.55-4727.394-4213.536-4727.613-4213.492-4727.917Z" transform="translate(-178.65 -836.933)" fill="#3cbfae"/>
    <path id="Path_1479" data-name="Path 1479" d="M-3699.451-4260.923a33.059,33.059,0,0,1,2.188-9.98,8.4,8.4,0,0,1,1.269-2.13,2.508,2.508,0,0,1,4.391.513,6.82,6.82,0,0,1,.572,2.3,7.5,7.5,0,0,1-.53,3.291c-.314.872-.652,1.737-1.028,2.584a26.488,26.488,0,0,0-1.875,5.428,3.654,3.654,0,0,1-.366.982,1.5,1.5,0,0,1-1.315.83,2.919,2.919,0,0,1-3.3-2.954C-3699.469-4260.346-3699.451-4260.636-3699.451-4260.923Z" transform="translate(-663.478 -1268.602)" fill="#3cbfae"/>
    <path id="Path_1480" data-name="Path 1480" d="M-3486.771-4268.021c.342-2.117.637-4.243,1.042-6.348a13.24,13.24,0,0,1,1.933-4.58,3.954,3.954,0,0,1,3.472-1.871,1.4,1.4,0,0,1,1.482,1.338,11.612,11.612,0,0,1-.031,2.2c-.324,4.034-1.708,7.81-2.877,11.636a6.428,6.428,0,0,1-.511,1.242,2.119,2.119,0,0,1-3.8.045,5.3,5.3,0,0,1-.534-1.821,12.529,12.529,0,0,1-.019-1.823Z" transform="translate(-853.153 -1262.615)" fill="#3cbfae"/>
    <path id="Path_1481" data-name="Path 1481" d="M-3234.876-5694.182a24.017,24.017,0,0,1-.82,2.944,26.505,26.505,0,0,1-1.689,3.229,3.968,3.968,0,0,1-1.024,1.128,1.966,1.966,0,0,1-3.178-1.125,3.492,3.492,0,0,1-.105-1.143,10.607,10.607,0,0,1,1.653-5.16,8.332,8.332,0,0,1,1.713-1.786,2.053,2.053,0,0,1,2.346-.261A2.414,2.414,0,0,1-3234.876-5694.182Z" transform="translate(-1071.707 0)" fill="#3cbfae"/>
    <path id="Path_1482" data-name="Path 1482" d="M-3108.786-5227.569a9.674,9.674,0,0,1,2.1-5.142,3.255,3.255,0,0,1,2.02-1.2,1.761,1.761,0,0,1,2.183,1.888,4.712,4.712,0,0,1-.5,1.924c-.689,1.3-1.5,2.53-2.273,3.78a2.3,2.3,0,0,1-.524.555,1.709,1.709,0,0,1-2.677-.576A5.935,5.935,0,0,1-3108.786-5227.569Z" transform="translate(-1190.244 -412.616)" fill="#3cbfae"/>
  </g>
</svg>
