<svg id="Component_43_1" data-name="Component 43 – 1" xmlns="http://www.w3.org/2000/svg" xmlns:xlink="http://www.w3.org/1999/xlink" width="30.752" height="33.487" viewBox="0 0 30.752 33.487">
  <defs>
    <clipPath id="clip-path">
      <rect id="Rectangle_4453" data-name="Rectangle 4453" width="30.752" height="33.487" fill="#fff"/>
    </clipPath>
  </defs>
  <g id="Group_5939" data-name="Group 5939" clip-path="url(#clip-path)">
    <path id="Path_22284" data-name="Path 22284" d="M103.655,117.792l2.765-.709a4.552,4.552,0,0,1,4.464-.172c1.919.7,2.967,2.624,3.83,4.475l1.559,4.156c1.051,2.252.935,3.222-.516,5.239-.384.533-2.43,3.782-2.963,3.4a1.19,1.19,0,0,1-.271-1.66c.948-1.319,2.869-3.694,1.6-5.972l-1.045-4.649a5.321,5.321,0,0,0-7.07-2.574L104.55,120a1.277,1.277,0,0,1-.37.114,2.413,2.413,0,0,1-2.944-1.329l-2.2-4.711a1.252,1.252,0,0,0-2.312.1,11.455,11.455,0,0,0,.437,2.907l4.764,9.113a1.19,1.19,0,0,1-1.533,1.6l-2.646-2.08c-.37-.152-1.7.46-2.068.621a1.46,1.46,0,0,0-.787.84l0,0a1.431,1.431,0,0,0,.84,1.828l5.382,2.028a10.032,10.032,0,0,1,3.286,1.624,8.891,8.891,0,0,1,2,3.119c.277.595.074.469-.521.747s-.614.675-.891.08a6.177,6.177,0,0,0-2.152-2.156,5.3,5.3,0,0,0-2.141-1.651h0l-4.931-2.02c-1.953-.736-3.818-2.452-3.1-4.412l0,0a3.845,3.845,0,0,1,5.082-2.239l.741.306-3.867-8.295a3.631,3.631,0,0,1,4.532-4.946c.905.33,1.542,2.061,1.949,2.933l2.3,3.656c.024.052.081.03.133.027a1.266,1.266,0,0,0,.13-.016Z" transform="translate(-86.216 -103.432)" fill="#fff" fill-rule="evenodd"/>
    <path id="Path_22285" data-name="Path 22285" d="M92.734,23.579a1.189,1.189,0,0,1-2.156,1L89.2,21.634a1.189,1.189,0,0,1,.576-1.581c.595-.277,1.384,1.326,1.661,1.921Z" transform="translate(-83.037 -18.66)" fill="#fff" fill-rule="evenodd"/>
    <path id="Path_22286" data-name="Path 22286" d="M190.253,4.605a1.19,1.19,0,1,1-2.236-.813l1.255-1.854c.225-.615.765-2.138,1.382-1.915a1.193,1.193,0,0,1,.712,1.525Z" transform="translate(-175.172 0)" fill="#fff" fill-rule="evenodd"/>
    <path id="Path_22287" data-name="Path 22287" d="M4.654,100.724a1.189,1.189,0,1,1-.813,2.234L.782,101.845a1.188,1.188,0,0,1-.71-1.524c.225-.617,1.494-.433,2.11-.208Z" transform="translate(0 -93.112)" fill="#fff" fill-rule="evenodd"/>
    <path id="Path_22288" data-name="Path 22288" d="M17.482,182.221c.6-.276,1.978-.334,2.255.261a1.189,1.189,0,0,1-.575,1.581l-2.949,1.375a1.189,1.189,0,1,1-1.005-2.155Z" transform="translate(-13.533 -169.651)" fill="#fff" fill-rule="evenodd"/>
    <path id="Path_22289" data-name="Path 22289" d="M235.2,77.623a1.19,1.19,0,0,1,1.581.576c.277.595-.4.913-.992,1.19l-2.533,1.766A1.19,1.19,0,0,1,232.256,79Z" transform="translate(-215.832 -72.244)" fill="#fff" fill-rule="evenodd"/>
  </g>
</svg>
