<svg xmlns="http://www.w3.org/2000/svg" width="27.333" height="30.288" viewBox="0 0 27.333 30.288">
    <path data-name="Path 21719" d="M433.769 574.8a33.332 33.332 0 0 0 8.238 4.99q1.309.556 2.687 1.02a2.992 2.992 0 0 0 2.041-.585c.355-.218 1.321-.955.836-1.119a34.771 34.771 0 0 1-8.745-4.353q-1.128-.784-2.181-1.658c-.143-.118-.589-.011-.83.057a4.89 4.89 0 0 0-1.212.53c-.474.29-1.183.831-.836 1.119z" transform="translate(-420.371 -550.585)" style="fill:#fff"/>
    <path data-name="Path 21720" d="M564.661 486.86a38.647 38.647 0 0 1 2.511 8.612q.213 1.271.342 2.557a1.887 1.887 0 0 1-.81 1.38c-.232.192-.977.655-1.023.2a38.516 38.516 0 0 0-1.924-8.751q-.423-1.221-.93-2.419c-.068-.163.093-.472.187-.636a2.791 2.791 0 0 1 .624-.744c.309-.256.856-.6 1.023-.2z" transform="translate(-541.596 -469.516)" style="fill:#fff"/>
    <path data-name="Path 21721" d="M493.1 242.076a12.739 12.739 0 0 0 1.9-4.834 13.768 13.768 0 0 0-6.38-13.63 11.068 11.068 0 0 0-1.544-.8.8.8 0 0 0-.74-.025.779.779 0 0 0-.3.678 2.055 2.055 0 0 0 1.073 1.7c.245.1.49.216.73.338q.2.1.393.212c.081.046.29.23.384.227-.089 0-.176-.117-.043-.027l.184.123c.11.075.219.153.327.232q.341.252.662.529c.1.086.195.184.3.267-.3-.234.025.026.1.1q.3.3.577.622.146.169.285.344l.111.14c.154.195-.055-.066-.066-.089a7.136 7.136 0 0 0 .505.738c.144.227.276.46.408.695.043.077.113.245-.05-.1.025.054.054.107.08.16.073.147.143.3.21.445q.164.368.306.746c.046.123.083.256.132.38-.143-.36.019.072.049.18.072.258.135.519.189.781q.045.219.082.439l.028.176c.011.075.077.341.007.039a6.531 6.531 0 0 1 .061 1.659q-.007.2-.023.407c0 .061-.01.123-.015.181.019-.23 0-.025 0 .033q-.051.429-.136.848a11.716 11.716 0 0 1-.458 1.654 12.426 12.426 0 0 1-.211.549c-.066.161.094-.2-.026.061s-.241.521-.376.774a12.489 12.489 0 0 1-.663 1.112" transform="translate(-469.531 -221.714)" style="fill:#fff"/>
    <path data-name="Path 21722" d="M232.7 229.353c-.014 0-.162.061-.046.018-.061.021-.48.159-.632.2q-.433.126-.875.22a12.413 12.413 0 0 1-1.739.241q-.429.029-.858.029c-.143 0-.286 0-.429-.007-.18-.006.222.017-.082 0l-.285-.02a13.03 13.03 0 0 1-1.741-.261q-.414-.09-.828-.213c-.137-.04-.274-.081-.409-.126l-.181-.061c.229.077-.068-.027-.091-.036a12.292 12.292 0 0 1-1.638-.757q-.167-.093-.329-.191c-.008 0-.275-.167-.109-.065s-.1-.065-.105-.07q-.385-.257-.749-.545a4.226 4.226 0 0 1-.657-.559c.193.235.061.057 0 0s-.123-.119-.18-.18q-.176-.184-.344-.372-.151-.172-.293-.349c-.067-.084-.234-.214.012.022a1.252 1.252 0 0 1-.119-.164 8.052 8.052 0 0 1-.253-.379 1.81 1.81 0 0 1-.282-.482c0 .028.152.306.034.066-.029-.061-.061-.123-.088-.184a8.909 8.909 0 0 1-.2-.461q-.075-.184-.142-.376c-.006-.015-.1-.328-.042-.118.058.2-.023-.081-.034-.123q-.122-.434-.209-.877a9.829 9.829 0 0 1-.085-.5l-.028-.2c.04.288 0-.05-.007-.086a14.626 14.626 0 0 1-.053-1.939q.017-.465.058-.928l.019-.206c-.017.18 0 0 0-.028a26.976 26.976 0 0 1 .408-2.456 21.993 21.993 0 0 1 .91-3.239q.078-.206.163-.41c-.07.17.052-.116.077-.172.123-.263.25-.523.392-.777a8.117 8.117 0 0 1 .91-1.328q.107-.127.222-.248l.115-.119c-.123.123.01-.006.042-.034a5.607 5.607 0 0 1 .613-.49 4.529 4.529 0 0 1 1.441-.671 8.3 8.3 0 0 1 2.026-.222c.719 0 1.261.032 1.988.073q2.262.127 4.516.35 1.112.11 2.221.245c.634.076.866-.516.729-1.063-.142-.57-.638-1.4-1.3-1.477q-2.4-.287-4.809-.467a45.257 45.257 0 0 0-4.752-.214 6.532 6.532 0 0 0-3.772 1.194 7.839 7.839 0 0 0-2.18 2.672 21.131 21.131 0 0 0-2.014 7.352 13.754 13.754 0 0 0 1.52 8.646 13.477 13.477 0 0 0 14.217 5.9 12.172 12.172 0 0 0 1.8-.553" transform="translate(-216.5 -206.558)" style="fill:#fff"/>
    <path data-name="Path 21723" d="M335.01 388.733h6.409a2.571 2.571 0 0 0 1.164-.429 1.764 1.764 0 0 0 .5-.347c.026-.032.157-.179.023-.179h-6.416a2.568 2.568 0 0 0-1.164.429 1.777 1.777 0 0 0-.5.347c-.026.033-.157.179-.023.179z" transform="translate(-327.693 -376.674)" style="fill:#fff"/>
    <path data-name="Path 21724" d="M343.158 429.75h6.859a1.648 1.648 0 0 0 1.236-.613c.164-.2.4-.77-.085-.77h-6.862a1.638 1.638 0 0 0-1.236.613c-.164.2-.4.77.085.77z" transform="translate(-335.127 -414.778)" style="fill:#fff"/>
</svg>
