<svg xmlns="http://www.w3.org/2000/svg" xmlns:xlink="http://www.w3.org/1999/xlink" width="71.293" height="76.546" viewBox="0 0 71.293 76.546">
  <defs>
    <clipPath id="clip-path">
      <path id="bg" d="M15.676,2.278c2.167,6.2.375,25.977-2.652,37.213a34.576,34.576,0,0,1-5.263,11.23C5.716,53.649,3.155,57.6,1.576,56.683-1.527,54.551.265,34.77,4.228,19.47,8.272,3.7,13.505-4.219,15.676,2.278Z" transform="translate(55.955 0) rotate(80)" fill="none"/>
    </clipPath>
  </defs>
  <g id="Group_1941" data-name="Group 1941" transform="translate(-1299.078 -1128.099)">
    <g id="Group_1937" data-name="Group 1937" transform="translate(1299.078 1128.099)">
      <path id="bg-2" data-name="bg" d="M38.438,3.96c11.847,7.824,15.795,27.207,10.223,36.926-2.877,4.789-7.856,6.165-14.275,8.277-6.34,1.725-14.119,4.184-20.771,2.214C.369,47.17-3.578,27.787,3.392,14.451,10.417.673,26.406-4.18,38.438,3.96Z" transform="matrix(-0.53, -0.848, 0.848, -0.53, 27.105, 70.989)" fill="#3cbfae"/>
    </g>
    <g id="Group_1575" data-name="Group 1575" transform="translate(1353.388 1173.393) rotate(-180)">
      <g id="Group_1572" data-name="Group 1572" transform="translate(0 9.759)">
        <path id="Path_1452" data-name="Path 1452" d="M2.007,2.6l12.707.091c4.056.029,8.123,0,12.167.357q.858.075,1.714.175.428.05.854.107c-.009,0,.457.063.214.029l.072.011.284.043q1.7.265,3.38.666c.619.149,1.7,0,1.7-.842A1.918,1.918,0,0,0,33.53,1.6,60.14,60.14,0,0,0,21.061.175c-4.2-.113-8.4-.093-12.6-.123L1.29,0C.612,0-.206.431.047,1.235A2.163,2.163,0,0,0,2.007,2.6Z" fill="#fff"/>
      </g>
      <g id="Group_1573" data-name="Group 1573" transform="translate(22.674 0)">
        <path id="Path_1453" data-name="Path 1453" d="M.368,2.6,11.087,12.613l.593-2.332a13.171,13.171,0,0,0-4.843,4.424c-.307.406-.611.814-.922,1.217s-.7.759-.96,1.172c.241-.376.116-.127.021-.026s-.183.193-.276.287c-.186.187-.379.367-.579.539-.174.15-.368.277-.54.428.412-.361.091-.068-.034.01s-.226.137-.342.2c-.645.362-1.295,1.3-.826,2.042a1.611,1.611,0,0,0,2.173.363,16.105,16.105,0,0,0,4.717-4.68c.305-.4.611-.81.928-1.2q.22-.274.448-.54c.092-.106.419-.366.04-.05.1-.082.182-.2.272-.287a10.814,10.814,0,0,1,1.1-.969c.284-.221-.363.233-.057.042.11-.069.218-.141.33-.207a6.873,6.873,0,0,1,.7-.357,1.494,1.494,0,0,0,.593-2.332L2.9.341A1.8,1.8,0,0,0,.587.534,1.408,1.408,0,0,0,.368,2.6Z" fill="#fff"/>
      </g>
    </g>
  </g>
</svg>
