<svg xmlns="http://www.w3.org/2000/svg" width="107.896" height="113.951" viewBox="0 0 107.896 113.951">
  <g id="Group_4776" data-name="Group 4776" transform="translate(-224.5 -3223.05)">
    <path id="bg" d="M449.705,939.627c24.094,15.664,30.216,57.292,17.366,79-6.609,10.712-17.266,14.253-31.04,19.547-13.564,4.447-30.247,10.648-44.049,7.111-27.455-7.659-33.578-49.286-17.366-79C390.992,935.606,425.258,923.3,449.705,939.627Z" transform="translate(-141.242 2290.664)" opacity="0.101"/>
    <g id="Group_4738" data-name="Group 4738" transform="translate(236.716 3239.338)">
      <path id="bg-2" data-name="bg" d="M430.508,937.553c18.585,11.18,23.308,40.889,13.4,56.385-5.1,7.646-13.318,10.172-23.943,13.951-10.463,3.174-23.331,7.6-33.978,5.075-21.178-5.466-25.9-35.175-13.4-56.385C385.219,934.683,411.651,925.9,430.508,937.553Z" transform="translate(-365.742 -932.385)" fill="#fff"/>
      <g id="Group_4737" data-name="Group 4737" transform="translate(30.744 21.576)">
        <g id="Group_670" data-name="Group 670" transform="translate(0 0)">
          <path id="Path_1325" data-name="Path 1325" d="M971.356,695.923a1.859,1.859,0,0,1-1.859-1.859V659.108a1.859,1.859,0,0,1,2.927-1.522l24.914,17.477a1.859,1.859,0,0,1,0,3.044l-24.914,17.478A1.857,1.857,0,0,1,971.356,695.923Z" transform="translate(-969.497 -657.249)" fill="#ffb81d"/>
        </g>
      </g>
    </g>
  </g>
</svg>