<svg id="Component_44_1" data-name="Component 44 – 1" xmlns="http://www.w3.org/2000/svg" xmlns:xlink="http://www.w3.org/1999/xlink" width="27.545" height="32.982" viewBox="0 0 27.545 32.982">
  <defs>
    <clipPath id="clip-path">
      <rect id="Rectangle_4452" data-name="Rectangle 4452" width="27.545" height="32.982" fill="#fff"/>
    </clipPath>
  </defs>
  <g id="Group_5937" data-name="Group 5937" clip-path="url(#clip-path)">
    <path id="Path_22277" data-name="Path 22277" d="M52.18,70.366c2.534.617,5.843.049,8.455.034l10.7-.063a.847.847,0,0,0,.84-.84l-.124-7.62c-.012-.728-.4-1.026-1.044-1.2-2.34-.656-5.829.023-8.27.047l-9.388.09a.773.773,0,0,0-.666.345.833.833,0,0,0-1.18.749c0,2.393-.56,5.579.095,7.876a.842.842,0,0,0,.587.586m1.165-7.877,12.07-.115c.756-.007,4.951-.626,4.973.774q.045,2.758.09,5.515L59.3,68.729c-.791,0-6.121.579-6.121-.642q0-2.806,0-5.611a.936.936,0,0,0,.167.014Z" transform="translate(-48.077 -56.621)" fill="#fff"/>
    <path id="Path_22278" data-name="Path 22278" d="M278.31,258.989h-5.48a.852.852,0,0,0-.379,1.595q0,4.973,0,9.945a.849.849,0,0,0,.84.84q2.605.048,5.2-.085a.852.852,0,0,0,.84-.84q.055-5.311-.189-10.616a.851.851,0,0,0-.84-.84M274.135,269.7q0-4.516,0-9.032h3.376q.186,4.486.158,8.974-1.765.071-3.53.058" transform="translate(-255.05 -242.834)" fill="#fff"/>
    <path id="Path_22279" data-name="Path 22279" d="M168.472,265.358a.852.852,0,0,0,.84.84q2.028.046,4.054-.047a.853.853,0,0,0,.84-.84q.047-2.074-.048-4.146a.851.851,0,0,0-.84-.84h-4.144a.844.844,0,0,0-.7,1.292q-.065,1.87-.005,3.74m1.659-.827q-.022-1.263.013-2.525h2.366q.04,1.249.028,2.5-1.2.038-2.407.028" transform="translate(-157.86 -244.087)" fill="#fff"/>
    <path id="Path_22280" data-name="Path 22280" d="M173.995,369.1l-4.158-.162a.805.805,0,0,0-.739,1.173.833.833,0,0,0-.1.408q0,.938,0,1.875a5.846,5.846,0,0,0,.076,1.61.843.843,0,0,0,.587.587,9.99,9.99,0,0,0,2.289.047,8.305,8.305,0,0,0,2.3-.117.853.853,0,0,0,.616-.81q.034-1.886-.033-3.771a.854.854,0,0,0-.84-.84m-2.048,3.858c-.391,0-.876.071-1.316.067,0-.323.044-.667.043-.944q0-.716,0-1.431l2.5.1q.027,1.121.018,2.242c-.42.015-.866-.033-1.249-.031" transform="translate(-158.437 -345.925)" fill="#fff"/>
    <path id="Path_22281" data-name="Path 22281" d="M69.163,370.219a.85.85,0,0,0-.84-.84H64.407a.838.838,0,0,0-.727,1.233.791.791,0,0,0-.232.573q-.021,1.5-.016,3a.854.854,0,0,0,1.063.81,13.715,13.715,0,0,1,2.454-.066c.581.01,1.488.114,1.944-.343s.3-1.381.306-1.969c0-.8-.013-1.6-.037-2.4m-3.111,3.013c-.316-.006-.628,0-.939.022q0-1.035.015-2.07a.954.954,0,0,0-.007-.126H67.5q.01.48.014.96c0,.381.059.843.04,1.265-.5.038-1.056-.042-1.507-.05" transform="translate(-59.475 -346.338)" fill="#fff"/>
    <path id="Path_22282" data-name="Path 22282" d="M54.581,266.462c.565-.331.492-1.123.509-1.674.03-1,0-2-.058-3a.853.853,0,0,0-.84-.84q-2.092-.025-4.183.036a.814.814,0,0,0-.808.783.832.832,0,0,0-.37.648q-.131,1.679-.261,3.358a.842.842,0,0,0,.84.84h2.667a5.483,5.483,0,0,0,2.5-.156m-4.267-1.524q.089-1.141.178-2.282,1.45-.035,2.9-.03.02.518.027,1.038c.005.4.056.886.023,1.329-.574.032-1.216-.055-1.747-.055H50.313" transform="translate(-45.537 -244.668)" fill="#fff"/>
    <path id="Path_22283" data-name="Path 22283" d="M27.519,25.655q.045-9.791-.078-19.582C27.394,2,27.321.155,22.855.206L4.317.417A.717.717,0,0,0,3.588,0C-.132.187.244,4.241.17,7.025.009,13.081.028,19.141.058,25.2c.016,3.234-.819,7.291,3.362,7.566,6.626.437,13.41.086,20.049.05,4.733-.026,4.031-3.109,4.049-7.16m-1.7,3.916c-.017,2.566-11.368,1.584-13.041,1.58q-3.342-.008-6.683-.039L3.42,31.085c-2.154-.022-1.668-3.453-1.675-4.589q-.035-5.841-.012-11.683c.011-1.939-.9-11.9,1.45-13.029a.757.757,0,0,0,.659.319h0l11.408-.13,5.07-.058c2.522-.029,5.378-.618,5.425,2.854q.17,12.4.072,24.8" transform="translate(0 0)" fill="#fff"/>
  </g>
</svg>
