<svg xmlns="http://www.w3.org/2000/svg" xmlns:xlink="http://www.w3.org/1999/xlink" width="1920" height="800" viewBox="0 0 1920 800">
  <defs>
    <clipPath id="clip-path">
      <rect id="Rectangle_2230" data-name="Rectangle 2230" width="1920" height="800" transform="translate(0 5835)" fill="#3cbfae"/>
    </clipPath>
  </defs>
  <g id="Mask_Group_286" data-name="Mask Group 286" transform="translate(0 -5835)" clip-path="url(#clip-path)">
    <g id="Group_1462" data-name="Group 1462" transform="translate(-152.021 4900.765)" opacity="0.478">
      <g id="Group_1416" data-name="Group 1416" transform="translate(0 767.359)" opacity="0.299">
        <g id="Layer_9_Image" data-name="Layer 9 Image" transform="translate(0 0)">
          <g id="Group_1405" data-name="Group 1405">
            <path id="Path_1343" data-name="Path 1343" d="M606.5,511.7c9.525-4.84,17.326-10,23.606-17.3a241.394,241.394,0,0,0,36.76-57.1c9.736-21.271,19.247-42.667,29.284-63.769,3.189-6.7,7.593-12.772,11.768-18.866a19.647,19.647,0,0,1,6.24-5.76c8.041-4.6,17.824.689,18.778,10.473a27.117,27.117,0,0,1-1.817,12.731c-14.656,34.034-26.332,69.586-44.068,102.057-3.25,5.947-4.114,12.434-4.412,19.91a24.772,24.772,0,0,0,4.279-1.257c7.825-4.052,14.174-10.138,19.857-17.115,26.673-32.748,51.169-67.267,72.51-104.356,6.53-11.35,13.172-22.63,19.535-34.089a157.261,157.261,0,0,0,8.654-17.7c7.583-18.921,17.566-36.339,28.013-53.472a27.736,27.736,0,0,1,6.544-7.421c4.545-3.5,9.6-3.634,14.425-.424,4.62,3.077,6.517,7.822,6,13.559a32.785,32.785,0,0,1-1.668,7.346c-3.333,9.968-6.794,19.884-10.2,29.826-.509,1.488-.957,3-1.561,4.912a11.477,11.477,0,0,0,2.675.176c10.247-2,20.457-4.277,30.747-5.976,3.752-.617,5.878-2.14,7.74-5.806,9.125-17.969,18.368-35.88,28.066-53.489a102.033,102.033,0,0,1,12.909-17.94c7.559-8.578,13.082-9.022,22.687-3.216.328.2.8.107,1.689.2.5-4.049.8-8.162,1.542-12.183,2.206-11.975,4.564-23.917,6.917-35.86a22.093,22.093,0,0,1,1.409-4.572c3.645-8.333,12.288-9.85,17.566-2.579,2.67,3.677,4.369,8.408,5.718,12.936,2.478,8.327,3.887,17.052,6.647,25.252,2.83,8.393,6.632,16.417,10.253,24.476,1.071,2.385,2.971,4.332,4.865,7.006,1.471-1.967,2.558-3.268,3.488-4.69,3.69-5.645,7.178-11.454,11.02-16.971,9.253-13.3,21.647-22.166,35.849-27.877,12.6-5.068,24.4-2.134,34.839,6.735,7.386,6.276,10.466,15.03,10.434,24.952-.058,16.8-3.783,32.884-13.074,46.244-17.893,25.742-41.438,40.668-72.185,39.35-4.018-.173-8.012-.955-12.877-1.563l-5.691,11.4.831.8c2.041-1.044,4.05-2.172,6.128-3.112,11.459-5.18,22.389,1.136,24.491,14.378a28.559,28.559,0,0,1-.08,10.262c-2.545,11.641-5.182,23.282-8.417,34.715-5.3,18.728-11.156,37.271-16.631,55.941-1.124,3.839-1.612,7.894-2.4,11.852l1.268.782c2.233-2.307,4.6-4.482,6.677-6.945,13.572-16.1,24.493-34.236,34.613-52.984,7.948-14.733,15.688-29.6,23.923-44.141,5.672-10.011,11.987-19.6,18.123-29.3a30.52,30.52,0,0,1,5.02-6.219c4.215-3.851,9.109-4.97,14.339-2.725,5.2,2.229,8.257,6.588,8.846,12.518a31.139,31.139,0,0,1-.565,10.268c-1.907,7.782-4.055,15.526-6.629,23.077-7.012,20.588-13.181,41.413-16.335,63.154-.559,3.865-.788,7.787-1.092,11.69a23.731,23.731,0,0,0,.429,3.663,75.319,75.319,0,0,0,8.531-2.071c10.183-3.747,19.021-10.112,27.968-16.443,7.188-5.085,10.687-10.392,10.026-20.525-1.116-17.127,4.343-33.181,11.294-48.424,8.968-19.668,21.5-36.524,36.187-51.467,9.352-9.512,20.438-15.719,33.227-18.027a38.247,38.247,0,0,1,28.825,6.149c10.061,6.689,14.644,16.712,12.882,29.327a66.259,66.259,0,0,1-5.121,16.965,125.484,125.484,0,0,1-23.073,35.485c-13.122,14.133-26.886,27.568-40.4,41.28-1.673,1.7-3.477,3.245-6.243,5.806,2.867.375,4.543,1.076,5.971.692,5.337-1.433,10.985-2.391,15.781-5.073a105.119,105.119,0,0,0,19.146-13.617,206.044,206.044,0,0,0,40.237-49.777c11.193-19.342,22.01-38.938,33.038-58.39a79.343,79.343,0,0,0,7.847-19.567c1.705-6.622,4.38-12.959,6.735-19.377a28.023,28.023,0,0,1,2.494-4.82c4.751-7.773,12.109-10.816,19.255-8.027,6.864,2.68,11.023,9.9,10.242,18.754-.4,4.554-1.689,9.013-2.491,13.536-1.4,7.914-3.016,15.8-4.023,23.778-.778,6.164.767,7.427,6.471,6.42,6.086-1.076,11.182-4.237,15.629-8.794a52.5,52.5,0,0,1,6.789-6.262c5.88-4.188,13.343-4.087,18.621.159,5.683,4.566,7.873,10.891,6.442,18.278a35.709,35.709,0,0,1-3.957,10.851c-4.394,7.614-9,15.119-14.014,22.267-11.761,16.784-21.419,34.955-30.6,53.44-2.254,4.54-4.852,9.181-4.276,15.546,2.27-.225,4.447.006,6.317-.7,6.4-2.435,13.029-4.529,18.965-7.972a170.972,170.972,0,0,0,38.54-30.559,38.007,38.007,0,0,1,9.666-7.738c7.708-4,15.062.285,15.871,9.475a30.058,30.058,0,0,1-1.985,14.038,96.156,96.156,0,0,1-11.187,19.2c-14.172,18.748-31.789,33.3-50.447,46.385a42.979,42.979,0,0,1-26.745,7.842c-24.083-.854-40.768-21.528-38.345-47.492a71.381,71.381,0,0,1,6.6-24.43c5.209-10.825,10.895-21.384,16.444-32.015,2.19-4.2,4.561-8.286,7.114-12.9-5.057-2.449-9.792-4.739-15.069-7.3-.93,1.491-2.049,3.083-2.974,4.8-5.989,11.162-11.827,22.425-17.926,33.521a247.113,247.113,0,0,1-45.933,59.907,133.708,133.708,0,0,1-27.73,20.876,68.863,68.863,0,0,1-40.243,8.428,43.2,43.2,0,0,1-25.657-11.226c-.8-.724-1.71-1.318-2.99-2.3-2.651,2.293-5.323,4.505-7.9,6.844A127.27,127.27,0,0,1,1116.8,463.9c-10.228,4.762-20.774,6.619-31.831,4.234-13.167-2.841-22.716-10.092-26.254-24.839a8.849,8.849,0,0,0-1.039-1.69c-1.135,1.356-2.254,2.53-3.2,3.848-5.859,8.2-11.425,16.671-17.574,24.606a66.888,66.888,0,0,1-27.9,21.312c-23.2,9.469-42.03-4.938-41.436-31.845.325-14.707,4.138-28.684,8.87-42.307,5.622-16.178,11.736-32.157,17.638-48.219.528-1.439,1.063-2.873,2.126-5.748-2.432,1.777-3.786,2.648-5.014,3.692-2.174,1.855-4.231,3.871-6.408,5.72a114.672,114.672,0,0,0-29.8,38.147c-10.468,21.678-23.859,41.462-38.015,60.561-9.555,12.893-20.588,23.962-34.04,31.992-6.778,4.047-13.871,7.115-21.746,7.358-12.051.369-21.576-4.419-27.694-16.071a22.7,22.7,0,0,0-1.43-2.259c-.1-.141-.373-.144-1.069-.387-1.236,1.462-2.584,3.152-4.023,4.745-6.546,7.242-12.853,14.77-19.756,21.592A45.09,45.09,0,0,1,783.938,530.6c-16.213,3.222-29.846-4.915-35.542-21.7-1.727-5.091-2.569-10.536-4.09-16.989-2.472,2.9-4.46,5.163-6.373,7.493-9.408,11.459-19.633,21.886-32.7,28.295a86.775,86.775,0,0,1-17.377,6.7c-12.2,2.965-23.31.663-31.884-10.26a7.585,7.585,0,0,0-1.844-1.194q-2.342,2.284-4.695,4.577c-7.793,7.586-16.082,14.433-25.631,19.253-20.5,10.34-40.027,2.146-48.872-20.421-.576-1.465-1.138-2.936-1.966-5.079-1.556,1.278-2.853,2.23-4.031,3.331-7.732,7.231-15.208,14.814-23.212,21.67a74.973,74.973,0,0,1-40.4,17.545c-19.255,2.391-35.433-8.327-42.265-27.992-4.316-12.428-4.532-25.327-2.909-38.22,1.26-10.006,3.384-19.884,5.291-30.775-2.275.4-4.441.828-6.621,1.151a100.245,100.245,0,0,1-11.4,1.5c-3.866.124-5.507,1.979-6.522,5.924Q435.743,495.4,429.989,515.2a436.834,436.834,0,0,1-25.487,66.33,67.926,67.926,0,0,1-6.85,11.621c-3.77,5-8.777,7.268-14.806,5.2-5.526-1.9-9.11-7.127-8.966-14.421a127.825,127.825,0,0,1,1.924-19.2c5.057-29.247,11.174-58.231,18.941-86.791.589-2.166,1.044-4.376,1.761-7.4-2.539,0-4.407-.13-6.256.02-23.143,1.869-46.28,3.845-69.43,5.616-4.311.329-6.28,2.385-7.316,6.9q-10.491,45.626-21.379,91.143c-3.211,13.377-6.831,26.639-10.471,39.889a33.736,33.736,0,0,1-4.013,9.348c-5.326,8.186-15.981,7.269-19.692-1.892-1.561-3.859-1.927-8.471-2.1-12.775-.839-21.116,1.769-41.894,6.235-62.384,3.861-17.718,8.193-35.315,12.328-52.964.517-2.2,1.09-4.393,1.814-7.306a30.02,30.02,0,0,0-4.655.545c-12.126,3.542-24.2,7.277-36.358,10.692a89.574,89.574,0,0,1-13.788,2.628c-3.1.361-6.839.7-8.321-3.311-1.513-4.09,1.428-6.521,4.092-8.39,9.453-6.622,18.645-13.879,28.674-19.3,11.771-6.365,24.28-11.136,36.534-16.431,2.861-1.237,5.094-2.469,6.389-5.956,7.479-20.1,15.227-40.077,22.868-60.106a8.777,8.777,0,0,0,.6-4.846c-1.785,1.526-3.581,3.04-5.355,4.583-18.392,15.97-38.694,27.678-62.069,32.448-15.2,3.1-30.166,2.78-44.34-4.822-12.9-6.92-20.963-18.01-22.628-33.683a28.966,28.966,0,0,1,1.655-12.749c2.736-7.222,9.237-8.223,14.47-2.873a23.931,23.931,0,0,1,2.544,3.1c5.4,7.8,12.837,11,21.584,11.471,12.826.7,24.976-2.5,36.749-7.554a128.2,128.2,0,0,0,40.466-27.283c12.2-12.2,24.144-24.707,36.134-37.152,6.456-6.7,12.754-13.579,19.173-20.326a23.988,23.988,0,0,1,4.447-3.9c8.566-5.327,19.09.263,20.169,10.894a34.522,34.522,0,0,1-.826,10.239c-3.125,15.125-8.345,29.489-13.695,43.83-10.681,28.641-21.1,57.4-31.6,86.116-.464,1.26-.751,2.6-1.25,4.358a26.429,26.429,0,0,0,5.137-.043,449.166,449.166,0,0,1,71.026-8.886c4.817-.248,6.933-2.192,8.675-6.928,8.6-23.337,17.057-46.766,26.617-69.647,6.562-15.7,14.728-30.634,22.45-45.745a43.211,43.211,0,0,1,7.218-9.611c3.024-3.213,6.775-4.97,11.06-2.729,3.994,2.088,5.393,6.095,4.87,10.4-.935,7.739-1.833,15.6-3.882,23.042-6.746,24.513-14.076,48.84-21.024,73.292-2.622,9.227-4.809,18.6-7.434,28.84l25.634,5.5c.911-1.465,2.1-3.331,3.25-5.232a153.994,153.994,0,0,1,32.686-38.554c9.733-8.206,20.55-14.1,32.758-16.3a39.405,39.405,0,0,1,14.558-.072c12.368,2.512,21.048,13.507,21.813,27.914a60.547,60.547,0,0,1-1.865,19.775c-10.705,36.576-32.659,62.049-66.081,75.259-6.456,2.553-13.612,3.034-21,4.592a43.257,43.257,0,0,0,1.625,19.691c1.593,4.82,3.946,6.138,9.078,5.264,9.008-1.537,17.443-4.906,24.173-11.678,8.569-8.618,17.143-17.323,24.885-26.786,7.6-9.3,14.276-19.51,21.128-29.506a41.024,41.024,0,0,0,4.727-9.737c9.2-26.706,24.8-48.785,42.947-68.859,12.856-14.225,29.433-19.818,47.346-21.1a21.332,21.332,0,0,1,9.879,2.074c5.153,2.328,7.812,7.113,7.886,13.138s-2.582,10.689-7.588,13.377a19.684,19.684,0,0,1-7.281,2.348,26.906,26.906,0,0,0-17.657,8.791c-6.893,7.482-14.028,14.972-19.573,23.582-9.607,14.92-18.107,30.68-26.984,46.148a14.438,14.438,0,0,0-2.03,5.76q-1.135,14.083-1.753,28.209C605.066,506.1,605.884,508.319,606.5,511.7ZM841.725,329.249c-1.489,2.726-2.632,4.641-3.615,6.645-10.586,21.56-20.646,43.446-31.858,64.614-9.829,18.552-16.934,38.179-22.695,58.45-2.3,8.093-3.5,16.576-4.9,24.94-.418,2.512.179,5.227.381,9.333,3.727-2.72,6.445-4.4,8.838-6.507a120.241,120.241,0,0,0,23.215-28.338c21.821-36.065,42.206-73.033,59.356-112,.7-1.586,1.122-3.314,1.719-5.114-5.648-1.188-10.862-2.157-16.021-3.4A26.754,26.754,0,0,1,841.725,329.249ZM952.719,341.1c-10.2,4.822-19.977,2.754-29.694,2.437-1.916-.064-3.847.014-5.742-.237-3.168-.418-5.134.943-6.677,3.949-3,5.841-6.112,11.627-9.472,17.231-18.019,30.066-27.712,63.616-35.236,98.086-.413,1.895-.57,3.856-1.033,7.072,2.779-1.944,4.569-3.078,6.245-4.387,7.5-5.867,13.473-13.36,19.138-21.188,22.906-31.649,41.686-66.278,61.741-99.989A18.877,18.877,0,0,0,952.719,341.1Zm9.536-14.15c6.674-12.353,12.52-23.175,18.693-34.6-13.111-11.384-20.635-26.135-24.331-43.775-8.342,19.247-16.25,37.487-24.536,56.6C946.194,305.358,959.46,306.348,962.254,326.947Zm-414.067,84.1c-15.906,3.23-42.7,34.712-45.6,53.082C521.893,459.538,545.513,432.3,548.188,411.05ZM1182.22,361.3l.829.614a45.486,45.486,0,0,0,4.159-3.735c9.091-10.32,18.325-20.51,27.088-31.15,4.215-5.117,7.559-11.081,11.166-16.758.714-1.125.829-2.694,1.38-4.623-6.877,1.266-11.856,4.733-16.191,9.163a119.783,119.783,0,0,0-27.147,42.128C1182.978,358.351,1182.645,359.848,1182.22,361.3Zm-142.3-108.688c16.04-3.19,30.632-16.57,30.424-29.812C1055.019,226.571,1046.643,238.215,1039.923,252.616Z" transform="translate(-177.734 150.18)" fill="#2b9587"/>
            <path id="Path_1344" data-name="Path 1344" d="M1043.261,260.5c6.5,1.84,11.675,1.693,16.532.121,6.282-2.031,12.719-4.205,18.347-7.713a118.437,118.437,0,0,0,20.763-15.99c21.587-21.364,41.748-44.161,56.932-71.55,4.249-7.666,8.622-15.255,13.031-23.045-1.324-1.133-2.094-1.889-2.949-2.506-13.085-9.44-17.286-22.947-14.59-39.1a55.746,55.746,0,0,1,16.521-31.268c5.627-5.483,12.147-8.312,19.858-7.7,12.61,1,21.448,10.487,21.981,24.118.179,4.554-.312,9.143-.519,14.219,4.969-1.612,8.55-5.148,12.4-8.157,2.241-1.748,4.279-3.859,6.658-5.33,6.653-4.113,14.358-3.127,19.535,2.218,5,5.157,6.293,13.089,3.213,20.409-.788,1.875-1.932,3.574-2.88,5.373-6.008,11.4-12.392,22.587-17.92,34.251-7.383,15.584-14.35,31.418-20.995,47.389-3.128,7.519-5.233,15.561-7.476,23.475-.626,2.212-.093,4.811-.093,7.32,4.2,1.177,7.737-.127,10.846-1.863,6.41-3.579,13.143-6.948,18.661-11.834,11.025-9.761,21.293-20.516,31.938-30.784,2.843-2.74,5.641-5.771,8.947-7.661,6.714-3.836,12.634-.571,13.458,7.6a27.742,27.742,0,0,1-1.623,12.737,106.1,106.1,0,0,1-10.119,19.111c-10.492,15.5-23.27,28.8-36.251,41.793a50.25,50.25,0,0,1-27.97,14.142c-22.882,3.807-42.337-11.823-44.766-36.7-.751-7.669.245-15.538.453-23.8-1.223,1.6-2.449,3.049-3.514,4.629a335.262,335.262,0,0,1-42.323,50.758c-13.276,13.135-27.882,24.294-44.748,31.54-12.719,5.463-25.764,8.03-39.393,4.574a49.978,49.978,0,0,1-21.789-11.745c-2.3,2-4.181,3.825-6.229,5.4-9.7,7.476-19.237,15.246-29.252,22.2a70.663,70.663,0,0,1-28.607,11.381c-21.765,3.758-37.991-9.766-39.542-33.576-.517-7.969.427-16.054.727-24.788-1.071,1.875-2.025,3.395-2.84,5a182.785,182.785,0,0,1-30.84,43.864c-20.771,21.693-45.323,30.158-73.826,25.145-1.663-.291-3.331-.548-5.611-.923-.946,2.541-1.977,5-2.79,7.542-6.546,20.478-13.021,40.983-19.6,61.449a67.551,67.551,0,0,1-4.188,10.816c-4.213,8-12.3,11.2-19.684,8.206-7.066-2.861-11.507-10.836-9.89-19.553a259.644,259.644,0,0,1,6.733-28.09c6.722-22.108,13.905-44.052,20.9-66.061a24.153,24.153,0,0,0,1.5-7.516c-1.042,1.243-2.113,2.46-3.125,3.735-7.359,9.256-14.3,18.958-22.2,27.637a109.692,109.692,0,0,1-18.533,15.728c-14.7,10.251-30.84,14.165-48.259,10.9-2.5-.47-5.017-.848-8.225-1.387-.791,2.054-1.681,4.058-2.347,6.144-5.51,17.2-10.844,34.476-16.5,51.623q-5.907,17.894-12.584,35.491a33.968,33.968,0,0,1-6.184,10.346c-5.382,6.031-12.179,7.539-19.38,4.4-7.266-3.17-10.98-9.492-10.831-17.88a46.144,46.144,0,0,1,2.222-12.826c7.354-23.345,14.944-46.6,22.445-69.889.743-2.307,1.409-4.644,2.518-8.31-2.987,1.592-4.767,2.651-6.624,3.51-5.078,2.353-10.034,5.255-15.32,6.79-11.2,3.251-20.577-.338-27.6-10.533-.629-.911-1.239-1.84-2.206-3.273-1.543,1.494-2.885,2.818-4.249,4.113-6.245,5.91-12.259,12.152-18.813,17.629a60.287,60.287,0,0,1-24.779,12.359c-20.222,4.88-37.261-6.957-41.62-28.895-1.772-8.921-1.361-17.906-.083-26.835a195.975,195.975,0,0,1,11.166-42.468c.794-2.071,1.495-4.185,2.5-7.026-7.684-.906-14.768-1.736-22.556-2.654-.949,2.584-2.017,5.019-2.752,7.563-7.322,25.3-14.4,50.683-21.941,75.9-4.918,16.438-10.425,32.67-15.85,48.926a45.317,45.317,0,0,1-4.7,9.772c-2.979,4.707-7.276,7.127-12.658,6.221-5.345-.9-9-4.479-10.428-9.954a55.977,55.977,0,0,1-1.591-12.93,231.6,231.6,0,0,1,8.579-67.564c4.969-17.634,10.348-35.136,15.541-52.7.757-2.558,1.492-5.122,2.382-8.177a34.705,34.705,0,0,0-4.322-.649c-22.615-.2-45.126.946-67.486,5.053-4.519.831-6.317,3.095-7.838,7.444A821.139,821.139,0,0,0,322.73,427.1c-1.942,11.064-5.134,21.883-8.006,32.737a35.872,35.872,0,0,1-4.007,9.342c-2.393,3.928-6.059,5.8-10.5,5A9.976,9.976,0,0,1,292,466.441a55.817,55.817,0,0,1-1.471-11.557c-.935-24.891,3.059-49.128,8.374-73.2a625.745,625.745,0,0,1,20.457-72c.743-2.123,1.38-4.292,2.294-7.15a28.775,28.775,0,0,0-4.751.761c-21.275,7.557-42.342,15.63-61.142,29.264a30.538,30.538,0,0,1-4.505,2.59c-2.39,1.171-5,2.091-7.111-.26-2.089-2.325-1.247-5.238-.235-7.8a41.307,41.307,0,0,1,3.16-5.988c5.089-8.465,11.912-14.955,19.7-20.406,16.7-11.687,34.818-20.377,52.8-29.35,5-2.495,11.092-3.871,14.654-7.874,3.4-3.822,4.271-10.355,6.067-15.771,6.8-20.539,16.942-39.215,27.318-57.769a32.822,32.822,0,0,0,3.762-8.826c-1.351.9-2.752,1.725-4.047,2.714A388.646,388.646,0,0,1,300.8,224.828c-11.534,5.587-23.444,9.729-36.2,10.533a59.043,59.043,0,0,1-29.867-5.9c-16.186-7.811-23.183-22.249-24.619-40.49-.479-6.092.986-9.261,3.919-9.893,4.226-.909,5.963,2.6,7.884,5.65q2.694,4.287,5.393,8.572c5.355,8.506,13.053,12.146,22.3,12.682,10.252.594,19.991-1.95,29.111-6.6,11.742-5.985,23.361-12.322,34.674-19.195a308.278,308.278,0,0,0,42.853-31.323c5.134-4.488,10.585-8.549,15.762-12.985,11.348-9.723,22.612-19.561,33.912-29.353,5.15-4.465,10.058-9.322,15.517-13.294,7.314-5.321,15.629-4.352,21.1,1.653,5.259,5.769,5.989,14.329,1.6,22.333-10.54,19.221-21,38.465-32.433,57.132-12.336,20.144-23.031,41.473-34.3,62.378-2.339,4.344-4.034,9.1-6.381,14.473,2.1,0,3.472.254,4.737-.04,23.585-5.48,47.487-8.485,71.506-10.355,4.292-.334,6.344-2.028,7.99-6.161,15.067-37.8,34.757-72.883,54.468-107.944,2.211-3.934,4.713-7.687,7.215-11.413a32.267,32.267,0,0,1,4.242-5.14c2.172-2.111,4.721-3.222,7.617-1.653,2.566,1.387,3.647,3.859,3.557,6.821a51.809,51.809,0,0,1-.794,9.608,190.055,190.055,0,0,1-5.052,19.264c-9.738,29.03-19.692,57.977-29.553,86.961-1.018,3-1.91,6.043-3.077,9.749,5.5,1.4,10.666,2.394,15.629,4.067,4.857,1.638,9.517,3.974,14.96,6.3,1.37-1.788,2.995-3.825,4.535-5.936,8.645-11.854,18.477-22.3,30.414-30.282,7.135-4.774,14.691-8.39,23-9.913,5.784-1.059,11.5-.862,16.783,2.328,6.677,4.032,8.534,11.906,4.4,18.191-2.4,3.657-4.167,4.211-7.207,1.145-2.614-2.636-5.275-2.942-8.19-1.687a66.417,66.417,0,0,0-31.21,25.385c-18.768,26.685-31.852,56.079-35.662,89.756-.988,8.748-.714,13.028,1.479,19.028,2.052-.49,4.41-.606,6.381-1.612,4.409-2.25,9.091-4.321,12.818-7.591,6.586-5.783,13.215-11.8,18.634-18.794a258.668,258.668,0,0,0,36.278-62.427,335.891,335.891,0,0,1,32.092-61.219,47.3,47.3,0,0,1,4.809-6.441c3.925-4.153,9.184-4.9,13.492-2.224s6.267,7.914,4.945,13.764a52.385,52.385,0,0,1-2.222,6.472,719.629,719.629,0,0,1-28.543,66.431c-7.319,15-11.459,31.225-14.929,47.663a78.64,78.64,0,0,0-.807,8.1c2.006-.522,3.522-.557,4.673-1.275,4.958-3.1,10.268-5.8,14.622-9.726,18.576-16.726,33.864-36.255,42.981-60.907a446.474,446.474,0,0,1,31.73-67.008c1.46-2.547,2.9-5.108,4.482-7.568,6.642-10.36,13.213-11.09,21.888-1.932,1.657-1.546,3.285-3.251,5.084-4.71,5.947-4.834,11.563-10.34,18.014-14.211,17.441-10.467,33.574-5.039,43.242,13.888a64.356,64.356,0,0,1,7.13,29.809,58.5,58.5,0,0,0,.73,11.191c.911-1.935,1.86-3.853,2.728-5.812,6.541-14.75,12.984-29.555,19.655-44.236a64.055,64.055,0,0,1,6.2-10.438c2.339-3.291,5.521-5.163,9.536-3.689,3.219,1.18,5.145,4.517,4.441,9.682-1.111,8.183-2.907,16.262-4.476,24.369-.514,2.659-1.228,5.275-.943,8.535,1.521-2,3.083-3.963,4.559-6,8.827-12.195,18.11-23.96,29.825-33.037A116.719,116.719,0,0,1,889.8,156.436c13.642-6.977,24.973-1.67,29.883,13.873a111.028,111.028,0,0,1,4.415,43.677c-.445,5-1.063,9.974-.762,15.269.887-2,1.841-3.96,2.651-5.991,5.15-12.91,10.122-25.9,15.442-38.73,4.212-10.147,9.419-19.708,17.148-27.256a32.228,32.228,0,0,1,8.912-6.51c6.674-2.979,11.673,1.4,10.631,9.106a81.862,81.862,0,0,1-2.672,10.649c-2.862,10.369-5.859,20.7-8.635,31.1-4.49,16.827-8.963,33.665-13.212,50.567-2.068,8.217-3.744,16.562-5.331,24.906-.626,3.3-.533,6.752-.842,11.2,3.647-1.047,6.539-1.543,9.189-2.685,14.782-6.374,27.749-16.06,40.429-26.253,1.908-1.534,2.518-3.4,2.486-5.936-.362-29.316,8.614-55.658,22.346-80.353a79.144,79.144,0,0,1,10.86-15.318c9.046-9.752,18.384-19.229,28.056-28.251a58.36,58.36,0,0,1,34.89-15.561,27.361,27.361,0,0,1,15.552,2.879c13.082,6.746,18.155,19.907,12.877,34.49a87.15,87.15,0,0,1-7.78,16.608c-7.05,11.234-13.985,22.693-22.2,32.9-14.825,18.416-30.549,35.981-45.9,53.9C1046.834,256.347,1045.433,257.977,1043.261,260.5ZM896.139,180.182c-2.728,1.667-4.753,2.734-6.61,4.073-10.052,7.24-17.912,16.859-25.37,27.008-20.8,28.318-36.786,59.725-51.025,92.274a15.975,15.975,0,0,0-.639,2.423c.671.262,1.106.617,1.417.519,1.625-.511,3.232-1.113,4.828-1.73,14.9-5.774,27.541-15.414,38.988-27,20-20.233,33.842-44.236,38.167-73.973A88.965,88.965,0,0,0,896.139,180.182ZM688.692,312.969a16.945,16.945,0,0,0,2.933-.461c1.537-.787,3.053-1.627,4.564-2.469,12.648-7.041,23.265-17.014,33.337-27.637,15.53-16.374,25.386-36.777,33.864-58.012,1.492-3.735,2.07-7.981,2.587-12.062.482-3.827.4-7.764-2-11.572-4.527,1.422-8.078,4.292-11.409,7.456-12.69,12.062-24.27,25.226-33.094,40.919-6.637,11.8-13.271,23.634-19.261,35.826C695.966,293.6,692.793,302.874,688.692,312.969Zm347.458-90.033a29.6,29.6,0,0,0,2.689-2.1c9.807-10.239,19.7-20.386,29.361-30.784,11.406-12.273,20.321-26.61,28.5-41.508,1.105-2.016,1.875-4.251,3.21-7.338-9.339,1.379-16.434,4.782-22.394,10.585-6.648,6.467-13.055,13.224-19.447,19.988-12.536,13.265-18.267,30.247-22.162,48.191A13.848,13.848,0,0,0,1036.15,222.936ZM1186.928,93.166c-4.255,5.621-4.369,6.458-1.958,10.193C1185.674,99.7,1186.3,96.431,1186.928,93.166Z" transform="translate(-123.989 -50.137)" fill="#2b9587"/>
            <path id="Path_1345" data-name="Path 1345" d="M963.131,385.066c-6.36,10.326-13.056,20.426-19.01,31.018-13.175,23.429-25.863,47.178-39,70.63A158.858,158.858,0,0,1,892.8,505.2c-9.586,12.572-21.366,12.033-30.224-1.03a15.683,15.683,0,0,0-1.385-1.425c-1.623,1.635-3.272,3.3-4.924,4.967-8.211,8.28-17.718,13.559-29.065,14.271-16.615,1.044-29.908-9.135-34.677-26.391-.53-1.921-.992-3.868-1.713-6.7-1.564,1.878-2.569,3.2-3.688,4.4-5.118,5.494-9.754,11.722-15.514,16.267-14.5,11.448-35.529,11.318-47.167-7.762a12.6,12.6,0,0,1-.9-2.691l-1.445.961c-1.074,2.175-2.2,4.32-3.21,6.53a73.277,73.277,0,0,1-34.135,35.967,100.2,100.2,0,0,1-18.622,6.813c-5.954,1.664-12.027-2.526-15.008-10.089a60.94,60.94,0,0,1-4.279-29.745,258.623,258.623,0,0,1,5.265-30.53c5.446-22.281,11.529-44.38,17.329-66.561.57-2.181.986-4.4,1.814-8.159a51.187,51.187,0,0,0-4.012,3.545A248.774,248.774,0,0,0,628.6,466.844c-10.311,22.039-20.217,44.193-27.4,67.691a45.657,45.657,0,0,1-3.591,8.829c-3.722,6.683-10.231,9.659-16.929,8.136-6.634-1.506-11.739-7.161-12.437-14.831a55.646,55.646,0,0,1,.549-13.747c4.578-28.384,9.387-56.722,14.089-85.083.746-4.5,1.327-9.034,2.158-14.721-2.044,1.387-3.357,1.958-4.266,2.959-3.879,4.269-7.745,8.561-11.4,13.049-2.387,2.93-4.332,6.279-6.6,9.328-13.769,18.5-24.083,38.7-29.593,62.047-3.077,13.049-8.915,25.37-13.868,37.853a41.6,41.6,0,0,1-12.842,17.8,25.945,25.945,0,0,1-9.064,4.7c-5.5,1.431-10.721-1.534-13.458-6.856-.9-1.748-1.513-3.669-2.5-6.1a55.551,55.551,0,0,1-4.319,4.43c-5.078,4.121-9.818,9.088-15.456,11.975-13.21,6.769-27.019.563-32.692-14.049-1.463-3.773-2.065-7.952-2.918-11.978-.464-2.192-.615-4.462-1.052-7.8-1.631,2.12-2.7,3.383-3.639,4.759-4.673,6.865-9.059,13.977-14.012,20.594a75.2,75.2,0,0,1-31.149,24.609c-21.227,9.008-40.493-3.374-43.658-27.836-1.177-9.1.04-18,2.009-26.734A459.31,459.31,0,0,1,363.95,446.83a93.369,93.369,0,0,1,7.66-13.524,18.436,18.436,0,0,1,6.248-5.708c5.87-3.2,11.585.594,11.4,7.716-.117,4.54-1.249,9.082-2.182,13.562-5.838,28.1-11.811,56.171-17.579,84.29-1.143,5.567-1.583,11.3-2.483,17.972,2.206-.909,3.73-1.1,4.684-2,4.8-4.52,9.96-8.748,14.057-13.943,14.867-18.849,26.481-40.074,37.661-61.617,9.906-19.085,20.172-37.951,30.352-56.867a35.826,35.826,0,0,1,4.556-6.64c4.679-5.319,11.092-6.836,16.956-4.075,6.109,2.873,9.131,8.223,9.237,15.252a50.849,50.849,0,0,1-1.319,10.23c-4.615,23.913-9.312,47.807-13.94,71.718a13.773,13.773,0,0,0,.235,6.856c.9-1.156,1.873-2.264,2.7-3.481,18.994-27.761,33.8-58.075,46.53-89.646,2.046-5.068,4.029-10.17,6.149-15.2a39.192,39.192,0,0,1,3.109-6.025c4.708-7.289,12.378-10.162,19.615-7.491,7.116,2.628,11.46,10.167,10.94,19.1-.133,2.261-.437,4.511-.781,7.958,1.982-1.812,3.2-2.9,4.388-4.015,7.06-6.651,13.735-13.873,21.254-19.85,15.573-12.385,29.952-5.572,32.524,15.272.837,6.8.3,13.793.373,20.7.021,1.976,0,3.952,0,6.995a20.907,20.907,0,0,0,2.2-2.544c6.733-12.117,15.2-22.771,23.771-33.359,4.913-6.068,9.562-12.385,14.4-18.52,4.737-6.005,10.082-11.278,16.575-15,11.992-6.876,23.929-2.388,28.487,11.471a70.976,70.976,0,0,1,3.1,19.613c.639,19.746-3.043,39-6.946,58.144-2.7,13.279-5.827,26.46-8.739,39.69a12.365,12.365,0,0,0,.005,6.527c1.727-3.242,3.728-6.351,5.134-9.749,9.874-23.842,22.42-46.074,34.911-68.343,6.549-11.673,13.95-22.633,23.012-32.192,13.479-14.214,29.7-22.941,47.857-27.675,6.832-1.78,13.525-1.912,19.839,3.931,1.082-2.426,1.894-4.45,2.864-6.386,3.037-6.063,5.9-12.255,9.293-18.082,2.465-4.234,6.229-6.879,11.132-7.075,6.927-.277,12.458,4.946,12.789,12.408a22.46,22.46,0,0,1-.773,6.81c-7.484,27.158-15.192,54.245-22.548,81.44-3.411,12.6-6.23,25.385-9.208,38.116a36.153,36.153,0,0,0-.906,7.522c-.11,6.247,2.28,8.024,7.569,5.223a27.777,27.777,0,0,0,8.222-6.386,146.178,146.178,0,0,0,11.926-16.181c11.8-18.759,20.849-39.088,28.641-60.114q9.516-25.669,19.333-51.2a64.1,64.1,0,0,1,5.654-11.58c4.617-7.2,12.387-9.611,19.109-6.467,6.738,3.153,10.282,10.793,8.518,19.55-1.815,9-4.135,17.882-6.168,26.832a16.527,16.527,0,0,0-.235,6.939c1.276-1.736,2.579-3.452,3.823-5.218,11.633-16.515,23.726-32.621,37.506-47.118a126.968,126.968,0,0,1,15.5-14.369c12.866-9.639,27.662-1.667,28.333,15.246a73.852,73.852,0,0,1-1.775,17.1c-5.392,27.037-10.729,54.095-18.363,80.541-1.457,5.053-2.52,10.245-3.621,15.411-.453,2.132-.522,4.358-.9,7.776,3.176-1.661,5.292-2.625,7.284-3.833,15.72-9.547,29.505-21.843,42.43-35.315,4.756-4.955,9.2-10.256,13.874-15.307,5.049-5.457,10.8-9.74,17.865-11.56,6.122-1.575,8.347.3,8.323,7.2a41.123,41.123,0,0,1-6.581,22.082c-7.471,11.756-14.713,23.83-23.377,34.51-9.24,11.387-19.794,21.577-30.19,31.794A63.121,63.121,0,0,1,986.127,503.2c-19.4,4.866-34.988-5.9-39-27a67.741,67.741,0,0,1,1.279-29.466c3.543-14,7.6-27.845,11.435-41.756q2.626-9.514,5.23-19.037Zm-153.208,5.148c-3.171.309-5.739.2-8.129.857-11.2,3.092-20.968,8.811-28.479,18.621a140.1,140.1,0,0,0-24.821,51.758,90.072,90.072,0,0,0-2.286,12.183c-.461,4.277-1.447,9.5,2.872,11.849,4.188,2.281,7.953-1.137,10.705-4.191A96.919,96.919,0,0,0,770.6,466.852c6.552-10.781,12.97-21.69,18.864-32.9,6.522-12.406,12.418-25.2,18.522-37.859A52.413,52.413,0,0,0,809.923,390.214Z" transform="translate(79.165 430.713)" fill="#2b9587"/>
            <path id="Path_1346" data-name="Path 1346" d="M428.783,528.345c-2.68,0-4.564-.159-6.418.023-21.632,2.1-43.256,4.341-64.9,6.311-3.815.349-5.491,2.128-6.671,5.924-11.427,36.682-24.518,72.756-34.136,110.1-1.2,4.647-2.872,9.16-4.5,13.663a28.961,28.961,0,0,1-3.008,6.069c-2.243,3.386-5.323,5.405-9.309,4.724a9.414,9.414,0,0,1-7.985-7.923,43.517,43.517,0,0,1-.746-13.675c2.161-15.246,4.585-30.467,7.482-45.569,4.114-21.436,8.739-42.757,13.124-64.129.224-1.09.224-2.232.413-4.243-2.155,0-3.983.113-5.8-.02-9.117-.663-18.243-1.263-27.342-2.181a16.856,16.856,0,0,1-6.591-2.431c-5.286-3.118-6.328-8.785-2.712-14a18.453,18.453,0,0,1,11.27-7.355c7.887-1.912,15.848-3.461,23.785-5.128,4.6-.963,9.192-1.955,13.815-2.761a5.423,5.423,0,0,0,4.644-4.026q13.237-38.929,26.55-77.827a9.713,9.713,0,0,0-.08-2.567c-2.161,1.361-3.959,2.452-5.715,3.608-17.966,11.817-37.069,20.735-57.553,25.944-10.031,2.55-20.215,3.288-30.411.836-7.228-1.739-13.764-4.97-18.786-11.03-4.886-5.892-6.693-12.676-4.471-20.49,1.657-5.821,7.8-10.406,12.349-3.36,2.251,3.481,5.835,3.894,9.2,3.591,5.92-.534,12.011-.882,17.651-2.691,37.845-12.128,71.517-31.972,98.528-63.786,5.813-6.847,10.665-14.286,13.713-23.115a54.993,54.993,0,0,1,5.952-12.172c3.847-5.846,9.307-8.76,16.1-7.456,7.985,1.535,13.223,9.166,12.208,18.232-.426,3.822-1.772,7.565-2.981,11.234Q395.264,401.879,375,463.054c-2.723,8.249-5.286,16.559-7.894,24.848-.672,2.131-1.237,4.3-2.017,7.041a40.338,40.338,0,0,0,4.3-.02c22.423-2.777,44.828-5.714,67.27-8.272,3.97-.45,5.848-2.031,7.329-5.976,10.81-28.831,21.523-57.715,32.969-86.252,5.837-14.554,13.01-28.491,19.836-42.563a71.05,71.05,0,0,1,7.314-11.289,18.6,18.6,0,0,1,5.361-4.808c6.109-3.588,11.848-.035,12.128,7.439a23.833,23.833,0,0,1-.7,6.839c-3.312,12.619-6.5,25.292-10.241,37.764-9.277,30.905-18.837,61.709-28.264,92.559a34.2,34.2,0,0,0-.6,3.548c2.451.219,4.671.323,6.863.637,4.2.6,8.614.632,12.546,2.114,10.967,4.139,13.255,17.666,4.484,25.961a25.41,25.41,0,0,1-8.752,5.506,185.18,185.18,0,0,1-22.764,6.605c-4.061.854-6.291,2.3-7.647,6.7-10.013,32.581-20.239,65.083-30.443,97.592-1.988,6.322-4.111,12.6-6.307,18.84a32.438,32.438,0,0,1-2.941,6.118c-2.555,4.171-6.114,6.4-10.865,5.521-4.463-.828-7.33-3.94-8.284-8.523a37.762,37.762,0,0,1-.887-11.6c1.087-9.824,2.273-19.694,4.29-29.33,5.369-25.618,11.2-51.127,16.831-76.681C428.21,532.06,428.381,530.719,428.783,528.345Z" transform="translate(-87.763 419.48)" fill="#2b9587"/>
            <path id="Path_1347" data-name="Path 1347" d="M546.626,77.2c-.682,3.228-1.186,9.628-3.4,15.232-3.837,9.7-8.569,19-13.287,28.257a22.449,22.449,0,0,1-6.083,6.971c-8.2,6.524-18.565,2.431-21.083-8.264a27.3,27.3,0,0,1-.676-8.217c1.015-13.028,4.217-25.382,10.575-36.607a39.016,39.016,0,0,1,12.317-13.8c4.815-3.158,9.9-4.427,15.131-1.3C545.465,62.678,546.669,68.181,546.626,77.2Z" transform="translate(361.997 -57.673)" fill="#2b9587"/>
            <path id="Path_1348" data-name="Path 1348" d="M537.886,228.332c1.95-14.589,5.92-27.063,14.352-37.45,3.435-4.231,7.668-7.3,12.973-8.168,8.533-1.393,14.973,4.214,14.568,13.5a35.964,35.964,0,0,1-3.277,13.85c-4.574,9.331-9.94,18.208-15.091,27.2a16.2,16.2,0,0,1-3.472,4.012c-6.054,5.281-14.387,3.521-17.811-4.041C538.773,234.239,538.453,230.691,537.886,228.332Z" transform="translate(421.685 177.542)" fill="#2b9587"/>
          </g>
        </g>
        <g id="Layer_18_Image" data-name="Layer 18 Image" transform="translate(38.088 496.901)">
          <g id="Group_1406" data-name="Group 1406">
            <path id="Path_1349" data-name="Path 1349" d="M1432.619,552.433c-1.066-.883-1.844-1.65-2.725-2.235-17.132-11.332-26.607-28.182-29.788-49.281-3.352-22.218.578-43.129,10.8-62.661a44.472,44.472,0,0,1,12.795-15.232c16.958-12.662,37.918-6.813,46.988,13.187,4.295,9.466,5.763,19.728,6.65,30.095.3,3.435.208,6.911.352,10.363.077,1.831-.139,3.848.492,5.448,3.083,7.811,2.609,15.751,1.247,23.792a15.336,15.336,0,0,0-.085,2.688c0,.193.211.383.488.851a38.017,38.017,0,0,0,4.095-1.356c25.258-11.465,46.786-28.1,63.068-52.35a99.144,99.144,0,0,1,14.249-16.651c5.592-5.278,8.726-3.781,10.9,4.047,2.937,10.565.938,20.565-3.258,30.184a116.651,116.651,0,0,1-22.418,33.42c-22.306,23.669-47.964,41.225-78.588,49.4-3.12.83-4.577,2.717-5.685,5.716-17.811,48.208-38.775,94.855-59.919,141.408Q1325.15,873.1,1204.54,1010.119c-47.873,54.066-100.593,101.688-161.817,137.277-70.1,40.752-143.744,70.925-222.753,84.186-51.4,8.627-103.079,9.588-154.884,5.625-33.19-2.538-66.169-6.68-98.594-15.1-48.718-12.651-93.959-34.317-136.8-62.056-48.859-31.641-91.387-71.533-129.08-117.563-5.931-7.24-11.7-14.681-17.017-22.454a736.4,736.4,0,0,1-55.871-96.649c-18.048-37.524-27.438-77.821-32.391-119.507-3.488-29.362-3.885-58.822-2.718-88.374,2.438-61.686,9.592-122.645,23.193-182.656,7.276-32.088,18.341-62.845,28.354-93.97,8.544-26.555,16.924-53.174,25.559-79.7,6.443-19.78,13.231-39.425,19.764-59.168,5.025-15.183,9.818-30.455,14.875-45.627,2.089-6.27,4.337-12.515,7.01-18.511,2.174-4.883,5.11-6.513,8.5-5.74,4.167.949,6.021,4.364,6.5,8.434a49.529,49.529,0,0,1-.021,10.989,453.571,453.571,0,0,1-10.623,58.286c-9.576,39.454-18.68,79.046-28.333,118.48-5.454,22.278-11.67,44.337-17.443,66.526-9.562,36.757-14.444,74.388-18.139,112.273a1113.413,1113.413,0,0,0-5.137,122.227,465.277,465.277,0,0,0,11.776,97.861c6.221,27.288,15.61,53.238,29.145,77.186,12.107,21.424,25.112,42.26,37.836,63.269a131.971,131.971,0,0,0,8.521,12.1C390.57,1051.179,458.7,1107.59,541.54,1142.228c31.594,13.21,64.472,20.631,97.92,25.589a635.244,635.244,0,0,0,138.973,5.688c58.117-4.162,113.981-18.757,168.238-41.323,29.87-12.425,59.021-26.405,87.052-43.2,54.614-32.719,101.712-75.684,144.57-124.284a1347.735,1347.735,0,0,0,165.02-231.881c31.82-56.636,60.483-114.962,87.028-174.6C1431.156,556.387,1431.817,554.48,1432.619,552.433Zm17.625-41.966c6.623-12.881,12.032-25.7,7.487-40.752-1.253-4.153-2.071-8.463-3.317-12.619a27.052,27.052,0,0,0-2.771-6.2c-3.629-5.95-8.361-5.993-11.2.378a65.607,65.607,0,0,0-4.6,15.725c-1.9,11.4-.943,22.569,4.623,32.8C1442.824,504.118,1445.435,508.321,1450.244,510.466Z" transform="translate(-192.03 -229.952)" fill="#2b9587"/>
            <path id="Path_1350" data-name="Path 1350" d="M378.528,536.539c1.982-24.842,5.769-49.3,14.763-72.439a60.2,60.2,0,0,1,8.547-15.243c8.673-11.012,21.922-9.333,28.634,3.193a38.285,38.285,0,0,1,4.186,17.179,69.7,69.7,0,0,1-3.791,24.36c-2.1,6.265-4.38,12.478-6.871,18.572-5.084,12.437-9.682,25.021-12.251,38.4a28.071,28.071,0,0,1-2.712,7.675,9.668,9.668,0,0,1-8.947,5.567c-13.26.008-20.707-7.488-21.544-21.745C378.435,540.225,378.528,538.379,378.528,536.539Z" transform="translate(118.308 168.726)" fill="#2b9587"/>
            <path id="Path_1351" data-name="Path 1351" d="M435.888,532c2.267-15.229,4.231-30.519,6.9-45.667,2.043-11.638,6.661-22.284,12.424-32.4,5.43-9.541,13.253-13.9,23.34-14.217,5.193-.161,9.314,3.173,10.01,9.429a86.51,86.51,0,0,1-.133,15.82c-2.187,29.25-11.428,56.636-19.3,84.377a44.543,44.543,0,0,1-3.472,8.892c-5.739,10.692-18.618,11.225-24.589.646-2.339-4.144-3.279-9.414-4.071-14.321-.647-4.023-.133-8.266-.133-12.414Z" transform="translate(213.837 165.288)" fill="#2b9587"/>
          </g>
        </g>
      </g>
      <g id="Group_1415" data-name="Group 1415" transform="translate(1213.506)" opacity="0.299">
        <g id="Layer_9_Image-2" data-name="Layer 9 Image" transform="translate(0 0)">
          <g id="Group_1405-2" data-name="Group 1405">
            <path id="Path_1343-2" data-name="Path 1343" d="M606.5,511.7c9.525-4.84,17.326-10,23.606-17.3a241.394,241.394,0,0,0,36.76-57.1c9.736-21.271,19.247-42.667,29.284-63.769,3.189-6.7,7.593-12.772,11.768-18.866a19.647,19.647,0,0,1,6.24-5.76c8.041-4.6,17.824.689,18.778,10.473a27.117,27.117,0,0,1-1.817,12.731c-14.656,34.034-26.332,69.586-44.068,102.057-3.25,5.947-4.114,12.434-4.412,19.91a24.772,24.772,0,0,0,4.279-1.257c7.825-4.052,14.174-10.138,19.857-17.115,26.673-32.748,51.169-67.267,72.51-104.356,6.53-11.35,13.172-22.63,19.535-34.089a157.261,157.261,0,0,0,8.654-17.7c7.583-18.921,17.566-36.339,28.013-53.472a27.736,27.736,0,0,1,6.544-7.421c4.545-3.5,9.6-3.634,14.425-.424,4.62,3.077,6.517,7.822,6,13.559a32.785,32.785,0,0,1-1.668,7.346c-3.333,9.968-6.794,19.884-10.2,29.826-.509,1.488-.957,3-1.561,4.912a11.477,11.477,0,0,0,2.675.176c10.247-2,20.457-4.277,30.747-5.976,3.752-.617,5.878-2.14,7.74-5.806,9.125-17.969,18.368-35.88,28.066-53.489a102.033,102.033,0,0,1,12.909-17.94c7.559-8.578,13.082-9.022,22.687-3.216.328.2.8.107,1.689.2.5-4.049.8-8.162,1.542-12.183,2.206-11.975,4.564-23.917,6.917-35.86a22.093,22.093,0,0,1,1.409-4.572c3.645-8.333,12.288-9.85,17.566-2.579,2.67,3.677,4.369,8.408,5.718,12.936,2.478,8.327,3.887,17.052,6.647,25.252,2.83,8.393,6.632,16.417,10.253,24.476,1.071,2.385,2.971,4.332,4.865,7.006,1.471-1.967,2.558-3.268,3.488-4.69,3.69-5.645,7.178-11.454,11.02-16.971,9.253-13.3,21.647-22.166,35.849-27.877,12.6-5.068,24.4-2.134,34.839,6.735,7.386,6.276,10.466,15.03,10.434,24.952-.058,16.8-3.783,32.884-13.074,46.244-17.893,25.742-41.438,40.668-72.185,39.35-4.018-.173-8.012-.955-12.877-1.563l-5.691,11.4.831.8c2.041-1.044,4.05-2.172,6.128-3.112,11.459-5.18,22.389,1.136,24.491,14.378a28.559,28.559,0,0,1-.08,10.262c-2.545,11.641-5.182,23.282-8.417,34.715-5.3,18.728-11.156,37.271-16.631,55.941-1.124,3.839-1.612,7.894-2.4,11.852l1.268.782c2.233-2.307,4.6-4.482,6.677-6.945,13.572-16.1,24.493-34.236,34.613-52.984,7.948-14.733,15.688-29.6,23.923-44.141,5.672-10.011,11.987-19.6,18.123-29.3a30.52,30.52,0,0,1,5.02-6.219c4.215-3.851,9.109-4.97,14.339-2.725,5.2,2.229,8.257,6.588,8.846,12.518a31.139,31.139,0,0,1-.565,10.268c-1.907,7.782-4.055,15.526-6.629,23.077-7.012,20.588-13.181,41.413-16.335,63.154-.559,3.865-.788,7.787-1.092,11.69a23.731,23.731,0,0,0,.429,3.663,75.319,75.319,0,0,0,8.531-2.071c10.183-3.747,19.021-10.112,27.968-16.443,7.188-5.085,10.687-10.392,10.026-20.525-1.116-17.127,4.343-33.181,11.294-48.424,8.968-19.668,21.5-36.524,36.187-51.467,9.352-9.512,20.438-15.719,33.227-18.027a38.247,38.247,0,0,1,28.825,6.149c10.061,6.689,14.644,16.712,12.882,29.327a66.259,66.259,0,0,1-5.121,16.965,125.484,125.484,0,0,1-23.073,35.485c-13.122,14.133-26.886,27.568-40.4,41.28-1.673,1.7-3.477,3.245-6.243,5.806,2.867.375,4.543,1.076,5.971.692,5.337-1.433,10.985-2.391,15.781-5.073a105.119,105.119,0,0,0,19.146-13.617,206.044,206.044,0,0,0,40.237-49.777c11.193-19.342,22.01-38.938,33.038-58.39a79.343,79.343,0,0,0,7.847-19.567c1.705-6.622,4.38-12.959,6.735-19.377a28.023,28.023,0,0,1,2.494-4.82c4.751-7.773,12.109-10.816,19.255-8.027,6.864,2.68,11.023,9.9,10.242,18.754-.4,4.554-1.689,9.013-2.491,13.536-1.4,7.914-3.016,15.8-4.023,23.778-.778,6.164.767,7.427,6.471,6.42,6.086-1.076,11.182-4.237,15.629-8.794a52.5,52.5,0,0,1,6.789-6.262c5.88-4.188,13.343-4.087,18.621.159,5.683,4.566,7.873,10.891,6.442,18.278a35.709,35.709,0,0,1-3.957,10.851c-4.394,7.614-9,15.119-14.014,22.267-11.761,16.784-21.419,34.955-30.6,53.44-2.254,4.54-4.852,9.181-4.276,15.546,2.27-.225,4.447.006,6.317-.7,6.4-2.435,13.029-4.529,18.965-7.972a170.972,170.972,0,0,0,38.54-30.559,38.007,38.007,0,0,1,9.666-7.738c7.708-4,15.062.285,15.871,9.475a30.058,30.058,0,0,1-1.985,14.038,96.156,96.156,0,0,1-11.187,19.2c-14.172,18.748-31.789,33.3-50.447,46.385a42.979,42.979,0,0,1-26.745,7.842c-24.083-.854-40.768-21.528-38.345-47.492a71.381,71.381,0,0,1,6.6-24.43c5.209-10.825,10.895-21.384,16.444-32.015,2.19-4.2,4.561-8.286,7.114-12.9-5.057-2.449-9.792-4.739-15.069-7.3-.93,1.491-2.049,3.083-2.974,4.8-5.989,11.162-11.827,22.425-17.926,33.521a247.113,247.113,0,0,1-45.933,59.907,133.708,133.708,0,0,1-27.73,20.876,68.863,68.863,0,0,1-40.243,8.428,43.2,43.2,0,0,1-25.657-11.226c-.8-.724-1.71-1.318-2.99-2.3-2.651,2.293-5.323,4.505-7.9,6.844A127.27,127.27,0,0,1,1116.8,463.9c-10.228,4.762-20.774,6.619-31.831,4.234-13.167-2.841-22.716-10.092-26.254-24.839a8.849,8.849,0,0,0-1.039-1.69c-1.135,1.356-2.254,2.53-3.2,3.848-5.859,8.2-11.425,16.671-17.574,24.606a66.888,66.888,0,0,1-27.9,21.312c-23.2,9.469-42.03-4.938-41.436-31.845.325-14.707,4.138-28.684,8.87-42.307,5.622-16.178,11.736-32.157,17.638-48.219.528-1.439,1.063-2.873,2.126-5.748-2.432,1.777-3.786,2.648-5.014,3.692-2.174,1.855-4.231,3.871-6.408,5.72a114.672,114.672,0,0,0-29.8,38.147c-10.468,21.678-23.859,41.462-38.015,60.561-9.555,12.893-20.588,23.962-34.04,31.992-6.778,4.047-13.871,7.115-21.746,7.358-12.051.369-21.576-4.419-27.694-16.071a22.7,22.7,0,0,0-1.43-2.259c-.1-.141-.373-.144-1.069-.387-1.236,1.462-2.584,3.152-4.023,4.745-6.546,7.242-12.853,14.77-19.756,21.592A45.09,45.09,0,0,1,783.938,530.6c-16.213,3.222-29.846-4.915-35.542-21.7-1.727-5.091-2.569-10.536-4.09-16.989-2.472,2.9-4.46,5.163-6.373,7.493-9.408,11.459-19.633,21.886-32.7,28.295a86.775,86.775,0,0,1-17.377,6.7c-12.2,2.965-23.31.663-31.884-10.26a7.585,7.585,0,0,0-1.844-1.194q-2.342,2.284-4.695,4.577c-7.793,7.586-16.082,14.433-25.631,19.253-20.5,10.34-40.027,2.146-48.872-20.421-.576-1.465-1.138-2.936-1.966-5.079-1.556,1.278-2.853,2.23-4.031,3.331-7.732,7.231-15.208,14.814-23.212,21.67a74.973,74.973,0,0,1-40.4,17.545c-19.255,2.391-35.433-8.327-42.265-27.992-4.316-12.428-4.532-25.327-2.909-38.22,1.26-10.006,3.384-19.884,5.291-30.775-2.275.4-4.441.828-6.621,1.151a100.245,100.245,0,0,1-11.4,1.5c-3.866.124-5.507,1.979-6.522,5.924Q435.743,495.4,429.989,515.2a436.834,436.834,0,0,1-25.487,66.33,67.926,67.926,0,0,1-6.85,11.621c-3.77,5-8.777,7.268-14.806,5.2-5.526-1.9-9.11-7.127-8.966-14.421a127.825,127.825,0,0,1,1.924-19.2c5.057-29.247,11.174-58.231,18.941-86.791.589-2.166,1.044-4.376,1.761-7.4-2.539,0-4.407-.13-6.256.02-23.143,1.869-46.28,3.845-69.43,5.616-4.311.329-6.28,2.385-7.316,6.9q-10.491,45.626-21.379,91.143c-3.211,13.377-6.831,26.639-10.471,39.889a33.736,33.736,0,0,1-4.013,9.348c-5.326,8.186-15.981,7.269-19.692-1.892-1.561-3.859-1.927-8.471-2.1-12.775-.839-21.116,1.769-41.894,6.235-62.384,3.861-17.718,8.193-35.315,12.328-52.964.517-2.2,1.09-4.393,1.814-7.306a30.02,30.02,0,0,0-4.655.545c-12.126,3.542-24.2,7.277-36.358,10.692a89.574,89.574,0,0,1-13.788,2.628c-3.1.361-6.839.7-8.321-3.311-1.513-4.09,1.428-6.521,4.092-8.39,9.453-6.622,18.645-13.879,28.674-19.3,11.771-6.365,24.28-11.136,36.534-16.431,2.861-1.237,5.094-2.469,6.389-5.956,7.479-20.1,15.227-40.077,22.868-60.106a8.777,8.777,0,0,0,.6-4.846c-1.785,1.526-3.581,3.04-5.355,4.583-18.392,15.97-38.694,27.678-62.069,32.448-15.2,3.1-30.166,2.78-44.34-4.822-12.9-6.92-20.963-18.01-22.628-33.683a28.966,28.966,0,0,1,1.655-12.749c2.736-7.222,9.237-8.223,14.47-2.873a23.931,23.931,0,0,1,2.544,3.1c5.4,7.8,12.837,11,21.584,11.471,12.826.7,24.976-2.5,36.749-7.554a128.2,128.2,0,0,0,40.466-27.283c12.2-12.2,24.144-24.707,36.134-37.152,6.456-6.7,12.754-13.579,19.173-20.326a23.988,23.988,0,0,1,4.447-3.9c8.566-5.327,19.09.263,20.169,10.894a34.522,34.522,0,0,1-.826,10.239c-3.125,15.125-8.345,29.489-13.695,43.83-10.681,28.641-21.1,57.4-31.6,86.116-.464,1.26-.751,2.6-1.25,4.358a26.429,26.429,0,0,0,5.137-.043,449.166,449.166,0,0,1,71.026-8.886c4.817-.248,6.933-2.192,8.675-6.928,8.6-23.337,17.057-46.766,26.617-69.647,6.562-15.7,14.728-30.634,22.45-45.745a43.211,43.211,0,0,1,7.218-9.611c3.024-3.213,6.775-4.97,11.06-2.729,3.994,2.088,5.393,6.095,4.87,10.4-.935,7.739-1.833,15.6-3.882,23.042-6.746,24.513-14.076,48.84-21.024,73.292-2.622,9.227-4.809,18.6-7.434,28.84l25.634,5.5c.911-1.465,2.1-3.331,3.25-5.232a153.994,153.994,0,0,1,32.686-38.554c9.733-8.206,20.55-14.1,32.758-16.3a39.405,39.405,0,0,1,14.558-.072c12.368,2.512,21.048,13.507,21.813,27.914a60.547,60.547,0,0,1-1.865,19.775c-10.705,36.576-32.659,62.049-66.081,75.259-6.456,2.553-13.612,3.034-21,4.592a43.257,43.257,0,0,0,1.625,19.691c1.593,4.82,3.946,6.138,9.078,5.264,9.008-1.537,17.443-4.906,24.173-11.678,8.569-8.618,17.143-17.323,24.885-26.786,7.6-9.3,14.276-19.51,21.128-29.506a41.024,41.024,0,0,0,4.727-9.737c9.2-26.706,24.8-48.785,42.947-68.859,12.856-14.225,29.433-19.818,47.346-21.1a21.332,21.332,0,0,1,9.879,2.074c5.153,2.328,7.812,7.113,7.886,13.138s-2.582,10.689-7.588,13.377a19.684,19.684,0,0,1-7.281,2.348,26.906,26.906,0,0,0-17.657,8.791c-6.893,7.482-14.028,14.972-19.573,23.582-9.607,14.92-18.107,30.68-26.984,46.148a14.438,14.438,0,0,0-2.03,5.76q-1.135,14.083-1.753,28.209C605.066,506.1,605.884,508.319,606.5,511.7ZM841.725,329.249c-1.489,2.726-2.632,4.641-3.615,6.645-10.586,21.56-20.646,43.446-31.858,64.614-9.829,18.552-16.934,38.179-22.695,58.45-2.3,8.093-3.5,16.576-4.9,24.94-.418,2.512.179,5.227.381,9.333,3.727-2.72,6.445-4.4,8.838-6.507a120.241,120.241,0,0,0,23.215-28.338c21.821-36.065,42.206-73.033,59.356-112,.7-1.586,1.122-3.314,1.719-5.114-5.648-1.188-10.862-2.157-16.021-3.4A26.754,26.754,0,0,1,841.725,329.249ZM952.719,341.1c-10.2,4.822-19.977,2.754-29.694,2.437-1.916-.064-3.847.014-5.742-.237-3.168-.418-5.134.943-6.677,3.949-3,5.841-6.112,11.627-9.472,17.231-18.019,30.066-27.712,63.616-35.236,98.086-.413,1.895-.57,3.856-1.033,7.072,2.779-1.944,4.569-3.078,6.245-4.387,7.5-5.867,13.473-13.36,19.138-21.188,22.906-31.649,41.686-66.278,61.741-99.989A18.877,18.877,0,0,0,952.719,341.1Zm9.536-14.15c6.674-12.353,12.52-23.175,18.693-34.6-13.111-11.384-20.635-26.135-24.331-43.775-8.342,19.247-16.25,37.487-24.536,56.6C946.194,305.358,959.46,306.348,962.254,326.947Zm-414.067,84.1c-15.906,3.23-42.7,34.712-45.6,53.082C521.893,459.538,545.513,432.3,548.188,411.05ZM1182.22,361.3l.829.614a45.486,45.486,0,0,0,4.159-3.735c9.091-10.32,18.325-20.51,27.088-31.15,4.215-5.117,7.559-11.081,11.166-16.758.714-1.125.829-2.694,1.38-4.623-6.877,1.266-11.856,4.733-16.191,9.163a119.783,119.783,0,0,0-27.147,42.128C1182.978,358.351,1182.645,359.848,1182.22,361.3Zm-142.3-108.688c16.04-3.19,30.632-16.57,30.424-29.812C1055.019,226.571,1046.643,238.215,1039.923,252.616Z" transform="translate(-177.734 150.18)" fill="#2f9a8c"/>
            <path id="Path_1344-2" data-name="Path 1344" d="M1043.261,260.5c6.5,1.84,11.675,1.693,16.532.121,6.282-2.031,12.719-4.205,18.347-7.713a118.437,118.437,0,0,0,20.763-15.99c21.587-21.364,41.748-44.161,56.932-71.55,4.249-7.666,8.622-15.255,13.031-23.045-1.324-1.133-2.094-1.889-2.949-2.506-13.085-9.44-17.286-22.947-14.59-39.1a55.746,55.746,0,0,1,16.521-31.268c5.627-5.483,12.147-8.312,19.858-7.7,12.61,1,21.448,10.487,21.981,24.118.179,4.554-.312,9.143-.519,14.219,4.969-1.612,8.55-5.148,12.4-8.157,2.241-1.748,4.279-3.859,6.658-5.33,6.653-4.113,14.358-3.127,19.535,2.218,5,5.157,6.293,13.089,3.213,20.409-.788,1.875-1.932,3.574-2.88,5.373-6.008,11.4-12.392,22.587-17.92,34.251-7.383,15.584-14.35,31.418-20.995,47.389-3.128,7.519-5.233,15.561-7.476,23.475-.626,2.212-.093,4.811-.093,7.32,4.2,1.177,7.737-.127,10.846-1.863,6.41-3.579,13.143-6.948,18.661-11.834,11.025-9.761,21.293-20.516,31.938-30.784,2.843-2.74,5.641-5.771,8.947-7.661,6.714-3.836,12.634-.571,13.458,7.6a27.742,27.742,0,0,1-1.623,12.737,106.1,106.1,0,0,1-10.119,19.111c-10.492,15.5-23.27,28.8-36.251,41.793a50.25,50.25,0,0,1-27.97,14.142c-22.882,3.807-42.337-11.823-44.766-36.7-.751-7.669.245-15.538.453-23.8-1.223,1.6-2.449,3.049-3.514,4.629a335.262,335.262,0,0,1-42.323,50.758c-13.276,13.135-27.882,24.294-44.748,31.54-12.719,5.463-25.764,8.03-39.393,4.574a49.978,49.978,0,0,1-21.789-11.745c-2.3,2-4.181,3.825-6.229,5.4-9.7,7.476-19.237,15.246-29.252,22.2a70.663,70.663,0,0,1-28.607,11.381c-21.765,3.758-37.991-9.766-39.542-33.576-.517-7.969.427-16.054.727-24.788-1.071,1.875-2.025,3.395-2.84,5a182.785,182.785,0,0,1-30.84,43.864c-20.771,21.693-45.323,30.158-73.826,25.145-1.663-.291-3.331-.548-5.611-.923-.946,2.541-1.977,5-2.79,7.542-6.546,20.478-13.021,40.983-19.6,61.449a67.551,67.551,0,0,1-4.188,10.816c-4.213,8-12.3,11.2-19.684,8.206-7.066-2.861-11.507-10.836-9.89-19.553a259.644,259.644,0,0,1,6.733-28.09c6.722-22.108,13.905-44.052,20.9-66.061a24.153,24.153,0,0,0,1.5-7.516c-1.042,1.243-2.113,2.46-3.125,3.735-7.359,9.256-14.3,18.958-22.2,27.637a109.692,109.692,0,0,1-18.533,15.728c-14.7,10.251-30.84,14.165-48.259,10.9-2.5-.47-5.017-.848-8.225-1.387-.791,2.054-1.681,4.058-2.347,6.144-5.51,17.2-10.844,34.476-16.5,51.623q-5.907,17.894-12.584,35.491a33.968,33.968,0,0,1-6.184,10.346c-5.382,6.031-12.179,7.539-19.38,4.4-7.266-3.17-10.98-9.492-10.831-17.88a46.144,46.144,0,0,1,2.222-12.826c7.354-23.345,14.944-46.6,22.445-69.889.743-2.307,1.409-4.644,2.518-8.31-2.987,1.592-4.767,2.651-6.624,3.51-5.078,2.353-10.034,5.255-15.32,6.79-11.2,3.251-20.577-.338-27.6-10.533-.629-.911-1.239-1.84-2.206-3.273-1.543,1.494-2.885,2.818-4.249,4.113-6.245,5.91-12.259,12.152-18.813,17.629a60.287,60.287,0,0,1-24.779,12.359c-20.222,4.88-37.261-6.957-41.62-28.895-1.772-8.921-1.361-17.906-.083-26.835a195.975,195.975,0,0,1,11.166-42.468c.794-2.071,1.495-4.185,2.5-7.026-7.684-.906-14.768-1.736-22.556-2.654-.949,2.584-2.017,5.019-2.752,7.563-7.322,25.3-14.4,50.683-21.941,75.9-4.918,16.438-10.425,32.67-15.85,48.926a45.317,45.317,0,0,1-4.7,9.772c-2.979,4.707-7.276,7.127-12.658,6.221-5.345-.9-9-4.479-10.428-9.954a55.977,55.977,0,0,1-1.591-12.93,231.6,231.6,0,0,1,8.579-67.564c4.969-17.634,10.348-35.136,15.541-52.7.757-2.558,1.492-5.122,2.382-8.177a34.705,34.705,0,0,0-4.322-.649c-22.615-.2-45.126.946-67.486,5.053-4.519.831-6.317,3.095-7.838,7.444A821.139,821.139,0,0,0,322.73,427.1c-1.942,11.064-5.134,21.883-8.006,32.737a35.872,35.872,0,0,1-4.007,9.342c-2.393,3.928-6.059,5.8-10.5,5A9.976,9.976,0,0,1,292,466.441a55.817,55.817,0,0,1-1.471-11.557c-.935-24.891,3.059-49.128,8.374-73.2a625.745,625.745,0,0,1,20.457-72c.743-2.123,1.38-4.292,2.294-7.15a28.775,28.775,0,0,0-4.751.761c-21.275,7.557-42.342,15.63-61.142,29.264a30.538,30.538,0,0,1-4.505,2.59c-2.39,1.171-5,2.091-7.111-.26-2.089-2.325-1.247-5.238-.235-7.8a41.307,41.307,0,0,1,3.16-5.988c5.089-8.465,11.912-14.955,19.7-20.406,16.7-11.687,34.818-20.377,52.8-29.35,5-2.495,11.092-3.871,14.654-7.874,3.4-3.822,4.271-10.355,6.067-15.771,6.8-20.539,16.942-39.215,27.318-57.769a32.822,32.822,0,0,0,3.762-8.826c-1.351.9-2.752,1.725-4.047,2.714A388.646,388.646,0,0,1,300.8,224.828c-11.534,5.587-23.444,9.729-36.2,10.533a59.043,59.043,0,0,1-29.867-5.9c-16.186-7.811-23.183-22.249-24.619-40.49-.479-6.092.986-9.261,3.919-9.893,4.226-.909,5.963,2.6,7.884,5.65q2.694,4.287,5.393,8.572c5.355,8.506,13.053,12.146,22.3,12.682,10.252.594,19.991-1.95,29.111-6.6,11.742-5.985,23.361-12.322,34.674-19.195a308.278,308.278,0,0,0,42.853-31.323c5.134-4.488,10.585-8.549,15.762-12.985,11.348-9.723,22.612-19.561,33.912-29.353,5.15-4.465,10.058-9.322,15.517-13.294,7.314-5.321,15.629-4.352,21.1,1.653,5.259,5.769,5.989,14.329,1.6,22.333-10.54,19.221-21,38.465-32.433,57.132-12.336,20.144-23.031,41.473-34.3,62.378-2.339,4.344-4.034,9.1-6.381,14.473,2.1,0,3.472.254,4.737-.04,23.585-5.48,47.487-8.485,71.506-10.355,4.292-.334,6.344-2.028,7.99-6.161,15.067-37.8,34.757-72.883,54.468-107.944,2.211-3.934,4.713-7.687,7.215-11.413a32.267,32.267,0,0,1,4.242-5.14c2.172-2.111,4.721-3.222,7.617-1.653,2.566,1.387,3.647,3.859,3.557,6.821a51.809,51.809,0,0,1-.794,9.608,190.055,190.055,0,0,1-5.052,19.264c-9.738,29.03-19.692,57.977-29.553,86.961-1.018,3-1.91,6.043-3.077,9.749,5.5,1.4,10.666,2.394,15.629,4.067,4.857,1.638,9.517,3.974,14.96,6.3,1.37-1.788,2.995-3.825,4.535-5.936,8.645-11.854,18.477-22.3,30.414-30.282,7.135-4.774,14.691-8.39,23-9.913,5.784-1.059,11.5-.862,16.783,2.328,6.677,4.032,8.534,11.906,4.4,18.191-2.4,3.657-4.167,4.211-7.207,1.145-2.614-2.636-5.275-2.942-8.19-1.687a66.417,66.417,0,0,0-31.21,25.385c-18.768,26.685-31.852,56.079-35.662,89.756-.988,8.748-.714,13.028,1.479,19.028,2.052-.49,4.41-.606,6.381-1.612,4.409-2.25,9.091-4.321,12.818-7.591,6.586-5.783,13.215-11.8,18.634-18.794a258.668,258.668,0,0,0,36.278-62.427,335.891,335.891,0,0,1,32.092-61.219,47.3,47.3,0,0,1,4.809-6.441c3.925-4.153,9.184-4.9,13.492-2.224s6.267,7.914,4.945,13.764a52.385,52.385,0,0,1-2.222,6.472,719.629,719.629,0,0,1-28.543,66.431c-7.319,15-11.459,31.225-14.929,47.663a78.64,78.64,0,0,0-.807,8.1c2.006-.522,3.522-.557,4.673-1.275,4.958-3.1,10.268-5.8,14.622-9.726,18.576-16.726,33.864-36.255,42.981-60.907a446.474,446.474,0,0,1,31.73-67.008c1.46-2.547,2.9-5.108,4.482-7.568,6.642-10.36,13.213-11.09,21.888-1.932,1.657-1.546,3.285-3.251,5.084-4.71,5.947-4.834,11.563-10.34,18.014-14.211,17.441-10.467,33.574-5.039,43.242,13.888a64.356,64.356,0,0,1,7.13,29.809,58.5,58.5,0,0,0,.73,11.191c.911-1.935,1.86-3.853,2.728-5.812,6.541-14.75,12.984-29.555,19.655-44.236a64.055,64.055,0,0,1,6.2-10.438c2.339-3.291,5.521-5.163,9.536-3.689,3.219,1.18,5.145,4.517,4.441,9.682-1.111,8.183-2.907,16.262-4.476,24.369-.514,2.659-1.228,5.275-.943,8.535,1.521-2,3.083-3.963,4.559-6,8.827-12.195,18.11-23.96,29.825-33.037A116.719,116.719,0,0,1,889.8,156.436c13.642-6.977,24.973-1.67,29.883,13.873a111.028,111.028,0,0,1,4.415,43.677c-.445,5-1.063,9.974-.762,15.269.887-2,1.841-3.96,2.651-5.991,5.15-12.91,10.122-25.9,15.442-38.73,4.212-10.147,9.419-19.708,17.148-27.256a32.228,32.228,0,0,1,8.912-6.51c6.674-2.979,11.673,1.4,10.631,9.106a81.862,81.862,0,0,1-2.672,10.649c-2.862,10.369-5.859,20.7-8.635,31.1-4.49,16.827-8.963,33.665-13.212,50.567-2.068,8.217-3.744,16.562-5.331,24.906-.626,3.3-.533,6.752-.842,11.2,3.647-1.047,6.539-1.543,9.189-2.685,14.782-6.374,27.749-16.06,40.429-26.253,1.908-1.534,2.518-3.4,2.486-5.936-.362-29.316,8.614-55.658,22.346-80.353a79.144,79.144,0,0,1,10.86-15.318c9.046-9.752,18.384-19.229,28.056-28.251a58.36,58.36,0,0,1,34.89-15.561,27.361,27.361,0,0,1,15.552,2.879c13.082,6.746,18.155,19.907,12.877,34.49a87.15,87.15,0,0,1-7.78,16.608c-7.05,11.234-13.985,22.693-22.2,32.9-14.825,18.416-30.549,35.981-45.9,53.9C1046.834,256.347,1045.433,257.977,1043.261,260.5ZM896.139,180.182c-2.728,1.667-4.753,2.734-6.61,4.073-10.052,7.24-17.912,16.859-25.37,27.008-20.8,28.318-36.786,59.725-51.025,92.274a15.975,15.975,0,0,0-.639,2.423c.671.262,1.106.617,1.417.519,1.625-.511,3.232-1.113,4.828-1.73,14.9-5.774,27.541-15.414,38.988-27,20-20.233,33.842-44.236,38.167-73.973A88.965,88.965,0,0,0,896.139,180.182ZM688.692,312.969a16.945,16.945,0,0,0,2.933-.461c1.537-.787,3.053-1.627,4.564-2.469,12.648-7.041,23.265-17.014,33.337-27.637,15.53-16.374,25.386-36.777,33.864-58.012,1.492-3.735,2.07-7.981,2.587-12.062.482-3.827.4-7.764-2-11.572-4.527,1.422-8.078,4.292-11.409,7.456-12.69,12.062-24.27,25.226-33.094,40.919-6.637,11.8-13.271,23.634-19.261,35.826C695.966,293.6,692.793,302.874,688.692,312.969Zm347.458-90.033a29.6,29.6,0,0,0,2.689-2.1c9.807-10.239,19.7-20.386,29.361-30.784,11.406-12.273,20.321-26.61,28.5-41.508,1.105-2.016,1.875-4.251,3.21-7.338-9.339,1.379-16.434,4.782-22.394,10.585-6.648,6.467-13.055,13.224-19.447,19.988-12.536,13.265-18.267,30.247-22.162,48.191A13.848,13.848,0,0,0,1036.15,222.936ZM1186.928,93.166c-4.255,5.621-4.369,6.458-1.958,10.193C1185.674,99.7,1186.3,96.431,1186.928,93.166Z" transform="translate(-123.989 -50.137)" fill="#2f9a8c"/>
            <path id="Path_1345-2" data-name="Path 1345" d="M963.131,385.066c-6.36,10.326-13.056,20.426-19.01,31.018-13.175,23.429-25.863,47.178-39,70.63A158.858,158.858,0,0,1,892.8,505.2c-9.586,12.572-21.366,12.033-30.224-1.03a15.683,15.683,0,0,0-1.385-1.425c-1.623,1.635-3.272,3.3-4.924,4.967-8.211,8.28-17.718,13.559-29.065,14.271-16.615,1.044-29.908-9.135-34.677-26.391-.53-1.921-.992-3.868-1.713-6.7-1.564,1.878-2.569,3.2-3.688,4.4-5.118,5.494-9.754,11.722-15.514,16.267-14.5,11.448-35.529,11.318-47.167-7.762a12.6,12.6,0,0,1-.9-2.691l-1.445.961c-1.074,2.175-2.2,4.32-3.21,6.53a73.277,73.277,0,0,1-34.135,35.967,100.2,100.2,0,0,1-18.622,6.813c-5.954,1.664-12.027-2.526-15.008-10.089a60.94,60.94,0,0,1-4.279-29.745,258.623,258.623,0,0,1,5.265-30.53c5.446-22.281,11.529-44.38,17.329-66.561.57-2.181.986-4.4,1.814-8.159a51.187,51.187,0,0,0-4.012,3.545A248.774,248.774,0,0,0,628.6,466.844c-10.311,22.039-20.217,44.193-27.4,67.691a45.657,45.657,0,0,1-3.591,8.829c-3.722,6.683-10.231,9.659-16.929,8.136-6.634-1.506-11.739-7.161-12.437-14.831a55.646,55.646,0,0,1,.549-13.747c4.578-28.384,9.387-56.722,14.089-85.083.746-4.5,1.327-9.034,2.158-14.721-2.044,1.387-3.357,1.958-4.266,2.959-3.879,4.269-7.745,8.561-11.4,13.049-2.387,2.93-4.332,6.279-6.6,9.328-13.769,18.5-24.083,38.7-29.593,62.047-3.077,13.049-8.915,25.37-13.868,37.853a41.6,41.6,0,0,1-12.842,17.8,25.945,25.945,0,0,1-9.064,4.7c-5.5,1.431-10.721-1.534-13.458-6.856-.9-1.748-1.513-3.669-2.5-6.1a55.551,55.551,0,0,1-4.319,4.43c-5.078,4.121-9.818,9.088-15.456,11.975-13.21,6.769-27.019.563-32.692-14.049-1.463-3.773-2.065-7.952-2.918-11.978-.464-2.192-.615-4.462-1.052-7.8-1.631,2.12-2.7,3.383-3.639,4.759-4.673,6.865-9.059,13.977-14.012,20.594a75.2,75.2,0,0,1-31.149,24.609c-21.227,9.008-40.493-3.374-43.658-27.836-1.177-9.1.04-18,2.009-26.734A459.31,459.31,0,0,1,363.95,446.83a93.369,93.369,0,0,1,7.66-13.524,18.436,18.436,0,0,1,6.248-5.708c5.87-3.2,11.585.594,11.4,7.716-.117,4.54-1.249,9.082-2.182,13.562-5.838,28.1-11.811,56.171-17.579,84.29-1.143,5.567-1.583,11.3-2.483,17.972,2.206-.909,3.73-1.1,4.684-2,4.8-4.52,9.96-8.748,14.057-13.943,14.867-18.849,26.481-40.074,37.661-61.617,9.906-19.085,20.172-37.951,30.352-56.867a35.826,35.826,0,0,1,4.556-6.64c4.679-5.319,11.092-6.836,16.956-4.075,6.109,2.873,9.131,8.223,9.237,15.252a50.849,50.849,0,0,1-1.319,10.23c-4.615,23.913-9.312,47.807-13.94,71.718a13.773,13.773,0,0,0,.235,6.856c.9-1.156,1.873-2.264,2.7-3.481,18.994-27.761,33.8-58.075,46.53-89.646,2.046-5.068,4.029-10.17,6.149-15.2a39.192,39.192,0,0,1,3.109-6.025c4.708-7.289,12.378-10.162,19.615-7.491,7.116,2.628,11.46,10.167,10.94,19.1-.133,2.261-.437,4.511-.781,7.958,1.982-1.812,3.2-2.9,4.388-4.015,7.06-6.651,13.735-13.873,21.254-19.85,15.573-12.385,29.952-5.572,32.524,15.272.837,6.8.3,13.793.373,20.7.021,1.976,0,3.952,0,6.995a20.907,20.907,0,0,0,2.2-2.544c6.733-12.117,15.2-22.771,23.771-33.359,4.913-6.068,9.562-12.385,14.4-18.52,4.737-6.005,10.082-11.278,16.575-15,11.992-6.876,23.929-2.388,28.487,11.471a70.976,70.976,0,0,1,3.1,19.613c.639,19.746-3.043,39-6.946,58.144-2.7,13.279-5.827,26.46-8.739,39.69a12.365,12.365,0,0,0,.005,6.527c1.727-3.242,3.728-6.351,5.134-9.749,9.874-23.842,22.42-46.074,34.911-68.343,6.549-11.673,13.95-22.633,23.012-32.192,13.479-14.214,29.7-22.941,47.857-27.675,6.832-1.78,13.525-1.912,19.839,3.931,1.082-2.426,1.894-4.45,2.864-6.386,3.037-6.063,5.9-12.255,9.293-18.082,2.465-4.234,6.229-6.879,11.132-7.075,6.927-.277,12.458,4.946,12.789,12.408a22.46,22.46,0,0,1-.773,6.81c-7.484,27.158-15.192,54.245-22.548,81.44-3.411,12.6-6.23,25.385-9.208,38.116a36.153,36.153,0,0,0-.906,7.522c-.11,6.247,2.28,8.024,7.569,5.223a27.777,27.777,0,0,0,8.222-6.386,146.178,146.178,0,0,0,11.926-16.181c11.8-18.759,20.849-39.088,28.641-60.114q9.516-25.669,19.333-51.2a64.1,64.1,0,0,1,5.654-11.58c4.617-7.2,12.387-9.611,19.109-6.467,6.738,3.153,10.282,10.793,8.518,19.55-1.815,9-4.135,17.882-6.168,26.832a16.527,16.527,0,0,0-.235,6.939c1.276-1.736,2.579-3.452,3.823-5.218,11.633-16.515,23.726-32.621,37.506-47.118a126.968,126.968,0,0,1,15.5-14.369c12.866-9.639,27.662-1.667,28.333,15.246a73.852,73.852,0,0,1-1.775,17.1c-5.392,27.037-10.729,54.095-18.363,80.541-1.457,5.053-2.52,10.245-3.621,15.411-.453,2.132-.522,4.358-.9,7.776,3.176-1.661,5.292-2.625,7.284-3.833,15.72-9.547,29.505-21.843,42.43-35.315,4.756-4.955,9.2-10.256,13.874-15.307,5.049-5.457,10.8-9.74,17.865-11.56,6.122-1.575,8.347.3,8.323,7.2a41.123,41.123,0,0,1-6.581,22.082c-7.471,11.756-14.713,23.83-23.377,34.51-9.24,11.387-19.794,21.577-30.19,31.794A63.121,63.121,0,0,1,986.127,503.2c-19.4,4.866-34.988-5.9-39-27a67.741,67.741,0,0,1,1.279-29.466c3.543-14,7.6-27.845,11.435-41.756q2.626-9.514,5.23-19.037Zm-153.208,5.148c-3.171.309-5.739.2-8.129.857-11.2,3.092-20.968,8.811-28.479,18.621a140.1,140.1,0,0,0-24.821,51.758,90.072,90.072,0,0,0-2.286,12.183c-.461,4.277-1.447,9.5,2.872,11.849,4.188,2.281,7.953-1.137,10.705-4.191A96.919,96.919,0,0,0,770.6,466.852c6.552-10.781,12.97-21.69,18.864-32.9,6.522-12.406,12.418-25.2,18.522-37.859A52.413,52.413,0,0,0,809.923,390.214Z" transform="translate(79.165 430.713)" fill="#2f9a8c"/>
            <path id="Path_1346-2" data-name="Path 1346" d="M428.783,528.345c-2.68,0-4.564-.159-6.418.023-21.632,2.1-43.256,4.341-64.9,6.311-3.815.349-5.491,2.128-6.671,5.924-11.427,36.682-24.518,72.756-34.136,110.1-1.2,4.647-2.872,9.16-4.5,13.663a28.961,28.961,0,0,1-3.008,6.069c-2.243,3.386-5.323,5.405-9.309,4.724a9.414,9.414,0,0,1-7.985-7.923,43.517,43.517,0,0,1-.746-13.675c2.161-15.246,4.585-30.467,7.482-45.569,4.114-21.436,8.739-42.757,13.124-64.129.224-1.09.224-2.232.413-4.243-2.155,0-3.983.113-5.8-.02-9.117-.663-18.243-1.263-27.342-2.181a16.856,16.856,0,0,1-6.591-2.431c-5.286-3.118-6.328-8.785-2.712-14a18.453,18.453,0,0,1,11.27-7.355c7.887-1.912,15.848-3.461,23.785-5.128,4.6-.963,9.192-1.955,13.815-2.761a5.423,5.423,0,0,0,4.644-4.026q13.237-38.929,26.55-77.827a9.713,9.713,0,0,0-.08-2.567c-2.161,1.361-3.959,2.452-5.715,3.608-17.966,11.817-37.069,20.735-57.553,25.944-10.031,2.55-20.215,3.288-30.411.836-7.228-1.739-13.764-4.97-18.786-11.03-4.886-5.892-6.693-12.676-4.471-20.49,1.657-5.821,7.8-10.406,12.349-3.36,2.251,3.481,5.835,3.894,9.2,3.591,5.92-.534,12.011-.882,17.651-2.691,37.845-12.128,71.517-31.972,98.528-63.786,5.813-6.847,10.665-14.286,13.713-23.115a54.993,54.993,0,0,1,5.952-12.172c3.847-5.846,9.307-8.76,16.1-7.456,7.985,1.535,13.223,9.166,12.208,18.232-.426,3.822-1.772,7.565-2.981,11.234Q395.264,401.879,375,463.054c-2.723,8.249-5.286,16.559-7.894,24.848-.672,2.131-1.237,4.3-2.017,7.041a40.338,40.338,0,0,0,4.3-.02c22.423-2.777,44.828-5.714,67.27-8.272,3.97-.45,5.848-2.031,7.329-5.976,10.81-28.831,21.523-57.715,32.969-86.252,5.837-14.554,13.01-28.491,19.836-42.563a71.05,71.05,0,0,1,7.314-11.289,18.6,18.6,0,0,1,5.361-4.808c6.109-3.588,11.848-.035,12.128,7.439a23.833,23.833,0,0,1-.7,6.839c-3.312,12.619-6.5,25.292-10.241,37.764-9.277,30.905-18.837,61.709-28.264,92.559a34.2,34.2,0,0,0-.6,3.548c2.451.219,4.671.323,6.863.637,4.2.6,8.614.632,12.546,2.114,10.967,4.139,13.255,17.666,4.484,25.961a25.41,25.41,0,0,1-8.752,5.506,185.18,185.18,0,0,1-22.764,6.605c-4.061.854-6.291,2.3-7.647,6.7-10.013,32.581-20.239,65.083-30.443,97.592-1.988,6.322-4.111,12.6-6.307,18.84a32.438,32.438,0,0,1-2.941,6.118c-2.555,4.171-6.114,6.4-10.865,5.521-4.463-.828-7.33-3.94-8.284-8.523a37.762,37.762,0,0,1-.887-11.6c1.087-9.824,2.273-19.694,4.29-29.33,5.369-25.618,11.2-51.127,16.831-76.681C428.21,532.06,428.381,530.719,428.783,528.345Z" transform="translate(-87.763 419.48)" fill="#2f9a8c"/>
            <path id="Path_1347-2" data-name="Path 1347" d="M546.626,77.2c-.682,3.228-1.186,9.628-3.4,15.232-3.837,9.7-8.569,19-13.287,28.257a22.449,22.449,0,0,1-6.083,6.971c-8.2,6.524-18.565,2.431-21.083-8.264a27.3,27.3,0,0,1-.676-8.217c1.015-13.028,4.217-25.382,10.575-36.607a39.016,39.016,0,0,1,12.317-13.8c4.815-3.158,9.9-4.427,15.131-1.3C545.465,62.678,546.669,68.181,546.626,77.2Z" transform="translate(361.997 -57.673)" fill="#2f9a8c"/>
            <path id="Path_1348-2" data-name="Path 1348" d="M537.886,228.332c1.95-14.589,5.92-27.063,14.352-37.45,3.435-4.231,7.668-7.3,12.973-8.168,8.533-1.393,14.973,4.214,14.568,13.5a35.964,35.964,0,0,1-3.277,13.85c-4.574,9.331-9.94,18.208-15.091,27.2a16.2,16.2,0,0,1-3.472,4.012c-6.054,5.281-14.387,3.521-17.811-4.041C538.773,234.239,538.453,230.691,537.886,228.332Z" transform="translate(421.685 177.542)" fill="#2f9a8c"/>
          </g>
        </g>
        <g id="Layer_18_Image-2" data-name="Layer 18 Image" transform="translate(38.088 496.901)">
          <g id="Group_1406-2" data-name="Group 1406">
            <path id="Path_1349-2" data-name="Path 1349" d="M1432.619,552.433c-1.066-.883-1.844-1.65-2.725-2.235-17.132-11.332-26.607-28.182-29.788-49.281-3.352-22.218.578-43.129,10.8-62.661a44.472,44.472,0,0,1,12.795-15.232c16.958-12.662,37.918-6.813,46.988,13.187,4.295,9.466,5.763,19.728,6.65,30.095.3,3.435.208,6.911.352,10.363.077,1.831-.139,3.848.492,5.448,3.083,7.811,2.609,15.751,1.247,23.792a15.336,15.336,0,0,0-.085,2.688c0,.193.211.383.488.851a38.017,38.017,0,0,0,4.095-1.356c25.258-11.465,46.786-28.1,63.068-52.35a99.144,99.144,0,0,1,14.249-16.651c5.592-5.278,8.726-3.781,10.9,4.047,2.937,10.565.938,20.565-3.258,30.184a116.651,116.651,0,0,1-22.418,33.42c-22.306,23.669-47.964,41.225-78.588,49.4-3.12.83-4.577,2.717-5.685,5.716-17.811,48.208-38.775,94.855-59.919,141.408Q1325.15,873.1,1204.54,1010.119c-47.873,54.066-100.593,101.688-161.817,137.277-70.1,40.752-143.744,70.925-222.753,84.186-51.4,8.627-103.079,9.588-154.884,5.625-33.19-2.538-66.169-6.68-98.594-15.1-48.718-12.651-93.959-34.317-136.8-62.056-48.859-31.641-91.387-71.533-129.08-117.563-5.931-7.24-11.7-14.681-17.017-22.454a736.4,736.4,0,0,1-55.871-96.649c-18.048-37.524-27.438-77.821-32.391-119.507-3.488-29.362-3.885-58.822-2.718-88.374,2.438-61.686,9.592-122.645,23.193-182.656,7.276-32.088,18.341-62.845,28.354-93.97,8.544-26.555,16.924-53.174,25.559-79.7,6.443-19.78,13.231-39.425,19.764-59.168,5.025-15.183,9.818-30.455,14.875-45.627,2.089-6.27,4.337-12.515,7.01-18.511,2.174-4.883,5.11-6.513,8.5-5.74,4.167.949,6.021,4.364,6.5,8.434a49.529,49.529,0,0,1-.021,10.989,453.571,453.571,0,0,1-10.623,58.286c-9.576,39.454-18.68,79.046-28.333,118.48-5.454,22.278-11.67,44.337-17.443,66.526-9.562,36.757-14.444,74.388-18.139,112.273a1113.413,1113.413,0,0,0-5.137,122.227,465.277,465.277,0,0,0,11.776,97.861c6.221,27.288,15.61,53.238,29.145,77.186,12.107,21.424,25.112,42.26,37.836,63.269a131.971,131.971,0,0,0,8.521,12.1C390.57,1051.179,458.7,1107.59,541.54,1142.228c31.594,13.21,64.472,20.631,97.92,25.589a635.244,635.244,0,0,0,138.973,5.688c58.117-4.162,113.981-18.757,168.238-41.323,29.87-12.425,59.021-26.405,87.052-43.2,54.614-32.719,101.712-75.684,144.57-124.284a1347.735,1347.735,0,0,0,165.02-231.881c31.82-56.636,60.483-114.962,87.028-174.6C1431.156,556.387,1431.817,554.48,1432.619,552.433Zm17.625-41.966c6.623-12.881,12.032-25.7,7.487-40.752-1.253-4.153-2.071-8.463-3.317-12.619a27.052,27.052,0,0,0-2.771-6.2c-3.629-5.95-8.361-5.993-11.2.378a65.607,65.607,0,0,0-4.6,15.725c-1.9,11.4-.943,22.569,4.623,32.8C1442.824,504.118,1445.435,508.321,1450.244,510.466Z" transform="translate(-192.03 -229.952)" fill="#2f9a8c"/>
            <path id="Path_1350-2" data-name="Path 1350" d="M378.528,536.539c1.982-24.842,5.769-49.3,14.763-72.439a60.2,60.2,0,0,1,8.547-15.243c8.673-11.012,21.922-9.333,28.634,3.193a38.285,38.285,0,0,1,4.186,17.179,69.7,69.7,0,0,1-3.791,24.36c-2.1,6.265-4.38,12.478-6.871,18.572-5.084,12.437-9.682,25.021-12.251,38.4a28.071,28.071,0,0,1-2.712,7.675,9.668,9.668,0,0,1-8.947,5.567c-13.26.008-20.707-7.488-21.544-21.745C378.435,540.225,378.528,538.379,378.528,536.539Z" transform="translate(118.308 168.726)" fill="#2f9a8c"/>
            <path id="Path_1351-2" data-name="Path 1351" d="M435.888,532c2.267-15.229,4.231-30.519,6.9-45.667,2.043-11.638,6.661-22.284,12.424-32.4,5.43-9.541,13.253-13.9,23.34-14.217,5.193-.161,9.314,3.173,10.01,9.429a86.51,86.51,0,0,1-.133,15.82c-2.187,29.25-11.428,56.636-19.3,84.377a44.543,44.543,0,0,1-3.472,8.892c-5.739,10.692-18.618,11.225-24.589.646-2.339-4.144-3.279-9.414-4.071-14.321-.647-4.023-.133-8.266-.133-12.414Z" transform="translate(213.837 165.288)" fill="#2f9a8c"/>
          </g>
        </g>
      </g>
      <g id="Group_1417" data-name="Group 1417" transform="translate(1314.579 1479.881)" opacity="0.299">
        <g id="Layer_9_Image-3" data-name="Layer 9 Image" transform="translate(0 0)">
          <g id="Group_1405-3" data-name="Group 1405">
            <path id="Path_1343-3" data-name="Path 1343" d="M606.5,511.7c9.525-4.84,17.326-10,23.606-17.3a241.394,241.394,0,0,0,36.76-57.1c9.736-21.271,19.247-42.667,29.284-63.769,3.189-6.7,7.593-12.772,11.768-18.866a19.647,19.647,0,0,1,6.24-5.76c8.041-4.6,17.824.689,18.778,10.473a27.117,27.117,0,0,1-1.817,12.731c-14.656,34.034-26.332,69.586-44.068,102.057-3.25,5.947-4.114,12.434-4.412,19.91a24.772,24.772,0,0,0,4.279-1.257c7.825-4.052,14.174-10.138,19.857-17.115,26.673-32.748,51.169-67.267,72.51-104.356,6.53-11.35,13.172-22.63,19.535-34.089a157.261,157.261,0,0,0,8.654-17.7c7.583-18.921,17.566-36.339,28.013-53.472a27.736,27.736,0,0,1,6.544-7.421c4.545-3.5,9.6-3.634,14.425-.424,4.62,3.077,6.517,7.822,6,13.559a32.785,32.785,0,0,1-1.668,7.346c-3.333,9.968-6.794,19.884-10.2,29.826-.509,1.488-.957,3-1.561,4.912a11.477,11.477,0,0,0,2.675.176c10.247-2,20.457-4.277,30.747-5.976,3.752-.617,5.878-2.14,7.74-5.806,9.125-17.969,18.368-35.88,28.066-53.489a102.033,102.033,0,0,1,12.909-17.94c7.559-8.578,13.082-9.022,22.687-3.216.328.2.8.107,1.689.2.5-4.049.8-8.162,1.542-12.183,2.206-11.975,4.564-23.917,6.917-35.86a22.093,22.093,0,0,1,1.409-4.572c3.645-8.333,12.288-9.85,17.566-2.579,2.67,3.677,4.369,8.408,5.718,12.936,2.478,8.327,3.887,17.052,6.647,25.252,2.83,8.393,6.632,16.417,10.253,24.476,1.071,2.385,2.971,4.332,4.865,7.006,1.471-1.967,2.558-3.268,3.488-4.69,3.69-5.645,7.178-11.454,11.02-16.971,9.253-13.3,21.647-22.166,35.849-27.877,12.6-5.068,24.4-2.134,34.839,6.735,7.386,6.276,10.466,15.03,10.434,24.952-.058,16.8-3.783,32.884-13.074,46.244-17.893,25.742-41.438,40.668-72.185,39.35-4.018-.173-8.012-.955-12.877-1.563l-5.691,11.4.831.8c2.041-1.044,4.05-2.172,6.128-3.112,11.459-5.18,22.389,1.136,24.491,14.378a28.559,28.559,0,0,1-.08,10.262c-2.545,11.641-5.182,23.282-8.417,34.715-5.3,18.728-11.156,37.271-16.631,55.941-1.124,3.839-1.612,7.894-2.4,11.852l1.268.782c2.233-2.307,4.6-4.482,6.677-6.945,13.572-16.1,24.493-34.236,34.613-52.984,7.948-14.733,15.688-29.6,23.923-44.141,5.672-10.011,11.987-19.6,18.123-29.3a30.52,30.52,0,0,1,5.02-6.219c4.215-3.851,9.109-4.97,14.339-2.725,5.2,2.229,8.257,6.588,8.846,12.518a31.139,31.139,0,0,1-.565,10.268c-1.907,7.782-4.055,15.526-6.629,23.077-7.012,20.588-13.181,41.413-16.335,63.154-.559,3.865-.788,7.787-1.092,11.69a23.731,23.731,0,0,0,.429,3.663,75.319,75.319,0,0,0,8.531-2.071c10.183-3.747,19.021-10.112,27.968-16.443,7.188-5.085,10.687-10.392,10.026-20.525-1.116-17.127,4.343-33.181,11.294-48.424,8.968-19.668,21.5-36.524,36.187-51.467,9.352-9.512,20.438-15.719,33.227-18.027a38.247,38.247,0,0,1,28.825,6.149c10.061,6.689,14.644,16.712,12.882,29.327a66.259,66.259,0,0,1-5.121,16.965,125.484,125.484,0,0,1-23.073,35.485c-13.122,14.133-26.886,27.568-40.4,41.28-1.673,1.7-3.477,3.245-6.243,5.806,2.867.375,4.543,1.076,5.971.692,5.337-1.433,10.985-2.391,15.781-5.073a105.119,105.119,0,0,0,19.146-13.617,206.044,206.044,0,0,0,40.237-49.777c11.193-19.342,22.01-38.938,33.038-58.39a79.343,79.343,0,0,0,7.847-19.567c1.705-6.622,4.38-12.959,6.735-19.377a28.023,28.023,0,0,1,2.494-4.82c4.751-7.773,12.109-10.816,19.255-8.027,6.864,2.68,11.023,9.9,10.242,18.754-.4,4.554-1.689,9.013-2.491,13.536-1.4,7.914-3.016,15.8-4.023,23.778-.778,6.164.767,7.427,6.471,6.42,6.086-1.076,11.182-4.237,15.629-8.794a52.5,52.5,0,0,1,6.789-6.262c5.88-4.188,13.343-4.087,18.621.159,5.683,4.566,7.873,10.891,6.442,18.278a35.709,35.709,0,0,1-3.957,10.851c-4.394,7.614-9,15.119-14.014,22.267-11.761,16.784-21.419,34.955-30.6,53.44-2.254,4.54-4.852,9.181-4.276,15.546,2.27-.225,4.447.006,6.317-.7,6.4-2.435,13.029-4.529,18.965-7.972a170.972,170.972,0,0,0,38.54-30.559,38.007,38.007,0,0,1,9.666-7.738c7.708-4,15.062.285,15.871,9.475a30.058,30.058,0,0,1-1.985,14.038,96.156,96.156,0,0,1-11.187,19.2c-14.172,18.748-31.789,33.3-50.447,46.385a42.979,42.979,0,0,1-26.745,7.842c-24.083-.854-40.768-21.528-38.345-47.492a71.381,71.381,0,0,1,6.6-24.43c5.209-10.825,10.895-21.384,16.444-32.015,2.19-4.2,4.561-8.286,7.114-12.9-5.057-2.449-9.792-4.739-15.069-7.3-.93,1.491-2.049,3.083-2.974,4.8-5.989,11.162-11.827,22.425-17.926,33.521a247.113,247.113,0,0,1-45.933,59.907,133.708,133.708,0,0,1-27.73,20.876,68.863,68.863,0,0,1-40.243,8.428,43.2,43.2,0,0,1-25.657-11.226c-.8-.724-1.71-1.318-2.99-2.3-2.651,2.293-5.323,4.505-7.9,6.844A127.27,127.27,0,0,1,1116.8,463.9c-10.228,4.762-20.774,6.619-31.831,4.234-13.167-2.841-22.716-10.092-26.254-24.839a8.849,8.849,0,0,0-1.039-1.69c-1.135,1.356-2.254,2.53-3.2,3.848-5.859,8.2-11.425,16.671-17.574,24.606a66.888,66.888,0,0,1-27.9,21.312c-23.2,9.469-42.03-4.938-41.436-31.845.325-14.707,4.138-28.684,8.87-42.307,5.622-16.178,11.736-32.157,17.638-48.219.528-1.439,1.063-2.873,2.126-5.748-2.432,1.777-3.786,2.648-5.014,3.692-2.174,1.855-4.231,3.871-6.408,5.72a114.672,114.672,0,0,0-29.8,38.147c-10.468,21.678-23.859,41.462-38.015,60.561-9.555,12.893-20.588,23.962-34.04,31.992-6.778,4.047-13.871,7.115-21.746,7.358-12.051.369-21.576-4.419-27.694-16.071a22.7,22.7,0,0,0-1.43-2.259c-.1-.141-.373-.144-1.069-.387-1.236,1.462-2.584,3.152-4.023,4.745-6.546,7.242-12.853,14.77-19.756,21.592A45.09,45.09,0,0,1,783.938,530.6c-16.213,3.222-29.846-4.915-35.542-21.7-1.727-5.091-2.569-10.536-4.09-16.989-2.472,2.9-4.46,5.163-6.373,7.493-9.408,11.459-19.633,21.886-32.7,28.295a86.775,86.775,0,0,1-17.377,6.7c-12.2,2.965-23.31.663-31.884-10.26a7.585,7.585,0,0,0-1.844-1.194q-2.342,2.284-4.695,4.577c-7.793,7.586-16.082,14.433-25.631,19.253-20.5,10.34-40.027,2.146-48.872-20.421-.576-1.465-1.138-2.936-1.966-5.079-1.556,1.278-2.853,2.23-4.031,3.331-7.732,7.231-15.208,14.814-23.212,21.67a74.973,74.973,0,0,1-40.4,17.545c-19.255,2.391-35.433-8.327-42.265-27.992-4.316-12.428-4.532-25.327-2.909-38.22,1.26-10.006,3.384-19.884,5.291-30.775-2.275.4-4.441.828-6.621,1.151a100.245,100.245,0,0,1-11.4,1.5c-3.866.124-5.507,1.979-6.522,5.924Q435.743,495.4,429.989,515.2a436.834,436.834,0,0,1-25.487,66.33,67.926,67.926,0,0,1-6.85,11.621c-3.77,5-8.777,7.268-14.806,5.2-5.526-1.9-9.11-7.127-8.966-14.421a127.825,127.825,0,0,1,1.924-19.2c5.057-29.247,11.174-58.231,18.941-86.791.589-2.166,1.044-4.376,1.761-7.4-2.539,0-4.407-.13-6.256.02-23.143,1.869-46.28,3.845-69.43,5.616-4.311.329-6.28,2.385-7.316,6.9q-10.491,45.626-21.379,91.143c-3.211,13.377-6.831,26.639-10.471,39.889a33.736,33.736,0,0,1-4.013,9.348c-5.326,8.186-15.981,7.269-19.692-1.892-1.561-3.859-1.927-8.471-2.1-12.775-.839-21.116,1.769-41.894,6.235-62.384,3.861-17.718,8.193-35.315,12.328-52.964.517-2.2,1.09-4.393,1.814-7.306a30.02,30.02,0,0,0-4.655.545c-12.126,3.542-24.2,7.277-36.358,10.692a89.574,89.574,0,0,1-13.788,2.628c-3.1.361-6.839.7-8.321-3.311-1.513-4.09,1.428-6.521,4.092-8.39,9.453-6.622,18.645-13.879,28.674-19.3,11.771-6.365,24.28-11.136,36.534-16.431,2.861-1.237,5.094-2.469,6.389-5.956,7.479-20.1,15.227-40.077,22.868-60.106a8.777,8.777,0,0,0,.6-4.846c-1.785,1.526-3.581,3.04-5.355,4.583-18.392,15.97-38.694,27.678-62.069,32.448-15.2,3.1-30.166,2.78-44.34-4.822-12.9-6.92-20.963-18.01-22.628-33.683a28.966,28.966,0,0,1,1.655-12.749c2.736-7.222,9.237-8.223,14.47-2.873a23.931,23.931,0,0,1,2.544,3.1c5.4,7.8,12.837,11,21.584,11.471,12.826.7,24.976-2.5,36.749-7.554a128.2,128.2,0,0,0,40.466-27.283c12.2-12.2,24.144-24.707,36.134-37.152,6.456-6.7,12.754-13.579,19.173-20.326a23.988,23.988,0,0,1,4.447-3.9c8.566-5.327,19.09.263,20.169,10.894a34.522,34.522,0,0,1-.826,10.239c-3.125,15.125-8.345,29.489-13.695,43.83-10.681,28.641-21.1,57.4-31.6,86.116-.464,1.26-.751,2.6-1.25,4.358a26.429,26.429,0,0,0,5.137-.043,449.166,449.166,0,0,1,71.026-8.886c4.817-.248,6.933-2.192,8.675-6.928,8.6-23.337,17.057-46.766,26.617-69.647,6.562-15.7,14.728-30.634,22.45-45.745a43.211,43.211,0,0,1,7.218-9.611c3.024-3.213,6.775-4.97,11.06-2.729,3.994,2.088,5.393,6.095,4.87,10.4-.935,7.739-1.833,15.6-3.882,23.042-6.746,24.513-14.076,48.84-21.024,73.292-2.622,9.227-4.809,18.6-7.434,28.84l25.634,5.5c.911-1.465,2.1-3.331,3.25-5.232a153.994,153.994,0,0,1,32.686-38.554c9.733-8.206,20.55-14.1,32.758-16.3a39.405,39.405,0,0,1,14.558-.072c12.368,2.512,21.048,13.507,21.813,27.914a60.547,60.547,0,0,1-1.865,19.775c-10.705,36.576-32.659,62.049-66.081,75.259-6.456,2.553-13.612,3.034-21,4.592a43.257,43.257,0,0,0,1.625,19.691c1.593,4.82,3.946,6.138,9.078,5.264,9.008-1.537,17.443-4.906,24.173-11.678,8.569-8.618,17.143-17.323,24.885-26.786,7.6-9.3,14.276-19.51,21.128-29.506a41.024,41.024,0,0,0,4.727-9.737c9.2-26.706,24.8-48.785,42.947-68.859,12.856-14.225,29.433-19.818,47.346-21.1a21.332,21.332,0,0,1,9.879,2.074c5.153,2.328,7.812,7.113,7.886,13.138s-2.582,10.689-7.588,13.377a19.684,19.684,0,0,1-7.281,2.348,26.906,26.906,0,0,0-17.657,8.791c-6.893,7.482-14.028,14.972-19.573,23.582-9.607,14.92-18.107,30.68-26.984,46.148a14.438,14.438,0,0,0-2.03,5.76q-1.135,14.083-1.753,28.209C605.066,506.1,605.884,508.319,606.5,511.7ZM841.725,329.249c-1.489,2.726-2.632,4.641-3.615,6.645-10.586,21.56-20.646,43.446-31.858,64.614-9.829,18.552-16.934,38.179-22.695,58.45-2.3,8.093-3.5,16.576-4.9,24.94-.418,2.512.179,5.227.381,9.333,3.727-2.72,6.445-4.4,8.838-6.507a120.241,120.241,0,0,0,23.215-28.338c21.821-36.065,42.206-73.033,59.356-112,.7-1.586,1.122-3.314,1.719-5.114-5.648-1.188-10.862-2.157-16.021-3.4A26.754,26.754,0,0,1,841.725,329.249ZM952.719,341.1c-10.2,4.822-19.977,2.754-29.694,2.437-1.916-.064-3.847.014-5.742-.237-3.168-.418-5.134.943-6.677,3.949-3,5.841-6.112,11.627-9.472,17.231-18.019,30.066-27.712,63.616-35.236,98.086-.413,1.895-.57,3.856-1.033,7.072,2.779-1.944,4.569-3.078,6.245-4.387,7.5-5.867,13.473-13.36,19.138-21.188,22.906-31.649,41.686-66.278,61.741-99.989A18.877,18.877,0,0,0,952.719,341.1Zm9.536-14.15c6.674-12.353,12.52-23.175,18.693-34.6-13.111-11.384-20.635-26.135-24.331-43.775-8.342,19.247-16.25,37.487-24.536,56.6C946.194,305.358,959.46,306.348,962.254,326.947Zm-414.067,84.1c-15.906,3.23-42.7,34.712-45.6,53.082C521.893,459.538,545.513,432.3,548.188,411.05ZM1182.22,361.3l.829.614a45.486,45.486,0,0,0,4.159-3.735c9.091-10.32,18.325-20.51,27.088-31.15,4.215-5.117,7.559-11.081,11.166-16.758.714-1.125.829-2.694,1.38-4.623-6.877,1.266-11.856,4.733-16.191,9.163a119.783,119.783,0,0,0-27.147,42.128C1182.978,358.351,1182.645,359.848,1182.22,361.3Zm-142.3-108.688c16.04-3.19,30.632-16.57,30.424-29.812C1055.019,226.571,1046.643,238.215,1039.923,252.616Z" transform="translate(-177.734 150.18)" fill="#2f9a8c"/>
            <path id="Path_1344-3" data-name="Path 1344" d="M1043.261,260.5c6.5,1.84,11.675,1.693,16.532.121,6.282-2.031,12.719-4.205,18.347-7.713a118.437,118.437,0,0,0,20.763-15.99c21.587-21.364,41.748-44.161,56.932-71.55,4.249-7.666,8.622-15.255,13.031-23.045-1.324-1.133-2.094-1.889-2.949-2.506-13.085-9.44-17.286-22.947-14.59-39.1a55.746,55.746,0,0,1,16.521-31.268c5.627-5.483,12.147-8.312,19.858-7.7,12.61,1,21.448,10.487,21.981,24.118.179,4.554-.312,9.143-.519,14.219,4.969-1.612,8.55-5.148,12.4-8.157,2.241-1.748,4.279-3.859,6.658-5.33,6.653-4.113,14.358-3.127,19.535,2.218,5,5.157,6.293,13.089,3.213,20.409-.788,1.875-1.932,3.574-2.88,5.373-6.008,11.4-12.392,22.587-17.92,34.251-7.383,15.584-14.35,31.418-20.995,47.389-3.128,7.519-5.233,15.561-7.476,23.475-.626,2.212-.093,4.811-.093,7.32,4.2,1.177,7.737-.127,10.846-1.863,6.41-3.579,13.143-6.948,18.661-11.834,11.025-9.761,21.293-20.516,31.938-30.784,2.843-2.74,5.641-5.771,8.947-7.661,6.714-3.836,12.634-.571,13.458,7.6a27.742,27.742,0,0,1-1.623,12.737,106.1,106.1,0,0,1-10.119,19.111c-10.492,15.5-23.27,28.8-36.251,41.793a50.25,50.25,0,0,1-27.97,14.142c-22.882,3.807-42.337-11.823-44.766-36.7-.751-7.669.245-15.538.453-23.8-1.223,1.6-2.449,3.049-3.514,4.629a335.262,335.262,0,0,1-42.323,50.758c-13.276,13.135-27.882,24.294-44.748,31.54-12.719,5.463-25.764,8.03-39.393,4.574a49.978,49.978,0,0,1-21.789-11.745c-2.3,2-4.181,3.825-6.229,5.4-9.7,7.476-19.237,15.246-29.252,22.2a70.663,70.663,0,0,1-28.607,11.381c-21.765,3.758-37.991-9.766-39.542-33.576-.517-7.969.427-16.054.727-24.788-1.071,1.875-2.025,3.395-2.84,5a182.785,182.785,0,0,1-30.84,43.864c-20.771,21.693-45.323,30.158-73.826,25.145-1.663-.291-3.331-.548-5.611-.923-.946,2.541-1.977,5-2.79,7.542-6.546,20.478-13.021,40.983-19.6,61.449a67.551,67.551,0,0,1-4.188,10.816c-4.213,8-12.3,11.2-19.684,8.206-7.066-2.861-11.507-10.836-9.89-19.553a259.644,259.644,0,0,1,6.733-28.09c6.722-22.108,13.905-44.052,20.9-66.061a24.153,24.153,0,0,0,1.5-7.516c-1.042,1.243-2.113,2.46-3.125,3.735-7.359,9.256-14.3,18.958-22.2,27.637a109.692,109.692,0,0,1-18.533,15.728c-14.7,10.251-30.84,14.165-48.259,10.9-2.5-.47-5.017-.848-8.225-1.387-.791,2.054-1.681,4.058-2.347,6.144-5.51,17.2-10.844,34.476-16.5,51.623q-5.907,17.894-12.584,35.491a33.968,33.968,0,0,1-6.184,10.346c-5.382,6.031-12.179,7.539-19.38,4.4-7.266-3.17-10.98-9.492-10.831-17.88a46.144,46.144,0,0,1,2.222-12.826c7.354-23.345,14.944-46.6,22.445-69.889.743-2.307,1.409-4.644,2.518-8.31-2.987,1.592-4.767,2.651-6.624,3.51-5.078,2.353-10.034,5.255-15.32,6.79-11.2,3.251-20.577-.338-27.6-10.533-.629-.911-1.239-1.84-2.206-3.273-1.543,1.494-2.885,2.818-4.249,4.113-6.245,5.91-12.259,12.152-18.813,17.629a60.287,60.287,0,0,1-24.779,12.359c-20.222,4.88-37.261-6.957-41.62-28.895-1.772-8.921-1.361-17.906-.083-26.835a195.975,195.975,0,0,1,11.166-42.468c.794-2.071,1.495-4.185,2.5-7.026-7.684-.906-14.768-1.736-22.556-2.654-.949,2.584-2.017,5.019-2.752,7.563-7.322,25.3-14.4,50.683-21.941,75.9-4.918,16.438-10.425,32.67-15.85,48.926a45.317,45.317,0,0,1-4.7,9.772c-2.979,4.707-7.276,7.127-12.658,6.221-5.345-.9-9-4.479-10.428-9.954a55.977,55.977,0,0,1-1.591-12.93,231.6,231.6,0,0,1,8.579-67.564c4.969-17.634,10.348-35.136,15.541-52.7.757-2.558,1.492-5.122,2.382-8.177a34.705,34.705,0,0,0-4.322-.649c-22.615-.2-45.126.946-67.486,5.053-4.519.831-6.317,3.095-7.838,7.444A821.139,821.139,0,0,0,322.73,427.1c-1.942,11.064-5.134,21.883-8.006,32.737a35.872,35.872,0,0,1-4.007,9.342c-2.393,3.928-6.059,5.8-10.5,5A9.976,9.976,0,0,1,292,466.441a55.817,55.817,0,0,1-1.471-11.557c-.935-24.891,3.059-49.128,8.374-73.2a625.745,625.745,0,0,1,20.457-72c.743-2.123,1.38-4.292,2.294-7.15a28.775,28.775,0,0,0-4.751.761c-21.275,7.557-42.342,15.63-61.142,29.264a30.538,30.538,0,0,1-4.505,2.59c-2.39,1.171-5,2.091-7.111-.26-2.089-2.325-1.247-5.238-.235-7.8a41.307,41.307,0,0,1,3.16-5.988c5.089-8.465,11.912-14.955,19.7-20.406,16.7-11.687,34.818-20.377,52.8-29.35,5-2.495,11.092-3.871,14.654-7.874,3.4-3.822,4.271-10.355,6.067-15.771,6.8-20.539,16.942-39.215,27.318-57.769a32.822,32.822,0,0,0,3.762-8.826c-1.351.9-2.752,1.725-4.047,2.714A388.646,388.646,0,0,1,300.8,224.828c-11.534,5.587-23.444,9.729-36.2,10.533a59.043,59.043,0,0,1-29.867-5.9c-16.186-7.811-23.183-22.249-24.619-40.49-.479-6.092.986-9.261,3.919-9.893,4.226-.909,5.963,2.6,7.884,5.65q2.694,4.287,5.393,8.572c5.355,8.506,13.053,12.146,22.3,12.682,10.252.594,19.991-1.95,29.111-6.6,11.742-5.985,23.361-12.322,34.674-19.195a308.278,308.278,0,0,0,42.853-31.323c5.134-4.488,10.585-8.549,15.762-12.985,11.348-9.723,22.612-19.561,33.912-29.353,5.15-4.465,10.058-9.322,15.517-13.294,7.314-5.321,15.629-4.352,21.1,1.653,5.259,5.769,5.989,14.329,1.6,22.333-10.54,19.221-21,38.465-32.433,57.132-12.336,20.144-23.031,41.473-34.3,62.378-2.339,4.344-4.034,9.1-6.381,14.473,2.1,0,3.472.254,4.737-.04,23.585-5.48,47.487-8.485,71.506-10.355,4.292-.334,6.344-2.028,7.99-6.161,15.067-37.8,34.757-72.883,54.468-107.944,2.211-3.934,4.713-7.687,7.215-11.413a32.267,32.267,0,0,1,4.242-5.14c2.172-2.111,4.721-3.222,7.617-1.653,2.566,1.387,3.647,3.859,3.557,6.821a51.809,51.809,0,0,1-.794,9.608,190.055,190.055,0,0,1-5.052,19.264c-9.738,29.03-19.692,57.977-29.553,86.961-1.018,3-1.91,6.043-3.077,9.749,5.5,1.4,10.666,2.394,15.629,4.067,4.857,1.638,9.517,3.974,14.96,6.3,1.37-1.788,2.995-3.825,4.535-5.936,8.645-11.854,18.477-22.3,30.414-30.282,7.135-4.774,14.691-8.39,23-9.913,5.784-1.059,11.5-.862,16.783,2.328,6.677,4.032,8.534,11.906,4.4,18.191-2.4,3.657-4.167,4.211-7.207,1.145-2.614-2.636-5.275-2.942-8.19-1.687a66.417,66.417,0,0,0-31.21,25.385c-18.768,26.685-31.852,56.079-35.662,89.756-.988,8.748-.714,13.028,1.479,19.028,2.052-.49,4.41-.606,6.381-1.612,4.409-2.25,9.091-4.321,12.818-7.591,6.586-5.783,13.215-11.8,18.634-18.794a258.668,258.668,0,0,0,36.278-62.427,335.891,335.891,0,0,1,32.092-61.219,47.3,47.3,0,0,1,4.809-6.441c3.925-4.153,9.184-4.9,13.492-2.224s6.267,7.914,4.945,13.764a52.385,52.385,0,0,1-2.222,6.472,719.629,719.629,0,0,1-28.543,66.431c-7.319,15-11.459,31.225-14.929,47.663a78.64,78.64,0,0,0-.807,8.1c2.006-.522,3.522-.557,4.673-1.275,4.958-3.1,10.268-5.8,14.622-9.726,18.576-16.726,33.864-36.255,42.981-60.907a446.474,446.474,0,0,1,31.73-67.008c1.46-2.547,2.9-5.108,4.482-7.568,6.642-10.36,13.213-11.09,21.888-1.932,1.657-1.546,3.285-3.251,5.084-4.71,5.947-4.834,11.563-10.34,18.014-14.211,17.441-10.467,33.574-5.039,43.242,13.888a64.356,64.356,0,0,1,7.13,29.809,58.5,58.5,0,0,0,.73,11.191c.911-1.935,1.86-3.853,2.728-5.812,6.541-14.75,12.984-29.555,19.655-44.236a64.055,64.055,0,0,1,6.2-10.438c2.339-3.291,5.521-5.163,9.536-3.689,3.219,1.18,5.145,4.517,4.441,9.682-1.111,8.183-2.907,16.262-4.476,24.369-.514,2.659-1.228,5.275-.943,8.535,1.521-2,3.083-3.963,4.559-6,8.827-12.195,18.11-23.96,29.825-33.037A116.719,116.719,0,0,1,889.8,156.436c13.642-6.977,24.973-1.67,29.883,13.873a111.028,111.028,0,0,1,4.415,43.677c-.445,5-1.063,9.974-.762,15.269.887-2,1.841-3.96,2.651-5.991,5.15-12.91,10.122-25.9,15.442-38.73,4.212-10.147,9.419-19.708,17.148-27.256a32.228,32.228,0,0,1,8.912-6.51c6.674-2.979,11.673,1.4,10.631,9.106a81.862,81.862,0,0,1-2.672,10.649c-2.862,10.369-5.859,20.7-8.635,31.1-4.49,16.827-8.963,33.665-13.212,50.567-2.068,8.217-3.744,16.562-5.331,24.906-.626,3.3-.533,6.752-.842,11.2,3.647-1.047,6.539-1.543,9.189-2.685,14.782-6.374,27.749-16.06,40.429-26.253,1.908-1.534,2.518-3.4,2.486-5.936-.362-29.316,8.614-55.658,22.346-80.353a79.144,79.144,0,0,1,10.86-15.318c9.046-9.752,18.384-19.229,28.056-28.251a58.36,58.36,0,0,1,34.89-15.561,27.361,27.361,0,0,1,15.552,2.879c13.082,6.746,18.155,19.907,12.877,34.49a87.15,87.15,0,0,1-7.78,16.608c-7.05,11.234-13.985,22.693-22.2,32.9-14.825,18.416-30.549,35.981-45.9,53.9C1046.834,256.347,1045.433,257.977,1043.261,260.5ZM896.139,180.182c-2.728,1.667-4.753,2.734-6.61,4.073-10.052,7.24-17.912,16.859-25.37,27.008-20.8,28.318-36.786,59.725-51.025,92.274a15.975,15.975,0,0,0-.639,2.423c.671.262,1.106.617,1.417.519,1.625-.511,3.232-1.113,4.828-1.73,14.9-5.774,27.541-15.414,38.988-27,20-20.233,33.842-44.236,38.167-73.973A88.965,88.965,0,0,0,896.139,180.182ZM688.692,312.969a16.945,16.945,0,0,0,2.933-.461c1.537-.787,3.053-1.627,4.564-2.469,12.648-7.041,23.265-17.014,33.337-27.637,15.53-16.374,25.386-36.777,33.864-58.012,1.492-3.735,2.07-7.981,2.587-12.062.482-3.827.4-7.764-2-11.572-4.527,1.422-8.078,4.292-11.409,7.456-12.69,12.062-24.27,25.226-33.094,40.919-6.637,11.8-13.271,23.634-19.261,35.826C695.966,293.6,692.793,302.874,688.692,312.969Zm347.458-90.033a29.6,29.6,0,0,0,2.689-2.1c9.807-10.239,19.7-20.386,29.361-30.784,11.406-12.273,20.321-26.61,28.5-41.508,1.105-2.016,1.875-4.251,3.21-7.338-9.339,1.379-16.434,4.782-22.394,10.585-6.648,6.467-13.055,13.224-19.447,19.988-12.536,13.265-18.267,30.247-22.162,48.191A13.848,13.848,0,0,0,1036.15,222.936ZM1186.928,93.166c-4.255,5.621-4.369,6.458-1.958,10.193C1185.674,99.7,1186.3,96.431,1186.928,93.166Z" transform="translate(-123.989 -50.137)" fill="#2f9a8c"/>
            <path id="Path_1345-3" data-name="Path 1345" d="M963.131,385.066c-6.36,10.326-13.056,20.426-19.01,31.018-13.175,23.429-25.863,47.178-39,70.63A158.858,158.858,0,0,1,892.8,505.2c-9.586,12.572-21.366,12.033-30.224-1.03a15.683,15.683,0,0,0-1.385-1.425c-1.623,1.635-3.272,3.3-4.924,4.967-8.211,8.28-17.718,13.559-29.065,14.271-16.615,1.044-29.908-9.135-34.677-26.391-.53-1.921-.992-3.868-1.713-6.7-1.564,1.878-2.569,3.2-3.688,4.4-5.118,5.494-9.754,11.722-15.514,16.267-14.5,11.448-35.529,11.318-47.167-7.762a12.6,12.6,0,0,1-.9-2.691l-1.445.961c-1.074,2.175-2.2,4.32-3.21,6.53a73.277,73.277,0,0,1-34.135,35.967,100.2,100.2,0,0,1-18.622,6.813c-5.954,1.664-12.027-2.526-15.008-10.089a60.94,60.94,0,0,1-4.279-29.745,258.623,258.623,0,0,1,5.265-30.53c5.446-22.281,11.529-44.38,17.329-66.561.57-2.181.986-4.4,1.814-8.159a51.187,51.187,0,0,0-4.012,3.545A248.774,248.774,0,0,0,628.6,466.844c-10.311,22.039-20.217,44.193-27.4,67.691a45.657,45.657,0,0,1-3.591,8.829c-3.722,6.683-10.231,9.659-16.929,8.136-6.634-1.506-11.739-7.161-12.437-14.831a55.646,55.646,0,0,1,.549-13.747c4.578-28.384,9.387-56.722,14.089-85.083.746-4.5,1.327-9.034,2.158-14.721-2.044,1.387-3.357,1.958-4.266,2.959-3.879,4.269-7.745,8.561-11.4,13.049-2.387,2.93-4.332,6.279-6.6,9.328-13.769,18.5-24.083,38.7-29.593,62.047-3.077,13.049-8.915,25.37-13.868,37.853a41.6,41.6,0,0,1-12.842,17.8,25.945,25.945,0,0,1-9.064,4.7c-5.5,1.431-10.721-1.534-13.458-6.856-.9-1.748-1.513-3.669-2.5-6.1a55.551,55.551,0,0,1-4.319,4.43c-5.078,4.121-9.818,9.088-15.456,11.975-13.21,6.769-27.019.563-32.692-14.049-1.463-3.773-2.065-7.952-2.918-11.978-.464-2.192-.615-4.462-1.052-7.8-1.631,2.12-2.7,3.383-3.639,4.759-4.673,6.865-9.059,13.977-14.012,20.594a75.2,75.2,0,0,1-31.149,24.609c-21.227,9.008-40.493-3.374-43.658-27.836-1.177-9.1.04-18,2.009-26.734A459.31,459.31,0,0,1,363.95,446.83a93.369,93.369,0,0,1,7.66-13.524,18.436,18.436,0,0,1,6.248-5.708c5.87-3.2,11.585.594,11.4,7.716-.117,4.54-1.249,9.082-2.182,13.562-5.838,28.1-11.811,56.171-17.579,84.29-1.143,5.567-1.583,11.3-2.483,17.972,2.206-.909,3.73-1.1,4.684-2,4.8-4.52,9.96-8.748,14.057-13.943,14.867-18.849,26.481-40.074,37.661-61.617,9.906-19.085,20.172-37.951,30.352-56.867a35.826,35.826,0,0,1,4.556-6.64c4.679-5.319,11.092-6.836,16.956-4.075,6.109,2.873,9.131,8.223,9.237,15.252a50.849,50.849,0,0,1-1.319,10.23c-4.615,23.913-9.312,47.807-13.94,71.718a13.773,13.773,0,0,0,.235,6.856c.9-1.156,1.873-2.264,2.7-3.481,18.994-27.761,33.8-58.075,46.53-89.646,2.046-5.068,4.029-10.17,6.149-15.2a39.192,39.192,0,0,1,3.109-6.025c4.708-7.289,12.378-10.162,19.615-7.491,7.116,2.628,11.46,10.167,10.94,19.1-.133,2.261-.437,4.511-.781,7.958,1.982-1.812,3.2-2.9,4.388-4.015,7.06-6.651,13.735-13.873,21.254-19.85,15.573-12.385,29.952-5.572,32.524,15.272.837,6.8.3,13.793.373,20.7.021,1.976,0,3.952,0,6.995a20.907,20.907,0,0,0,2.2-2.544c6.733-12.117,15.2-22.771,23.771-33.359,4.913-6.068,9.562-12.385,14.4-18.52,4.737-6.005,10.082-11.278,16.575-15,11.992-6.876,23.929-2.388,28.487,11.471a70.976,70.976,0,0,1,3.1,19.613c.639,19.746-3.043,39-6.946,58.144-2.7,13.279-5.827,26.46-8.739,39.69a12.365,12.365,0,0,0,.005,6.527c1.727-3.242,3.728-6.351,5.134-9.749,9.874-23.842,22.42-46.074,34.911-68.343,6.549-11.673,13.95-22.633,23.012-32.192,13.479-14.214,29.7-22.941,47.857-27.675,6.832-1.78,13.525-1.912,19.839,3.931,1.082-2.426,1.894-4.45,2.864-6.386,3.037-6.063,5.9-12.255,9.293-18.082,2.465-4.234,6.229-6.879,11.132-7.075,6.927-.277,12.458,4.946,12.789,12.408a22.46,22.46,0,0,1-.773,6.81c-7.484,27.158-15.192,54.245-22.548,81.44-3.411,12.6-6.23,25.385-9.208,38.116a36.153,36.153,0,0,0-.906,7.522c-.11,6.247,2.28,8.024,7.569,5.223a27.777,27.777,0,0,0,8.222-6.386,146.178,146.178,0,0,0,11.926-16.181c11.8-18.759,20.849-39.088,28.641-60.114q9.516-25.669,19.333-51.2a64.1,64.1,0,0,1,5.654-11.58c4.617-7.2,12.387-9.611,19.109-6.467,6.738,3.153,10.282,10.793,8.518,19.55-1.815,9-4.135,17.882-6.168,26.832a16.527,16.527,0,0,0-.235,6.939c1.276-1.736,2.579-3.452,3.823-5.218,11.633-16.515,23.726-32.621,37.506-47.118a126.968,126.968,0,0,1,15.5-14.369c12.866-9.639,27.662-1.667,28.333,15.246a73.852,73.852,0,0,1-1.775,17.1c-5.392,27.037-10.729,54.095-18.363,80.541-1.457,5.053-2.52,10.245-3.621,15.411-.453,2.132-.522,4.358-.9,7.776,3.176-1.661,5.292-2.625,7.284-3.833,15.72-9.547,29.505-21.843,42.43-35.315,4.756-4.955,9.2-10.256,13.874-15.307,5.049-5.457,10.8-9.74,17.865-11.56,6.122-1.575,8.347.3,8.323,7.2a41.123,41.123,0,0,1-6.581,22.082c-7.471,11.756-14.713,23.83-23.377,34.51-9.24,11.387-19.794,21.577-30.19,31.794A63.121,63.121,0,0,1,986.127,503.2c-19.4,4.866-34.988-5.9-39-27a67.741,67.741,0,0,1,1.279-29.466c3.543-14,7.6-27.845,11.435-41.756q2.626-9.514,5.23-19.037Zm-153.208,5.148c-3.171.309-5.739.2-8.129.857-11.2,3.092-20.968,8.811-28.479,18.621a140.1,140.1,0,0,0-24.821,51.758,90.072,90.072,0,0,0-2.286,12.183c-.461,4.277-1.447,9.5,2.872,11.849,4.188,2.281,7.953-1.137,10.705-4.191A96.919,96.919,0,0,0,770.6,466.852c6.552-10.781,12.97-21.69,18.864-32.9,6.522-12.406,12.418-25.2,18.522-37.859A52.413,52.413,0,0,0,809.923,390.214Z" transform="translate(79.165 430.713)" fill="#2f9a8c"/>
            <path id="Path_1346-3" data-name="Path 1346" d="M428.783,528.345c-2.68,0-4.564-.159-6.418.023-21.632,2.1-43.256,4.341-64.9,6.311-3.815.349-5.491,2.128-6.671,5.924-11.427,36.682-24.518,72.756-34.136,110.1-1.2,4.647-2.872,9.16-4.5,13.663a28.961,28.961,0,0,1-3.008,6.069c-2.243,3.386-5.323,5.405-9.309,4.724a9.414,9.414,0,0,1-7.985-7.923,43.517,43.517,0,0,1-.746-13.675c2.161-15.246,4.585-30.467,7.482-45.569,4.114-21.436,8.739-42.757,13.124-64.129.224-1.09.224-2.232.413-4.243-2.155,0-3.983.113-5.8-.02-9.117-.663-18.243-1.263-27.342-2.181a16.856,16.856,0,0,1-6.591-2.431c-5.286-3.118-6.328-8.785-2.712-14a18.453,18.453,0,0,1,11.27-7.355c7.887-1.912,15.848-3.461,23.785-5.128,4.6-.963,9.192-1.955,13.815-2.761a5.423,5.423,0,0,0,4.644-4.026q13.237-38.929,26.55-77.827a9.713,9.713,0,0,0-.08-2.567c-2.161,1.361-3.959,2.452-5.715,3.608-17.966,11.817-37.069,20.735-57.553,25.944-10.031,2.55-20.215,3.288-30.411.836-7.228-1.739-13.764-4.97-18.786-11.03-4.886-5.892-6.693-12.676-4.471-20.49,1.657-5.821,7.8-10.406,12.349-3.36,2.251,3.481,5.835,3.894,9.2,3.591,5.92-.534,12.011-.882,17.651-2.691,37.845-12.128,71.517-31.972,98.528-63.786,5.813-6.847,10.665-14.286,13.713-23.115a54.993,54.993,0,0,1,5.952-12.172c3.847-5.846,9.307-8.76,16.1-7.456,7.985,1.535,13.223,9.166,12.208,18.232-.426,3.822-1.772,7.565-2.981,11.234Q395.264,401.879,375,463.054c-2.723,8.249-5.286,16.559-7.894,24.848-.672,2.131-1.237,4.3-2.017,7.041a40.338,40.338,0,0,0,4.3-.02c22.423-2.777,44.828-5.714,67.27-8.272,3.97-.45,5.848-2.031,7.329-5.976,10.81-28.831,21.523-57.715,32.969-86.252,5.837-14.554,13.01-28.491,19.836-42.563a71.05,71.05,0,0,1,7.314-11.289,18.6,18.6,0,0,1,5.361-4.808c6.109-3.588,11.848-.035,12.128,7.439a23.833,23.833,0,0,1-.7,6.839c-3.312,12.619-6.5,25.292-10.241,37.764-9.277,30.905-18.837,61.709-28.264,92.559a34.2,34.2,0,0,0-.6,3.548c2.451.219,4.671.323,6.863.637,4.2.6,8.614.632,12.546,2.114,10.967,4.139,13.255,17.666,4.484,25.961a25.41,25.41,0,0,1-8.752,5.506,185.18,185.18,0,0,1-22.764,6.605c-4.061.854-6.291,2.3-7.647,6.7-10.013,32.581-20.239,65.083-30.443,97.592-1.988,6.322-4.111,12.6-6.307,18.84a32.438,32.438,0,0,1-2.941,6.118c-2.555,4.171-6.114,6.4-10.865,5.521-4.463-.828-7.33-3.94-8.284-8.523a37.762,37.762,0,0,1-.887-11.6c1.087-9.824,2.273-19.694,4.29-29.33,5.369-25.618,11.2-51.127,16.831-76.681C428.21,532.06,428.381,530.719,428.783,528.345Z" transform="translate(-87.763 419.48)" fill="#2f9a8c"/>
            <path id="Path_1347-3" data-name="Path 1347" d="M546.626,77.2c-.682,3.228-1.186,9.628-3.4,15.232-3.837,9.7-8.569,19-13.287,28.257a22.449,22.449,0,0,1-6.083,6.971c-8.2,6.524-18.565,2.431-21.083-8.264a27.3,27.3,0,0,1-.676-8.217c1.015-13.028,4.217-25.382,10.575-36.607a39.016,39.016,0,0,1,12.317-13.8c4.815-3.158,9.9-4.427,15.131-1.3C545.465,62.678,546.669,68.181,546.626,77.2Z" transform="translate(361.997 -57.673)" fill="#2f9a8c"/>
            <path id="Path_1348-3" data-name="Path 1348" d="M537.886,228.332c1.95-14.589,5.92-27.063,14.352-37.45,3.435-4.231,7.668-7.3,12.973-8.168,8.533-1.393,14.973,4.214,14.568,13.5a35.964,35.964,0,0,1-3.277,13.85c-4.574,9.331-9.94,18.208-15.091,27.2a16.2,16.2,0,0,1-3.472,4.012c-6.054,5.281-14.387,3.521-17.811-4.041C538.773,234.239,538.453,230.691,537.886,228.332Z" transform="translate(421.685 177.542)" fill="#2f9a8c"/>
          </g>
        </g>
        <g id="Layer_18_Image-3" data-name="Layer 18 Image" transform="translate(38.088 496.901)">
          <g id="Group_1406-3" data-name="Group 1406">
            <path id="Path_1349-3" data-name="Path 1349" d="M1432.619,552.433c-1.066-.883-1.844-1.65-2.725-2.235-17.132-11.332-26.607-28.182-29.788-49.281-3.352-22.218.578-43.129,10.8-62.661a44.472,44.472,0,0,1,12.795-15.232c16.958-12.662,37.918-6.813,46.988,13.187,4.295,9.466,5.763,19.728,6.65,30.095.3,3.435.208,6.911.352,10.363.077,1.831-.139,3.848.492,5.448,3.083,7.811,2.609,15.751,1.247,23.792a15.336,15.336,0,0,0-.085,2.688c0,.193.211.383.488.851a38.017,38.017,0,0,0,4.095-1.356c25.258-11.465,46.786-28.1,63.068-52.35a99.144,99.144,0,0,1,14.249-16.651c5.592-5.278,8.726-3.781,10.9,4.047,2.937,10.565.938,20.565-3.258,30.184a116.651,116.651,0,0,1-22.418,33.42c-22.306,23.669-47.964,41.225-78.588,49.4-3.12.83-4.577,2.717-5.685,5.716-17.811,48.208-38.775,94.855-59.919,141.408Q1325.15,873.1,1204.54,1010.119c-47.873,54.066-100.593,101.688-161.817,137.277-70.1,40.752-143.744,70.925-222.753,84.186-51.4,8.627-103.079,9.588-154.884,5.625-33.19-2.538-66.169-6.68-98.594-15.1-48.718-12.651-93.959-34.317-136.8-62.056-48.859-31.641-91.387-71.533-129.08-117.563-5.931-7.24-11.7-14.681-17.017-22.454a736.4,736.4,0,0,1-55.871-96.649c-18.048-37.524-27.438-77.821-32.391-119.507-3.488-29.362-3.885-58.822-2.718-88.374,2.438-61.686,9.592-122.645,23.193-182.656,7.276-32.088,18.341-62.845,28.354-93.97,8.544-26.555,16.924-53.174,25.559-79.7,6.443-19.78,13.231-39.425,19.764-59.168,5.025-15.183,9.818-30.455,14.875-45.627,2.089-6.27,4.337-12.515,7.01-18.511,2.174-4.883,5.11-6.513,8.5-5.74,4.167.949,6.021,4.364,6.5,8.434a49.529,49.529,0,0,1-.021,10.989,453.571,453.571,0,0,1-10.623,58.286c-9.576,39.454-18.68,79.046-28.333,118.48-5.454,22.278-11.67,44.337-17.443,66.526-9.562,36.757-14.444,74.388-18.139,112.273a1113.413,1113.413,0,0,0-5.137,122.227,465.277,465.277,0,0,0,11.776,97.861c6.221,27.288,15.61,53.238,29.145,77.186,12.107,21.424,25.112,42.26,37.836,63.269a131.971,131.971,0,0,0,8.521,12.1C390.57,1051.179,458.7,1107.59,541.54,1142.228c31.594,13.21,64.472,20.631,97.92,25.589a635.244,635.244,0,0,0,138.973,5.688c58.117-4.162,113.981-18.757,168.238-41.323,29.87-12.425,59.021-26.405,87.052-43.2,54.614-32.719,101.712-75.684,144.57-124.284a1347.735,1347.735,0,0,0,165.02-231.881c31.82-56.636,60.483-114.962,87.028-174.6C1431.156,556.387,1431.817,554.48,1432.619,552.433Zm17.625-41.966c6.623-12.881,12.032-25.7,7.487-40.752-1.253-4.153-2.071-8.463-3.317-12.619a27.052,27.052,0,0,0-2.771-6.2c-3.629-5.95-8.361-5.993-11.2.378a65.607,65.607,0,0,0-4.6,15.725c-1.9,11.4-.943,22.569,4.623,32.8C1442.824,504.118,1445.435,508.321,1450.244,510.466Z" transform="translate(-192.03 -229.952)" fill="#2f9a8c"/>
            <path id="Path_1350-3" data-name="Path 1350" d="M378.528,536.539c1.982-24.842,5.769-49.3,14.763-72.439a60.2,60.2,0,0,1,8.547-15.243c8.673-11.012,21.922-9.333,28.634,3.193a38.285,38.285,0,0,1,4.186,17.179,69.7,69.7,0,0,1-3.791,24.36c-2.1,6.265-4.38,12.478-6.871,18.572-5.084,12.437-9.682,25.021-12.251,38.4a28.071,28.071,0,0,1-2.712,7.675,9.668,9.668,0,0,1-8.947,5.567c-13.26.008-20.707-7.488-21.544-21.745C378.435,540.225,378.528,538.379,378.528,536.539Z" transform="translate(118.308 168.726)" fill="#2f9a8c"/>
            <path id="Path_1351-3" data-name="Path 1351" d="M435.888,532c2.267-15.229,4.231-30.519,6.9-45.667,2.043-11.638,6.661-22.284,12.424-32.4,5.43-9.541,13.253-13.9,23.34-14.217,5.193-.161,9.314,3.173,10.01,9.429a86.51,86.51,0,0,1-.133,15.82c-2.187,29.25-11.428,56.636-19.3,84.377a44.543,44.543,0,0,1-3.472,8.892c-5.739,10.692-18.618,11.225-24.589.646-2.339-4.144-3.279-9.414-4.071-14.321-.647-4.023-.133-8.266-.133-12.414Z" transform="translate(213.837 165.288)" fill="#2f9a8c"/>
          </g>
        </g>
      </g>
    </g>
  </g>
</svg>
