<?xml version="1.0" encoding="utf-8"?>
<!-- Generator: Adobe Illustrator 16.0.0, SVG Export Plug-In . SVG Version: 6.00 Build 0)  -->
<!DOCTYPE svg PUBLIC "-//W3C//DTD SVG 1.1//EN" "http://www.w3.org/Graphics/SVG/1.1/DTD/svg11.dtd">
<svg version="1.1" id="Layer_1" xmlns="http://www.w3.org/2000/svg" xmlns:xlink="http://www.w3.org/1999/xlink" x="0px" y="0px"
	 width="96.5px" height="75.5px" viewBox="44.886 49.17 96.5 75.5" enable-background="new 44.886 49.17 96.5 75.5"
	 xml:space="preserve">
<g id="Group_2236" transform="translate(1046.117 1385.285)">
	<path id="Path_1595" fill="#FFFFFF" d="M-971.854-1264.58c-1.335,0.077-2.674,0.066-4.008-0.029
		c-3.08-0.406-4.447-2.647-3.139-5.425c3.521-7.467,7.185-14.866,10.801-22.288c0.992-2.04,2.584-2.863,4.906-2.988
		c4.865-0.26,9.727-0.723,14.563-1.305c4.771-0.575,6.622,0.207,9.064,4.455c3.256,5.658,6.495,11.324,9.72,17
		c0.357,0.611,0.673,1.246,0.942,1.9c0.806,2.018,0.236,3.681-1.844,4.343c-2.243,0.728-4.556,1.219-6.9,1.467
		c-10.1,1-20.22,1.871-30.334,2.772c-1.254,0.11-2.517,0.121-3.773,0.179L-971.854-1264.58L-971.854-1264.58z M-934.197-1273.189
		c-5.435-5.565-8.637-12.217-10.729-19.569c-5.523,1.157-11.17,1.638-16.811,1.43c-1.261-0.155-2.441,0.644-2.767,1.87
		c-2.708,6.273-5.53,12.5-8.301,18.745c-0.052,0.116,0.03,0.3,0.077,0.653c12.841-0.329,25.569-2.196,38.528-3.133v0.004H-934.197z"
		/>
	<path id="Path_1596" fill="#FFFFFF" d="M-952.301-1297.037c-10.652,0.033-18.735-9.934-16.725-20.53
		c1.209-6.368,4.75-10.673,10.914-12.729c2.604-1.032,5.534-0.841,7.983,0.519c0.34,0.197,0.701,0.357,1.075,0.478
		c9.046,2.9,13.5,15.537,9.43,24.025C-942.125-1300.058-946.511-1297.055-952.301-1297.037z M-943.9-1312.244
		c-0.228-6.072-4.031-11.432-9.688-13.649c-0.796-0.33-1.682-0.376-2.508-0.132c-2.898,0.881-5.34,2.856-6.807,5.507
		c-3.079,5.985-0.724,13.333,5.262,16.412c0.277,0.142,0.56,0.274,0.847,0.396C-950.172-1300.902-943.885-1305.066-943.9-1312.244
		L-943.9-1312.244z"/>
	<path id="Path_1597" fill="#FFFFFF" d="M-984.216-1274.017c-1.101,0.088-2.188,0.254-3.274,0.244
		c-1.884,0.056-3.769-0.033-5.639-0.266c-3.686-0.605-5.277-3.133-4.182-6.691c1.354-4.522,2.353-9.146,2.979-13.826
		c0.317-2.228,1.192-3.021,3.439-3.063c3.543-0.066,7.088,0.016,10.631-0.038c1.96-0.028,3.767,0.979,5.792,0.66
		c0.813-0.128,1,0.792,0.958,1.575c-0.254,4.723-0.6,9.42-2.15,13.953c-0.629,1.84-0.807,3.861-1.616,5.6
		c-0.782,1.521-1.832,2.889-3.102,4.035c-0.907,0.703-2.213,0.537-2.915-0.371c-0.062-0.08-0.118-0.165-0.168-0.254
		C-983.753-1272.957-984.006-1273.478-984.216-1274.017z M-991.735-1279.803l8.314,1.311l4.866-14.859h-11.274
		C-990.467-1288.81-991.084-1284.41-991.735-1279.803z"/>
	<path id="Path_1598" fill="#FFFFFF" d="M-916.346-1278.208c-2.801-0.126-5-0.248-7.205-0.313c-1.201-0.003-2.331-0.569-3.05-1.533
		c-2.944-3.602-5.255-7.678-6.834-12.056c-0.352-0.957-0.582-1.954-0.688-2.968c-0.161-0.895,0.434-1.752,1.327-1.914
		c0.173-0.031,0.351-0.035,0.522-0.01c2.849,0.576,5.621-0.262,8.431-0.322c2.036-0.141,4.052-0.497,6.013-1.064
		c2.725-0.655,4.429-0.043,5.646,2.488c0.656,1.43,1.182,2.914,1.57,4.438c0.812,2.955,1.535,5.937,2.255,8.916
		c0.542,2.248-0.194,3.562-2.478,3.935C-912.663-1278.381-914.503-1278.246-916.346-1278.208z M-914.035-1284.16
		c-0.878-3.118-1.683-5.973-2.482-8.829c-0.159-0.81-0.926-1.353-1.742-1.231c-3.3,0.037-6.589,0.382-9.825,1.025l4.536,9.667
		L-914.035-1284.16z"/>
	<path id="Path_1599" fill="#FFFFFF" d="M-925.041-1300.736c-1.907-0.354-3.788-0.842-5.627-1.461
		c-5.26-2.168-7.766-8.188-5.598-13.448c0.134-0.325,0.284-0.643,0.45-0.952c1.806-3.359,5.611-5.121,9.342-4.324
		c2.464,0.555,4.783,1.623,6.807,3.135c2.798,2.033,4.406,5.32,4.294,8.777c0.154,2.855-1.491,5.501-4.122,6.623
		C-921.302-1301.703-923.154-1301.152-925.041-1300.736z M-925.188-1307.001c3.625,0.026,4.656-1.662,3.021-4.956
		c-1.188-2.394-3.317-3.7-5.612-4.792c-1.7-0.8-2.318-0.539-3.106,1.165C-932.89-1311.258-930.088-1307.036-925.188-1307.001
		L-925.188-1307.001z"/>
	<path id="Path_1600" fill="#FFFFFF" d="M-982.934-1303.349c-6.199-0.037-10.162-5.313-8.399-11.266
		c0.857-2.9,2.263-5.34,5.605-6.027c6.354-1.306,12.913,5.717,11.101,11.935C-975.553-1305.513-978.946-1303.325-982.934-1303.349z
		 M-986.328-1315.391c-0.113,1.164-0.121,2.335-0.023,3.5c0.214,1.612,1.692,2.746,3.305,2.533c0.188-0.024,0.37-0.067,0.549-0.127
		c1.733-0.419,2.289-1.739,1.188-3.137C-982.516-1314.213-984.339-1315.219-986.328-1315.391L-986.328-1315.391z"/>
</g>
</svg>
