<svg xmlns="http://www.w3.org/2000/svg" width="73.854" height="105.287" viewBox="0 0 73.854 105.287">
  <g id="Group_1509" data-name="Group 1509" transform="translate(-2063.022 -2111.71)">
    <g id="Group_1395" data-name="Group 1395" transform="translate(2063.022 2111.71)">
      <path id="Path_1335" data-name="Path 1335" d="M2065.268,2116.814c3.134-.294,6.271-.571,9.412-.776q2.337-.153,4.677-.247,1.19-.047,2.38-.073.554-.012,1.11-.02l.317,0c.325,0-.445-.008-.4,0a3.326,3.326,0,0,0,.712,0,92.023,92.023,0,0,1,9.328.429c1.539.155,3.074.357,4.6.616l.53.092.227.041c-.689-.116-.36-.068-.208-.038.4.078.8.157,1.2.241q1.083.23,2.157.5a46.656,46.656,0,0,1,9.594,3.556l-.486-.248a30.475,30.475,0,0,1,10.808,8.575l-.272-.371a15.332,15.332,0,0,1,3.093,8.242l-.021-.459a22.033,22.033,0,0,1-2.218,9.765l.222-.5a44.531,44.531,0,0,1-2.9,5.464c-.507.808-1.045,1.6-1.624,2.354q-.227.3-.462.589c-.136.169-.734.757-.138.176-.353.344-.662.738-1.01,1.088q-.468.472-.967.911a3.414,3.414,0,0,1-.561.475s.658-.509.279-.221c-.117.089-.233.178-.352.265q-.533.391-1.1.738c-.236.145-.755.377.275-.155-.087.045-.172.1-.258.142q-.359.193-.727.367a3.139,3.139,0,0,0-.338.154c-.061.039,1.045-.422.573-.242-.192.073-.384.148-.579.214-.078.027-.157.051-.235.077-.484.165.671-.185.6-.167-.242.056-.481.127-.724.18-.183.04-.368.07-.551.106-.4.079,1-.137.462-.073l-.248.031c-.416.047-.83.062-1.248.08,1.146-.048.258-.007-.015-.021q-.342-.016-.683-.052c-.227-.023-.452-.058-.677-.089-.2-.028-.514-.141.234.046-.119-.03-.242-.05-.362-.077a11.229,11.229,0,0,1-2.513-.9l.485.248a8.939,8.939,0,0,1-3.157-2.642l.272.371a8.536,8.536,0,0,1-1.533-4.558l.021.459a11.773,11.773,0,0,1,1.049-5.146l-.222.5a13.8,13.8,0,0,1,1.108-2c.2-.3.422-.6.649-.889.116-.148.237-.292.356-.437.216-.264-.354.394-.121.145.073-.078.143-.159.216-.238a20.792,20.792,0,0,1,1.74-1.672q.214-.185.433-.364a1.354,1.354,0,0,1,.251-.2c.041-.012-.566.44-.306.245.324-.244.646-.491.975-.727,1.326-.951,2.715-1.812,4.117-2.644l.222-.131c.364-.217-.705.4-.335.194.176-.1.351-.2.528-.3.38-.208.764-.409,1.155-.6.182-.087.365-.17.548-.254.536-.243-.922.368-.2.091q.279-.107.562-.2a1.807,1.807,0,0,1,.323-.1c-.045-.025-1.051.281-.383.118.175-.043.935-.177.292-.08s.12-.007.3-.02c.112-.008.223-.01.334-.018.349-.023-.8-.039-.209.011.218.019.435.041.653.06.176.015.425.128-.227-.049.093.025.19.04.284.063.188.045.373.1.557.157a8.785,8.785,0,0,1,1.2.5l-.486-.248a15.046,15.046,0,0,1,4.983,4.592l-.272-.371a39.054,39.054,0,0,1,6.891,16.825,45.625,45.625,0,0,1,.535,5.162l-.021-.459a48.318,48.318,0,0,1-2.484,17.513c-.542,1.611-1.164,3.193-1.853,4.746l.222-.5a61.62,61.62,0,0,1-6.619,11.308q-.964,1.313-1.99,2.579-.513.634-1.04,1.256c-.115.135-.4.429.084-.1-.1.115-.2.236-.305.353q-.307.352-.617.7-2.178,2.437-4.557,4.684-2.709,2.565-5.637,4.882c-.359.285-.816.964-.638,1.467.186.527.95.712,1.418.741a7.384,7.384,0,0,0,4.963-1.753,78.959,78.959,0,0,0,16.71-17.913,55.562,55.562,0,0,0,8.941-22.428,45.6,45.6,0,0,0-2.543-23.548,33.906,33.906,0,0,0-6.232-10.221,12.436,12.436,0,0,0-5.013-3.438,13.7,13.7,0,0,0-8.829.463,36.726,36.726,0,0,0-7.183,3.71,40,40,0,0,0-5.551,4.056c-3.165,2.817-5.851,6.8-5.8,11.194a9.186,9.186,0,0,0,1.7,5.5,10.143,10.143,0,0,0,3.995,3.182c3.772,1.8,8.368,1.465,12.238.2a23.274,23.274,0,0,0,11.039-8.288,35.937,35.937,0,0,0,3.08-4.9,40.738,40.738,0,0,0,2.825-6.472,16.843,16.843,0,0,0-.457-12.647,23.817,23.817,0,0,0-7.86-8.722c-6.766-4.762-14.786-7.184-22.925-8.215-8.293-1.051-16.73-.692-25.04-.029-1.981.158-3.96.337-5.938.522a7.962,7.962,0,0,0-2.76.8,4.553,4.553,0,0,0-1.844,1.458c-.234.426-.406.97.072,1.328a2.869,2.869,0,0,0,1.942.363Z" transform="translate(-2063.022 -2111.71)" fill="#fff"/>
    </g>
    <g id="Group_1396" data-name="Group 1396" transform="translate(2101.958 2187.72)">
      <path id="Path_1336" data-name="Path 1336" d="M2285.556,2549.03q.62,2.395,1.036,4.835l-.142-.839a58.274,58.274,0,0,1,.81,10.684q-.026,1.508-.13,3.015l.054-.773q-.029.419-.064.836a8.553,8.553,0,0,0-.074,1.459,5.964,5.964,0,0,0,2.937,4.655,5.6,5.6,0,0,0,2.035.649c.3.044.594.07.891.1l1.82.207,7.2.818,4.074.463a1.914,1.914,0,0,0,1.774-.879,1.88,1.88,0,0,0,.28-1.05,2.618,2.618,0,0,0-.116-1.225,4.835,4.835,0,0,0-3.8-3.5l-11.1-1.261-1.517-.172c-.5-.057-1-.092-1.5-.179l.759.154a1.9,1.9,0,0,1-.375-.114l.77.36a1.364,1.364,0,0,1-.165-.1l.741.553a.822.822,0,0,1-.1-.085l.671.732a1.126,1.126,0,0,1-.116-.153l.527.842a.938.938,0,0,1-.056-.113l.336.861a1.542,1.542,0,0,1-.069-.247l.142.838a2.8,2.8,0,0,1-.014-.6l-.054.772a70.052,70.052,0,0,0,.214-8.442,64.324,64.324,0,0,0-1-8.5q-.387-2.145-.935-4.257a3.794,3.794,0,0,0-.6-1.282,4.109,4.109,0,0,0-.935-1.154,3.325,3.325,0,0,0-1.126-.733,2.531,2.531,0,0,0-1.144-.334,1.892,1.892,0,0,0-1.774.88,3.113,3.113,0,0,0-.164,2.274Z" transform="translate(-2285.419 -2545.876)" fill="#fff"/>
    </g>
  </g>
</svg>