<svg xmlns="http://www.w3.org/2000/svg" width="100.607" height="101.597" viewBox="0 0 100.607 101.597">
  <g id="Group_5745" data-name="Group 5745" transform="translate(-474.697 -1609.902)">
    <path id="Path_22237" data-name="Path 22237" d="M32.1,409.748c-5.972-.134-10.428,6.477-7.873,11.9-1.743.693-12.927-1.778-12.631,1.991,0,0,0,10.616,0,10.616a8.693,8.693,0,0,0-3.3-.7c-13.484.15-9.182,21.667,3.3,16.473.726,1.722-1.809,12.95,1.99,12.631,1.365-1.009,40.374,2.339,39.017-1.99-.641-1.648,1.435-16.126-1.359-16.428-2.448-.585-3.221,2.982-5.93,2.554-9.272-.88-2.511-14.275,3.7-7.428,6.268,4.964,2.7-14.005,3.586-15.724.269-3.731-10.859-1.359-12.631-1.992,2.555-5.424-1.9-12.041-7.873-11.9m0,3.983c4.37-.177,6.264,5.91,2.765,8.319-4.7,6.021,11.944,2.832,13.756,3.586v8.623c-5.424-2.5-12.029,1.91-11.9,7.9-.133,5.971,6.5,10.43,11.9,7.873V458.7H15.556V446.117c-1.281-5.053-4.506,1.09-7.264.68-6.007.1-6.044-9.369,0-9.256,2.682-.442,3.5,3.051,5.9,2.531,2.652-.284.873-12.9,1.36-14.436H28.139c5.045-1.353-1.08-4.486-.68-7.288a4.6,4.6,0,0,1,4.64-4.616" transform="translate(474.697 1248.545)" fill="#ff6c00"/>
    <path id="Path_22238" data-name="Path 22238" d="M500.594,388.576a6.489,6.489,0,0,0-.05,10.8c-.816,1.161-8.918,4.231-7.169,6.494l4.4,6.719a6.576,6.576,0,0,0-2.382.924c-8.472,5.682,3.167,17.518,8.917,9.056,1.173.789,4.221,8.945,6.493,7.169.416-1.364,26.507-15.018,23.869-17.426-1.089-.778-5.773-10.8-7.667-9.835-1.791.644-.8,3.222-2.694,4.073-6.233,3.285-7.5-7.994-.734-6.235,6.024.544-4.094-9.983-4.246-11.437-1.376-2.472-7.435,3.639-8.82,3.973a6.49,6.49,0,0,0-9.915-4.272m1.651,2.521c2.692-1.923,6.413,1.145,5.2,4.119-.482,5.759,8.733-3.157,10.192-3.43l3.573,5.457a6.514,6.514,0,0,0-4.262,9.93c2.39,3.834,8.436,3.907,10.8.05l3.593,5.487-20.926,13.7-5.214-7.964c-2.9-2.667-2.4,2.557-4.316,3.44-3.76,2.552-7.707-3.426-3.835-5.858,1.515-1.391,3.477.482,4.786-.845,1.561-1.279-4.793-8.526-5.121-9.7l7.963-5.214c2.632-2.947-2.542-2.392-3.45-4.331a3.48,3.48,0,0,1,1.024-4.844" transform="translate(40.446 1268.148)" fill="#d30b55"/>
    <path id="Path_22239" data-name="Path 22239" d="M191.665.813c-5.611-2.05-11.64-.253-10.968,5.709-1.873.095-11.666-5.846-12.6-2.182L164.68,14.39a6.082,6.082,0,0,0-2.9-1.729c-7.3-1.122-12.175,16.276-2.176,16.66,1.868.072-5.882,11.678-2.183,12.6C159.037,41.4,194.89,57.134,195,52.6c-.076-1.767,6.551-14.8,4-15.991-2.129-1.342-4.009,1.787-6.436.509,0,0,.946-17.261,5.9-5.84,4.336,6.718,7.066-12.39,8.458-13.732,1.456-3.445-9.843-4.783-11.317-5.953,4.165-4.312,1.758-8.985-3.94-10.779m-1.283,3.771c4.194,1.239,4.346,4.586.258,5.74-6.392,4.186,10.4,6.527,11.869,7.825l-2.777,8.164c-4.331-4.109-8.062-1.18-9.871,4.528-2.049,5.61-1.145,11.083,4.793,10.4l-2.792,8.209L160.559,38.8l4.052-11.913c.445-5.1-5.278.372-7.1-1.7-2.535-2.882-.539-6.986,2.981-8.763,2.427-1.225,2.329,4.014,4.775,4.3,2.6.585,4.98-11.932,5.936-13.229,1.987-.091,16.666,8.221,14.2,1.043-2.574-3.412.887-5.547,4.978-3.959" transform="translate(338.932 1609.902)" fill="#009ddb"/>
  </g>
</svg>
