<svg xmlns="http://www.w3.org/2000/svg" xmlns:xlink="http://www.w3.org/1999/xlink" width="556.599" height="26.179" viewBox="0 0 556.599 26.179">
  <defs>
    <clipPath id="clip-path">
      <rect id="Rectangle_4282" data-name="Rectangle 4282" width="556.599" height="26.179" fill="none"/>
    </clipPath>
  </defs>
  <g id="Group_4886" data-name="Group 4886" transform="translate(0 -0.001)">
    <path id="Path_21780" data-name="Path 21780" d="M1090.968,14.514v8.438H1083.9V14.516h-4.454V34.839h4.454V26.714h7.073v8.126h4.454V14.514Z" transform="translate(-668.934 -8.994)" fill="#fff"/>
    <g id="Group_4885" data-name="Group 4885" transform="translate(0 0.001)">
      <g id="Group_4884" data-name="Group 4884" clip-path="url(#clip-path)">
        <path id="Path_21781" data-name="Path 21781" d="M1163.537,35.7a4.5,4.5,0,0,1-4.482,4.724c-2.451,0-4.2-1.967-4.2-4.724v-6.5h-4.483v6.5c0,5.569,4.014,8.575,8.693,8.575,4.732,0,8.908-3.006,8.9-8.575v-6.5h-4.426Z" transform="translate(-712.888 -18.091)" fill="#fff"/>
        <path id="Path_21782" data-name="Path 21782" d="M1236.17,24.432a4.332,4.332,0,0,0-.361.918,6.9,6.9,0,0,0-.389-.918l-5.48-9.914h-4.371V34.844h4.456V23.128c0-.669-.083-1.31-.083-1.393a4.4,4.4,0,0,0,.361.778l4.622,8.324h1.7l4.535-8.326a6.841,6.841,0,0,0,.361-.778,9.317,9.317,0,0,0-.083,1.393V34.842l4.446,0V14.518h-4.535Z" transform="translate(-759.49 -8.997)" fill="#fff"/>
        <path id="Path_21783" data-name="Path 21783" d="M1311.158,14.519l-7.268,20.324h4.705l1.587-5.123h6.189l1.559,5.123h4.885l-7.37-20.324Zm.2,11.442L1312.891,21c.2-.7.391-1.531.418-1.614.028.167.257.975.446,1.614l1.5,4.956Z" transform="translate(-808.026 -8.998)" fill="#fff"/>
        <path id="Path_21784" data-name="Path 21784" d="M1391.827,26.031c0,.5.057,1,.057,1.03a3.963,3.963,0,0,0-.5-.835l-8.965-11.716h-3.843V34.833h4.456V23.2c0-.475-.057-.975-.057-1,.029.051.251.446.5.807l8.965,11.833,3.842,0V14.5h-4.456Z" transform="translate(-854.309 -8.988)" fill="#fff"/>
        <rect id="Rectangle_4277" data-name="Rectangle 4277" width="4.176" height="4.205" transform="translate(552.423 21.64)" fill="#fff"/>
        <path id="Path_21785" data-name="Path 21785" d="M1154.521,9.294a.744.744,0,0,0,.682-.393,1.84,1.84,0,0,0,.206-.54,13.571,13.571,0,0,1,.936-2.706q.285-.646.523-1.31a4.528,4.528,0,0,0,.29-1.716,2.522,2.522,0,0,0-.318-1.212,1.3,1.3,0,0,0-.4-.488,1.277,1.277,0,0,0-1.787.263A4.187,4.187,0,0,0,1154,2.268a16.741,16.741,0,0,0-1.134,5.1,3.37,3.37,0,0,0,.008.391,1.477,1.477,0,0,0,1.644,1.533" transform="translate(-714.437 -0.42)" fill="#fff"/>
        <path id="Path_21786" data-name="Path 21786" d="M1183.61,7.391a2.934,2.934,0,0,0,.31,1.009,1.064,1.064,0,0,0,1.876-.045,3.007,3.007,0,0,0,.265-.627,28.031,28.031,0,0,0,1.472-5.945,5.635,5.635,0,0,0,.011-1.115V.654a.709.709,0,0,0-.756-.652,2.02,2.02,0,0,0-1.782,1,6.811,6.811,0,0,0-.945,2.283c-.2,1.062-.353,2.137-.526,3.212l.064.013a5.1,5.1,0,0,0,.01.877" transform="translate(-733.442 -0.001)" fill="#fff"/>
        <path id="Path_21787" data-name="Path 21787" d="M494.987,23.815h-7.073V15.378h-4.454V35.7h4.454V27.577h7.073V35.7h4.454V15.378h-4.454Z" transform="translate(-299.602 -9.53)" fill="#fff"/>
        <path id="Path_21788" data-name="Path 21788" d="M559.221,27.663h6.848V23.9h-6.848v-4.76H566.6V15.378H554.765V35.7l12.251.006V31.95h-7.795Z" transform="translate(-343.79 -9.53)" fill="#fff"/>
        <path id="Path_21789" data-name="Path 21789" d="M617.818,15.378,610.552,35.7h4.705l1.587-5.123h6.175l1.559,5.123h4.9l-7.37-20.326Zm.19,11.444,1.531-4.954c.195-.7.389-1.533.417-1.616.029.168.257.975.446,1.616l1.5,4.954Z" transform="translate(-378.362 -9.53)" fill="#fff"/>
        <path id="Path_21790" data-name="Path 21790" d="M689.681,15.378h-4.456V35.7h11.693V31.945h-7.237Z" transform="translate(-424.637 -9.53)" fill="#fff"/>
        <path id="Path_21791" data-name="Path 21791" d="M733.033,19.153h4.036V35.718h4.456V19.153h3.931v-3.76H733.033Z" transform="translate(-454.263 -9.539)" fill="#fff"/>
        <path id="Path_21792" data-name="Path 21792" d="M803.561,23.815H796.49V15.378h-4.456V35.7h4.458V27.577h7.069V35.7h4.454V15.378h-4.454Z" transform="translate(-490.827 -9.53)" fill="#fff"/>
        <rect id="Rectangle_4278" data-name="Rectangle 4278" width="4.454" height="20.326" transform="translate(328.328 5.848)" fill="#fff"/>
        <path id="Path_21793" data-name="Path 21793" d="M908.793,27.663h6.852V23.9H908.8v-4.76h7.37V15.378H904.333V35.7l12.254.006V31.95h-7.795Z" transform="translate(-560.419 -9.53)" fill="#fff"/>
        <path id="Path_21794" data-name="Path 21794" d="M978.809,21.45c0-3.509-2.733-6.072-6.992-6.072h-7.294V35.7h4.454V26.1l5.652,9.606h5.046l-5.4-8.492a5.75,5.75,0,0,0,4.535-5.761m-6.992,2.589h-2.834V19.144h2.834a2.325,2.325,0,0,1,2.534,2.308,2.384,2.384,0,0,1-2.534,2.587" transform="translate(-597.719 -9.53)" fill="#fff"/>
        <rect id="Rectangle_4279" data-name="Rectangle 4279" width="4.176" height="4.204" transform="translate(391.137 21.969)" fill="#fff"/>
        <path id="Path_21795" data-name="Path 21795" d="M11.527,23.83H4.454V15.393H0V35.718H4.454V27.592h7.073v8.126h4.454V15.393H11.527Z" transform="translate(0 -9.539)" fill="#fff"/>
        <path id="Path_21796" data-name="Path 21796" d="M74.176,15.393,66.908,35.718h4.715L73.21,30.6h6.173l1.559,5.123h4.892l-7.37-20.325Zm.2,11.444L75.9,21.88c.195-.7.391-1.53.418-1.614.028.166.257.973.446,1.614l1.5,4.957Z" transform="translate(-41.463 -9.539)" fill="#fff"/>
        <path id="Path_21797" data-name="Path 21797" d="M148.325,15.393h-6.738V35.719h4.456V27.644h2.283c4.594,0,7.434-2.451,7.434-6.264s-2.9-5.987-7.434-5.987m0,8.483h-2.283V19.152h2.283v-.01c1.977,0,2.978.669,2.978,2.311s-.973,2.422-2.978,2.422" transform="translate(-87.742 -9.539)" fill="#fff"/>
        <path id="Path_21798" data-name="Path 21798" d="M211.213,15.393h-6.739V35.719h4.456V27.644h2.283c4.594,0,7.434-2.451,7.434-6.264s-2.9-5.987-7.434-5.987m0,8.483H208.93V19.152h2.283v-.01c1.976,0,2.978.669,2.978,2.311s-.973,2.422-2.978,2.422" transform="translate(-126.713 -9.539)" fill="#fff"/>
        <rect id="Rectangle_4280" data-name="Rectangle 4280" width="4.456" height="20.325" transform="translate(101.677 5.854)" fill="#fff"/>
        <path id="Path_21799" data-name="Path 21799" d="M312.815,27.672h6.85V23.914h-6.85V19.152h7.379V15.394H308.361V35.719h12.251V31.96h-7.8Z" transform="translate(-191.093 -9.54)" fill="#fff"/>
        <path id="Path_21800" data-name="Path 21800" d="M382.823,21.463c0-3.507-2.732-6.07-6.992-6.07h-7.3V35.719h4.456V26.113l5.652,9.606h5.047l-5.4-8.492a5.743,5.743,0,0,0,4.535-5.763m-6.992,2.591H373v-4.9h2.835a2.332,2.332,0,0,1,2.534,2.313,2.384,2.384,0,0,1-2.534,2.589" transform="translate(-228.383 -9.539)" fill="#fff"/>
        <rect id="Rectangle_4281" data-name="Rectangle 4281" width="4.176" height="4.205" transform="translate(164.488 21.975)" fill="#fff"/>
      </g>
    </g>
  </g>
</svg>
