<svg xmlns="http://www.w3.org/2000/svg" xmlns:xlink="http://www.w3.org/1999/xlink" width="40.908" height="52.242" viewBox="0 0 40.908 52.242">
  <defs>
    <style>
      .cls-1 {
        fill: #3cbfae;
      }

      .cls-2 {
        clip-path: url(#clip-path);
      }
    </style>
    <clipPath id="clip-path">
      <rect id="Rectangle_4444" data-name="Rectangle 4444" class="cls-1" width="40.908" height="52.242"/>
    </clipPath>
  </defs>
  <g id="Group_5910" data-name="Group 5910" class="cls-2">
    <path id="Path_22272" data-name="Path 22272" class="cls-1" d="M20.454,0C9.2,0,0,8.863,0,19.772A19.358,19.358,0,0,0,4.091,31.59L19.545,51.817a1.222,1.222,0,0,0,1.591.227l.227-.227L36.817,31.59a19.359,19.359,0,0,0,4.091-11.817C40.908,8.863,31.7,0,20.454,0ZM18.863,27.5a7.934,7.934,0,1,1,9.318-9.318,8.009,8.009,0,0,1-6.25,9.318,6.992,6.992,0,0,1-3.068,0"/>
  </g>
</svg>
