<svg xmlns="http://www.w3.org/2000/svg" xmlns:xlink="http://www.w3.org/1999/xlink" width="497" height="312" viewBox="0 0 497 312">
  <defs>
    <clipPath id="clip-path">
      <rect id="Rectangle_4460" data-name="Rectangle 4460" width="497" height="312" fill="#fff" stroke="#707070" stroke-width="1"/>
    </clipPath>
  </defs>
  <g id="Mask_Group_511" data-name="Mask Group 511" clip-path="url(#clip-path)">
    <path id="bg" d="M1005.488,972.515c183.577,86.807,230.228,317.495,132.314,437.817-50.359,59.366-131.553,78.984-236.506,108.324-103.349,24.644-230.459,59.011-335.623,39.411-209.188-42.443-255.84-273.129-132.315-437.817C558.135,950.23,819.219,882.025,1005.488,972.515Z" transform="translate(-365.742 -659.397)" fill="#ffb81d"/>
    <path id="bg-2" data-name="bg" d="M450.938,62.142C617.028,183.484,700.555,471.308,644.969,611.835,615.882,681.009,553.913,698.8,474.6,726.7c-78.944,22.242-175.234,54.6-264.413,22.2C32.11,680.193-51.418,392.37,16.153,199.2,83.684-.431,281.936-63.948,450.938,62.142Z" transform="matrix(0.174, -0.985, 0.985, 0.174, -669.958, 75.495)" fill="#3cbfae"/>
    <path id="bg-3" data-name="bg" d="M1016.231,989.791c186.66,124.177,234.094,454.173,134.536,626.293-51.2,84.922-133.762,112.985-240.478,154.956-105.085,35.252-234.329,84.415-341.259,56.376-212.7-60.713-260.136-390.708-134.536-626.293C561.366,957.912,826.834,860.346,1016.231,989.791Z" transform="translate(-123.966 -1739.713)" fill="none" stroke="#d50058" stroke-width="50" opacity="0.34"/>
  </g>
</svg>
