<svg xmlns="http://www.w3.org/2000/svg" xmlns:xlink="http://www.w3.org/1999/xlink" width="182.071" height="58.706" viewBox="0 0 182.071 58.706">
  <defs>
    <clipPath id="clip-path">
      <rect id="Rectangle_4405" data-name="Rectangle 4405" width="182.071" height="58.706" fill="none"/>
    </clipPath>
  </defs>
  <g id="pirkx360" transform="translate(0 0)">
    <g id="Group_5503" data-name="Group 5503" transform="translate(0 0)" clip-path="url(#clip-path)">
      <path id="Path_22133" data-name="Path 22133" d="M5,37.552v12.7a2.5,2.5,0,0,1-5,0v-22.9a12.779,12.779,0,0,1,12.677-12.8,12.8,12.8,0,0,1,0,25.6A12.573,12.573,0,0,1,5,37.552m0-10.2V27.4a7.777,7.777,0,1,0,0-.051" transform="translate(0 5.957)" fill="#515157"/>
      <path id="Path_22134" data-name="Path 22134" d="M20.756,11.578A2.607,2.607,0,0,1,20,9.794a2.608,2.608,0,0,1,.758-1.786,2.513,2.513,0,0,1,3.536,3.57,2.548,2.548,0,0,1-3.536,0" transform="translate(8.186 2.965)" fill="#ce2123"/>
      <path id="Path_22135" data-name="Path 22135" d="M20,37.494V16.943a2.5,2.5,0,0,1,5,0V37.494a2.5,2.5,0,1,1-5,0" transform="translate(8.186 5.913)" fill="#515157"/>
      <path id="Path_22136" data-name="Path 22136" d="M40.792,16.943a2.544,2.544,0,0,1-2.526,2.549,7.711,7.711,0,0,0-7.677,7.751v10.25a2.5,2.5,0,1,1-5,0V27.244a12.747,12.747,0,0,1,12.677-12.8,2.5,2.5,0,0,1,2.526,2.5" transform="translate(10.475 5.913)" fill="#515157"/>
      <path id="Path_22137" data-name="Path 22137" d="M58.174,42.953a2.4,2.4,0,0,1-3.485-.306l-9.6-11.627-1.566,1.071v8.924A2.545,2.545,0,0,1,41,43.564a2.5,2.5,0,0,1-2.475-2.549V7.969A2.491,2.491,0,0,1,41,5.47a2.534,2.534,0,0,1,2.526,2.5V26.124l11.465-7.6a2.522,2.522,0,0,1,3.536.306,2.586,2.586,0,0,1-.354,3.57l-8.838,5.864,9.192,11.168a2.523,2.523,0,0,1-.354,3.519" transform="translate(15.77 2.239)" fill="#515157"/>
      <path id="Path_22138" data-name="Path 22138" d="M75.475,35.936a2.479,2.479,0,0,1-.455,3.519,2.423,2.423,0,0,1-1.515.561,2.551,2.551,0,0,1-1.969-.97l-5.909-7.7-5.911,7.7a2.551,2.551,0,0,1-1.969.97,2.423,2.423,0,0,1-1.515-.561,2.479,2.479,0,0,1-.455-3.519l6.668-8.72L55.776,18.5a2.545,2.545,0,0,1,.455-3.57,2.433,2.433,0,0,1,3.484.459l5.911,7.7,5.909-7.7a2.433,2.433,0,0,1,3.484-.459,2.545,2.545,0,0,1,.455,3.57l-6.668,8.721Z" transform="translate(22.614 5.89)" fill="#515157"/>
      <path id="Path_22139" data-name="Path 22139" d="M125.155,8.1a2.607,2.607,0,0,1-.758-1.784,2.608,2.608,0,0,1,.758-1.786,2.513,2.513,0,0,1,3.536,3.57,2.548,2.548,0,0,1-3.536,0" transform="translate(50.921 1.541)" fill="#ce2123"/>
      <path id="Path_22140" data-name="Path 22140" d="M90.548,3.735a12.786,12.786,0,0,0-18.061,0h0a2.534,2.534,0,0,0,.02,3.552,2.492,2.492,0,0,0,3.516-.016,7.771,7.771,0,1,1,5.494,13.266,2.534,2.534,0,0,0-2.493,2.524,2.489,2.489,0,0,0,2.493,2.475h0A7.771,7.771,0,1,1,76.025,38.8a2.49,2.49,0,0,0-3.516-.017,2.534,2.534,0,0,0-.021,3.55A12.771,12.771,0,0,0,90.548,24.277a13.1,13.1,0,0,0-1.436-1.242,12.786,12.786,0,0,0,1.436-19.3" transform="translate(29.378 0)" fill="#515157"/>
      <path id="Path_22141" data-name="Path 22141" d="M103.346,21.1a12.659,12.659,0,0,0-7.771,2.651V13.328a7.77,7.77,0,0,1,13.265-5.5h0a2.49,2.49,0,0,0,3.516.017,2.535,2.535,0,0,0,.018-3.553,12.771,12.771,0,0,0-21.8,9.031V33.871A12.771,12.771,0,1,0,103.346,21.1m0,20.543a7.774,7.774,0,0,1-6.458-12.1,7.975,7.975,0,0,1,.963-1.168,7.771,7.771,0,1,1,5.5,13.266" transform="translate(37.076 0.228)" fill="#515157"/>
      <path id="Path_22142" data-name="Path 22142" d="M136.274,10.473a4.49,4.49,0,0,1-.381.478,5.053,5.053,0,0,1-3.488,1.511,4.458,4.458,0,0,1-.864-.1,7.761,7.761,0,0,1,.066.964V33.871a7.771,7.771,0,1,1-15.542,0V13.328a7.767,7.767,0,0,1,11.461-6.837,5.279,5.279,0,0,1,1.391-2.583,4.735,4.735,0,0,1,2.042-1.174,12.765,12.765,0,0,0-19.894,10.594V33.871a12.771,12.771,0,1,0,25.543,0V13.328a12.724,12.724,0,0,0-.334-2.855" transform="translate(45.463 0.229)" fill="#515157"/>
    </g>
  </g>
</svg>
