<svg xmlns="http://www.w3.org/2000/svg" width="570.412" height="559.165" viewBox="0 0 570.412 559.165">
    <path data-name="Path 1475" d="M-4249.689-5184.454c-1.17 1.831-2.076 3.27-3 4.694a24.033 24.033 0 0 1-10.627 9c-7.613 3.379-14.72.43-17.723-7.341-.3-.775-.6-1.55-1-2.564-1.921 2.209-3.531 4.323-5.4 6.169-5.963 5.877-12.33 11.164-20.858 12.926-.753.156-1.507.319-2.269.424-10.024 1.394-17.415-3.979-19.219-14-1.007-5.58-.337-11.084.879-16.55.37-1.657.8-3.3 1.27-5.2-2.97.362-5.732.7-8.492 1.038-1.1.136-1.21 1.06-1.449 1.872-1.21 4.1-2.4 8.212-3.634 12.311a161.091 161.091 0 0 1-10.749 26.626 30.039 30.039 0 0 1-2.954 4.795 5.345 5.345 0 0 1-6.139 2.058 5.145 5.145 0 0 1-3.532-5.4 55.5 55.5 0 0 1 1.213-9.395c2.314-10.088 4.827-20.131 7.26-30.19.174-.723.326-1.451.558-2.479-9.244.17-18.171.83-27.175 1.744a12.63 12.63 0 0 0-.6 1.452c-5.064 18.393-10.19 36.769-15.145 55.19-3.076 11.442-4.309 23.2-5.6 34.948a367.945 367.945 0 0 0-2.078 45.367 160.1 160.1 0 0 0 4.73 36.323 100.772 100.772 0 0 0 11.709 28.652c4.865 7.951 10.089 15.685 15.2 23.483a49.3 49.3 0 0 0 3.424 4.49c22.747 27.25 50.12 48.188 83.406 61.049 13.1 5.062 26.746 7.832 40.618 9.673a273.6 273.6 0 0 0 57.129 1.74c22.463-1.726 44.048-7.1 65.037-15.141a275.544 275.544 0 0 0 34.98-16.032c21.944-12.145 40.871-28.089 58.09-46.13a502.569 502.569 0 0 0 66.175-85.848c12.835-21.092 24.405-42.811 35.1-65.027.328-.679.6-1.388.923-2.159-.5-.365-.885-.689-1.31-.955-7.276-4.563-10.968-11.33-11.979-19.677a35.116 35.116 0 0 1 3.677-20.167 19.275 19.275 0 0 1 4.989-6.452c5.8-4.769 13.067-4.236 18.158 1.26 6.08 6.564 7.382 14.428 6.337 22.938-.278 2.275-.7 4.531-1.1 7.092a19.5 19.5 0 0 0 2.069-.6c10.146-4.276 18.745-10.516 25.266-19.528a36.637 36.637 0 0 1 5.772-6.131c2.021-1.743 3.284-1.187 4.11 1.4 1.273 3.993.49 7.8-1.24 11.453a43.349 43.349 0 0 1-9.009 12.405c-8.962 8.784-19.272 15.3-31.577 18.335a3.057 3.057 0 0 0-2.284 2.122c-7.158 17.893-15.581 35.208-24.076 52.487a451.094 451.094 0 0 1-79.451 113.9c-19.236 20.068-40.418 37.745-65.018 50.955-28.169 15.126-57.756 26.328-89.5 31.25-20.74 3.216-41.587 3.561-62.49 2.071-14.366-1.022-28.626-2.746-42.6-6.4a198.157 198.157 0 0 1-51.729-22.22 221.082 221.082 0 0 1-51.865-43.636c-2.383-2.687-4.7-5.448-6.838-8.334a268.713 268.713 0 0 1-22.566-36.1c-6.988-13.468-10.681-27.92-12.75-42.854-2.3-16.59-2.535-33.249-1.832-49.956.783-18.641 4.5-36.785 8.505-54.933 4.116-18.66 9.9-36.822 15.408-55.076.238-.792.418-1.6.733-2.82-1.4.319-2.459.523-3.5.8-4.951 1.343-9.88 2.777-14.854 4.027a18.8 18.8 0 0 1-5.075.456 2.5 2.5 0 0 1-1.921-1.28 2.572 2.572 0 0 1 .748-2.21 54.692 54.692 0 0 1 5.75-4.294c6.515-4.2 13.653-7.095 20.942-9.615a4.238 4.238 0 0 0 3.087-3c1.977-6.459 4.093-12.875 6.143-19.311a11.775 11.775 0 0 0 .21-1.688c-1.089.771-1.825 1.3-2.572 1.816-7.65 5.28-15.883 9.08-25.264 9.989a25.494 25.494 0 0 1-14.246-2.357c-5.165-2.606-8.364-6.746-9.005-12.568a9.75 9.75 0 0 1 .618-4.494c1.116-2.8 3.8-3.208 5.969-1.1a3.9 3.9 0 0 1 .516.571c2.62 3.764 6.407 4.883 10.752 4.8a37.261 37.261 0 0 0 13.218-2.89 52.409 52.409 0 0 0 16.237-10.162c4.963-4.591 9.822-9.294 14.7-13.976 2.654-2.549 5.227-5.182 7.89-7.721a5.472 5.472 0 0 1 6.372-1.249 5.562 5.562 0 0 1 3.137 5.688 10.615 10.615 0 0 1-.361 2.275 80.651 80.651 0 0 1-2.549 8.605c-4.14 10.194-6.348 20.922-9.021 31.525-.75 2.973-1.656 5.9-2.545 9.044a6.417 6.417 0 0 0 1.273.062 209.457 209.457 0 0 1 25.269-2.613 2.747 2.747 0 0 0 2.729-2.121c3.537-8.723 6.923-17.517 10.806-26.083 2.711-5.981 6.081-11.67 9.274-17.425a14.89 14.89 0 0 1 2.963-3.507 3.56 3.56 0 0 1 4.257-.786 3.375 3.375 0 0 1 1.892 3.641 75.6 75.6 0 0 1-1.958 10.033c-2.338 7.96-4.967 15.834-7.415 23.763-1.059 3.433-1.964 6.913-2.925 10.376-.2.729-.347 1.473-.588 2.515l10.205 2c.283-.418.754-1.087 1.2-1.773a58.6 58.6 0 0 1 13.086-14.354 29.192 29.192 0 0 1 13.127-6.127 17.761 17.761 0 0 1 5.851-.107 10.735 10.735 0 0 1 8.923 10.215 21.069 21.069 0 0 1-.75 7.591c-4.226 13.4-12.937 22.751-26.11 27.723-2.667 1.008-5.632 1.231-8.867 1.9a14.328 14.328 0 0 0 .9 7.79c.606 1.422 1.849 1.673 3.225 1.455a18.877 18.877 0 0 0 9.16-3.763 76.7 76.7 0 0 0 16.771-18.6c2.746-4.333 5.511-8.654 8.193-13.027a56.462 56.462 0 0 0 2.743-5.22 34.71 34.71 0 0 1 15.769-15.974 20.673 20.673 0 0 1 11.122-2.508c3.125.195 5.912 1.021 7.692 4.009.6-.294 1.1-.571 1.631-.8a4.716 4.716 0 0 1 6.8 3.9 15.258 15.258 0 0 1-.185 4.083c-1.165 7.352-2.449 14.685-3.578 22.042-.449 2.926-.605 5.9-.895 8.845l.52.177a7.11 7.11 0 0 0 .975-1.279c1.232-2.728 2.594-5.414 3.575-8.232 2.137-6.14 4.265-12.294 6.054-18.541a439.609 439.609 0 0 1 19.8-55.3 10.634 10.634 0 0 1 1.7-2.836 4.406 4.406 0 0 1 4.91-1.318 4.321 4.321 0 0 1 3.219 3.925 20.025 20.025 0 0 1-.294 4.846c-1.333 7.5-2.694 14.989-4.157 22.461-2.55 13.017-5.225 26.015-6.619 39.221-.449 4.248-.671 8.532-.724 12.8a20.357 20.357 0 0 0 1.01 5.772c.478 1.646 1.42 1.994 2.975 1.26a7.2 7.2 0 0 0 2.4-1.846 54.99 54.99 0 0 0 3.639-4.963 100.629 100.629 0 0 0 9.729-19.486l10.783-28.308c.445-1.172.833-2.367 1.326-3.78a23.64 23.64 0 0 1-2.535-.356 18.949 18.949 0 0 1-4.375-1.337 5.419 5.419 0 0 1-.959-9.063 12.9 12.9 0 0 1 4.261-2.245 42.17 42.17 0 0 1 6.48-1.569 2.861 2.861 0 0 0 2.588-2.374 782.998 782.998 0 0 1 4.231-14.807 26.44 26.44 0 0 1 1.689-4.561 5.7 5.7 0 0 1 6.622-3.17 5.689 5.689 0 0 1 4.2 6.019 28.624 28.624 0 0 1-.571 4.317c-.687 3.776-1.426 7.545-2.195 11.585a12.667 12.667 0 0 0 1.935-.014c1.769-.315 3.521-.729 5.291-1.036a16.647 16.647 0 0 1 7.634.236c4.849 1.424 6.5 6.315 3.468 10.365a11.894 11.894 0 0 1-8.033 4.628c-3.551.535-7.129.934-10.71 1.212-1.9.147-2.732.912-3.289 2.778-2.1 7.061-4.22 14.1-4.8 21.5-.415 5.292-.9 10.581-.3 15.887a12.957 12.957 0 0 0 2.051 6.275c1.236 1.735 2.241 2.191 4.174 1.332a21.5 21.5 0 0 0 4.979-3.06c2.994-2.493 5.066-5.769 7.037-9.094a160.556 160.556 0 0 0 14.576-32.218c2.807-8.62 5.206-17.373 7.874-26.04.458-1.489-.227-2.2-1.192-3.013a77.365 77.365 0 0 1-12.94-14.536 50.975 50.975 0 0 1-7.953-18.787c-.787-3.509.132-6.184 2.481-7.478 2.875-1.586 5.619-.816 7.82 1.21a67.1 67.1 0 0 1 6.741 7.35c2.953 3.661 5.658 7.521 8.544 11.237.977 1.258 2.181 2.338 3.523 3.758.665-1.1 1.134-1.882 1.606-2.658a38.122 38.122 0 0 1 11.2-12.2 14.624 14.624 0 0 1 9.16-2.82 12.842 12.842 0 0 1 11.538 7.752c3.911 8.347 3.823 16.716-1.328 24.469-5.764 8.678-14.112 12.361-24.526 11.167-.76-.088-1.518-.191-2.277-.276-.073-.008-.154.056-.442.173-.188.67-.455 1.467-.634 2.283-.6 2.732-1.165 5.474-1.819 8.568.9-.218 1.439-.33 1.97-.48 5.813-1.647 10.689.743 12.7 6.4a19.872 19.872 0 0 1 .946 5.015 54.394 54.394 0 0 1-1.27 15.045 576.894 576.894 0 0 0-2.428 12.864 15.041 15.041 0 0 0 .041 2.905c.174.05.347.1.521.146a7.689 7.689 0 0 0 1.129-1.16c3.258-5.125 6.61-10.2 9.7-15.422 4.833-8.177 9.417-16.5 15.1-24.147a16.2 16.2 0 0 1 2.151-2.536 5.4 5.4 0 0 1 5.973-1.068 5.378 5.378 0 0 1 3.468 4.714 11.109 11.109 0 0 1-.264 3.81c-.775 2.887-1.646 5.758-2.679 8.562a122.8 122.8 0 0 0-6.544 23.446c-.224 1.434-.307 2.892-.417 4.34a5.8 5.8 0 0 0 .224 1.237 23.918 23.918 0 0 0 2.5-.473c5.863-1.754 10.713-5.276 15.418-9.008a2.671 2.671 0 0 0 .677-2.017c-.7-9.379 2.367-17.709 7.13-25.533a70.283 70.283 0 0 1 11.121-13.737 26.308 26.308 0 0 1 14.331-7.494 16.352 16.352 0 0 1 11.348 2.228c4.16 2.506 6.036 6.283 5.284 11.073a23.538 23.538 0 0 1-2.093 6.286 46.7 46.7 0 0 1-9.3 13.154c-5.279 5.24-10.813 10.224-16.244 15.31-.653.61-1.347 1.177-2.465 2.147a11.743 11.743 0 0 0 6.323-.585 31.786 31.786 0 0 0 10.271-6.206 81.887 81.887 0 0 0 16.116-18.532c4.444-7.111 8.753-14.307 13.143-21.453a29.713 29.713 0 0 0 3.252-7.5 62.58 62.58 0 0 1 2.866-7.4 9.771 9.771 0 0 1 1.675-2.565 5.977 5.977 0 0 1 6.735-1.9 5.742 5.742 0 0 1 4.179 5.318 19.358 19.358 0 0 1-.478 4.811c-.592 3.193-1.321 6.362-1.96 9.546a14.172 14.172 0 0 0-.169 2.043c-.062 1.239.618 1.68 1.763 1.595a11.129 11.129 0 0 0 6.694-2.931c.831-.739 1.594-1.563 2.467-2.245a6.8 6.8 0 0 1 8.124-.537 6.724 6.724 0 0 1 2.5 7.738 14.319 14.319 0 0 1-1.571 3.5c-1.609 2.522-3.24 5.044-5.064 7.411a149.3 149.3 0 0 0-12.394 19.776c-1.011 1.846-2.1 3.724-2.1 6.2a7.573 7.573 0 0 0 2.248-.034 53.744 53.744 0 0 0 7.883-2.979 66.9 66.9 0 0 0 15.5-11.312 16.129 16.129 0 0 1 3.623-2.818c3.369-1.771 6.565-.043 6.8 3.752a10.038 10.038 0 0 1-.905 4.949 39.342 39.342 0 0 1-4.7 7.3c-5.618 6.792-12.57 12.083-19.911 16.857a18.434 18.434 0 0 1-10.986 2.972 15.556 15.556 0 0 1-15.293-17.5 24.622 24.622 0 0 1 2.725-9.311c2.45-4.6 5.106-9.1 7.681-13.634.545-.961 1.119-1.9 1.737-2.954l-6.125-2.669c-.439.694-.911 1.388-1.33 2.111-2.319 4-4.585 8.026-6.942 12a88.06 88.06 0 0 1-18.271 22.049 85.668 85.668 0 0 1-9.949 7.223 27.957 27.957 0 0 1-14.158 4.062 19.707 19.707 0 0 1-14.855-5.212c-.971.768-1.908 1.461-2.792 2.215a52.006 52.006 0 0 1-13.647 8.563 20.858 20.858 0 0 1-13.315 1.232c-4.743-1.164-8.194-3.769-9.551-8.673a3.857 3.857 0 0 0-.3-.7c-.029-.058-.143-.071-.42-.2-.417.521-.883 1.081-1.322 1.662-1.91 2.524-3.763 5.094-5.73 7.572a25.46 25.46 0 0 1-8.636 6.713 9.717 9.717 0 0 1-11.3-2.1 12.278 12.278 0 0 1-3.444-9.567c.621-8.506 2.709-16.691 4.875-24.88.786-2.974 1.544-5.964 2.151-8.979a22.371 22.371 0 0 0 .367-4.842 3.4 3.4 0 0 0-3.048-3.254 2.138 2.138 0 0 0-2.347 1.186 13.479 13.479 0 0 0-.762 2.172c-3.562 12.248-9.134 23.6-15.436 34.622a47.5 47.5 0 0 1-10.9 13.188 32.553 32.553 0 0 1-10.028 5.607c-6.262 2.215-11.868 1.012-16.632-3.485a45.905 45.905 0 0 1-4.709-6.031c-.439-.586-.772-1.253-1.368-2.237-.609 1.144-1.034 1.946-1.464 2.746a86.9 86.9 0 0 1-9.64 15.127 20.023 20.023 0 0 1-11.5 7.248 27.363 27.363 0 0 1-3.811.52c-6.24.361-11.01-2.121-14.007-7.631-1.133-2.085-1.887-4.378-2.946-6.891-.463.657-.913 1.2-1.256 1.794a39.338 39.338 0 0 1-7.291 9.238 19.64 19.64 0 0 1-3.219 2.528c-5.591 3.352-11.934 1.322-14.519-4.669a56.968 56.968 0 0 1-1.705-5.532zm6.9-39.566c-2.6.556-4.695.964-6.763 1.465a10.537 10.537 0 0 0-2.637.974c-4.092 2.281-7.792 5.079-10.019 9.3a105.037 105.037 0 0 0-5.146 11.151 31.385 31.385 0 0 0-2.118 12.83 31.471 31.471 0 0 0 .79 5.045c.235 1.112 1 1.467 2.143 1.1a8.93 8.93 0 0 0 4.8-3.26 63.979 63.979 0 0 0 5.274-8.171c4.13-8.444 8.021-17.006 11.952-25.545.671-1.457 1.077-3.027 1.725-4.89zm320.357 86.746c.838-2 1.669-3.684 2.258-5.445 1.925-5.759.9-11.268-1.664-16.584a2.665 2.665 0 0 0-2.536-1.845 2.861 2.861 0 0 0-2.369 2.091c-2.257 5.405-2.8 10.881-.386 16.39a10.817 10.817 0 0 0 4.698 5.392zm-390.473-60.736c7.77-1.572 18.383-13.053 18.149-19.635-6.099 1.06-16.844 12.68-18.144 19.634zm290.943-58.5a10.6 10.6 0 0 0-6.634 3.287 44.273 44.273 0 0 0-10.5 15c-.28.676-.464 1.392-.691 2.089l.509.329c6.23-6.505 13.091-12.462 17.318-20.71zm-84.935-29.035c5.808.7 11.555-6.568 9.471-11.7-3.388.762-8.201 6.65-9.474 11.695z" transform="translate(4443.427 5426.037)" style="fill:#fff"/>
    <path data-name="Path 1476" d="M-4155.772-5568.606c-1.051.541-2.081 1.129-3.161 1.609a37.136 37.136 0 0 1-4.747 1.926c-4.709 1.346-8.559-.028-11.54-3.948-.253-.333-.52-.653-.921-1.157-1.042 1.03-2 1.989-2.966 2.934-3.325 3.245-6.842 6.273-11.2 8.029a27.326 27.326 0 0 1-7.116 1.99c-6.982.759-12.552-3.288-14.351-10.1a26.5 26.5 0 0 1-.22-10.961 67.549 67.549 0 0 1 4.42-15.516c.324-.78.631-1.567 1.089-2.707l-9.122-1c-.437 1.138-.884 2.134-1.207 3.17-3.262 10.456-6.427 20.942-9.782 31.368-1.624 5.045-3.569 9.988-5.43 14.955a15.226 15.226 0 0 1-1.66 3.171 5.031 5.031 0 0 1-5.04 2.424 4.991 4.991 0 0 1-4.361-3.831 18.1 18.1 0 0 1-.6-4.549 76.3 76.3 0 0 1 2.888-23.1c2.143-7.215 4.5-14.368 6.761-21.547.3-.961.625-1.914 1.007-3.082a7.626 7.626 0 0 0-1.358-.3 152.134 152.134 0 0 0-27.626 1.891 3.451 3.451 0 0 0-2.979 2.617 286.869 286.869 0 0 0-13.5 48.4c-.762 4.023-2.024 7.955-3.154 11.9a13.686 13.686 0 0 1-1.572 3.488 4.049 4.049 0 0 1-4.167 1.976 3.948 3.948 0 0 1-3.476-3.011 19.737 19.737 0 0 1-.548-4.3c-.358-9.238 1.261-18.231 3.4-27.167a218.958 218.958 0 0 1 8.143-26.478c.32-.846.619-1.7 1.055-2.891a17.547 17.547 0 0 0-1.874.357c-8.461 2.788-16.861 5.715-24.361 10.7a8.6 8.6 0 0 1-2.495 1.286 3.019 3.019 0 0 1-2.356-.189 2.863 2.863 0 0 1-.4-2.311 7.864 7.864 0 0 1 1.215-2.516 25.582 25.582 0 0 1 7.808-7.682c6.912-4.506 14.415-7.855 21.9-11.244a63.198 63.198 0 0 1 4.026-1.683 3.337 3.337 0 0 0 2.231-2.251c3.17-9.946 8.178-18.993 13.684-27.792.27-.434.493-.895 1.026-1.867-.981.561-1.538.821-2.033 1.171a159.117 159.117 0 0 1-26.717 15.242 41.487 41.487 0 0 1-14.79 3.97 25.241 25.241 0 0 1-11.991-2.251c-6.477-2.944-9.23-8.333-9.779-15.1-.109-1.35-.136-2.837 1.458-3.51 1.067-.45 2 .162 3.219 1.955.77 1.131 1.538 2.265 2.316 3.391a10.743 10.743 0 0 0 8.751 4.6 24.315 24.315 0 0 0 11.944-2.489c4.715-2.228 9.379-4.588 13.924-7.141a123.25 123.25 0 0 0 17.208-11.642c1.861-1.508 3.837-2.873 5.715-4.361 4.825-3.825 9.621-7.687 14.437-11.525a78.217 78.217 0 0 1 6.277-4.871 6.341 6.341 0 0 1 8.053.712 6.392 6.392 0 0 1 .912 8.036c-3.9 6.533-7.971 12.97-11.9 19.488q-7.756 12.852-15.384 25.781a53.436 53.436 0 0 0-2.256 4.884 15.247 15.247 0 0 0 2.019-.122 207.708 207.708 0 0 1 28.477-3.809 3.476 3.476 0 0 0 3.4-2.409c6.582-14.915 14.823-28.921 23.625-42.609a24.231 24.231 0 0 1 2.717-3.4 2.568 2.568 0 0 1 3.035-.76 2.456 2.456 0 0 1 1.535 2.714 45.278 45.278 0 0 1-1.525 8.022c-2.88 8.416-6 16.749-9.051 25.107-1.318 3.618-2.688 7.216-4.015 10.83-.287.785-.491 1.6-.708 2.323l12.338 3.837c.428-.521 1.079-1.294 1.706-2.086a47.238 47.238 0 0 1 12.029-11.072 25.889 25.889 0 0 1 9.224-3.725 9.98 9.98 0 0 1 6.98.905c2.646 1.538 3.313 4.507 1.583 6.791-.942 1.244-1.66 1.479-2.723.409a3.112 3.112 0 0 0-3.759-.613 28.549 28.549 0 0 0-4.355 2.151 29.266 29.266 0 0 0-7.9 7.268c-7.467 9.849-12.7 20.682-14.21 33.092a33.2 33.2 0 0 0-.178 4.608 14.371 14.371 0 0 0 .472 2.463 10.625 10.625 0 0 0 5.522-1.68 32.722 32.722 0 0 0 8.694-7.133 71.5 71.5 0 0 0 5.423-6.828c4.468-6.487 8.663-13.135 11.656-20.48 3.055-7.5 7.483-14.219 12.166-20.777a11.062 11.062 0 0 1 1.5-1.752 4.472 4.472 0 0 1 5.444-.675 4.408 4.408 0 0 1 1.9 4.921 16.415 16.415 0 0 1-.866 2.41 259.11 259.11 0 0 1-11.578 24.889c-2.9 5.489-4.521 11.441-5.917 17.45a28.99 28.99 0 0 0-.362 3.21 14.508 14.508 0 0 0 6.051-2.817c7.761-6 14.287-13.079 18.183-22.2a192.414 192.414 0 0 1 13.621-26.729c.682-1.088 1.344-2.193 2.108-3.222 2.395-3.225 5.05-3.41 7.925-.609a4.9 4.9 0 0 0 .563.383c.732-.641 1.458-1.361 2.265-1.971a62.137 62.137 0 0 1 6.832-4.968c7.1-3.962 13.652-1.939 17.555 5.213a22.464 22.464 0 0 1 2.8 11.079 17 17 0 0 0 .328 4.029c.338-.681.685-1.356 1.013-2.042 2.622-5.477 5.2-10.974 7.887-16.423a22.551 22.551 0 0 1 2.637-4.082 3.188 3.188 0 0 1 3.863-1.233 2.964 2.964 0 0 1 1.685 3.424c-.535 3.112-1.212 6.2-1.857 9.294a8.14 8.14 0 0 0-.318 3.084c.79-.989 1.587-1.973 2.369-2.968a57.667 57.667 0 0 1 12.975-12.7 39.15 39.15 0 0 1 6-3.424c5.191-2.271 9.6-.411 11.528 4.937a37.94 37.94 0 0 1 1.914 16.446 36.27 36.27 0 0 0-.306 5.758c.337-.688.7-1.363 1.006-2.065 2.1-4.87 4.129-9.773 6.306-14.611a29.277 29.277 0 0 1 6.741-9.912 13.393 13.393 0 0 1 3.554-2.463c2.782-1.2 4.859.476 4.377 3.463a30.534 30.534 0 0 1-1.1 3.946c-1.044 3.436-2.155 6.85-3.147 10.3-1.915 6.66-3.808 13.326-5.626 20.012-.807 2.969-1.458 5.983-2.083 9a35.751 35.751 0 0 0-.373 3.931 5.956 5.956 0 0 0 3.828-.689c4.566-1.807 8.6-4.552 12.726-7.162 3.034-1.919 5.287-3.986 4.4-7.945 1.5-14.092 6.528-26.5 17.234-36.214 2.41-2.184 4.769-4.429 7.264-6.51a25.163 25.163 0 0 1 14.006-5.828 11.778 11.778 0 0 1 7.392 1.6c4.441 2.668 6.083 7.037 4.285 11.894a26.854 26.854 0 0 1-2.8 5.753 139.456 139.456 0 0 1-9.468 13.075c-5.869 6.8-12.152 13.236-18.261 19.825-.572.616-1.153 1.226-1.806 1.922 1 .984 2.152.783 3.193.755a22.092 22.092 0 0 0 10.248-3 52.953 52.953 0 0 0 10.3-7.607 129.49 129.49 0 0 0 25.31-31.814c.327-.592.635-1.193 1.022-1.924-.427-.346-.784-.683-1.186-.955-5.128-3.485-6.807-8.428-5.773-14.32a20.255 20.255 0 0 1 6.761-11.816 10.325 10.325 0 0 1 8.267-2.739 9.062 9.062 0 0 1 8.446 8.793c.1 1.76.016 3.529.016 5.668 1.75-1.226 3.408-2.376 5.055-3.541a27.366 27.366 0 0 1 2.492-1.8 6.52 6.52 0 0 1 7.643.8 6.484 6.484 0 0 1 1.43 7.545 26.713 26.713 0 0 1-1.426 2.429c-2.141 3.7-4.442 7.317-6.375 11.121q-4.706 9.268-8.99 18.748a74.763 74.763 0 0 0-2.983 8.452 14.022 14.022 0 0 0-.285 2.973 4.822 4.822 0 0 0 4.173-.446 47.458 47.458 0 0 0 8.166-4.756c4.381-3.544 8.414-7.517 12.616-11.282a18.654 18.654 0 0 1 3.392-2.695c2.8-1.51 5.246-.273 5.546 2.9a9.68 9.68 0 0 1-.722 4.722 39.371 39.371 0 0 1-4.1 7.079c-4.178 5.671-9.249 10.549-14.392 15.325a20.986 20.986 0 0 1-11.464 5.35c-9.076 1.347-16.758-4.425-17.881-13.515a25.037 25.037 0 0 1-.088-4.349c.076-1.442.341-2.872.576-4.736a13 13 0 0 0-1.322 1.323 131.705 131.705 0 0 1-15.961 18.061 67.193 67.193 0 0 1-14.636 10.779 36.6 36.6 0 0 1-11.292 4.1 21.63 21.63 0 0 1-17.056-3.751c-.274-.2-.572-.366-1.067-.68-.692.539-1.394 1.128-2.138 1.658-4.039 2.871-8 5.868-12.164 8.546a29.411 29.411 0 0 1-11.257 4.14c-8.868 1.457-15.447-3.61-16.024-12.571a92.642 92.642 0 0 1 .323-9.277c-.547.969-.954 1.681-1.352 2.4a67.949 67.949 0 0 1-11.922 15.682c-8.424 8.25-18.415 11.508-30.072 9.578-.587-.1-1.18-.166-1.772-.237-.073-.008-.154.06-.489.2-.3.755-.7 1.682-1.027 2.635-2.6 7.52-5.179 15.047-7.793 22.564a25.58 25.58 0 0 1-1.659 4.024 6.427 6.427 0 0 1-7.853 3.2 6.353 6.353 0 0 1-4.072-7.426 89.233 89.233 0 0 1 2.646-10.178c2.733-8.286 5.644-16.513 8.482-24.764a6.7 6.7 0 0 0 .508-2.719c-.534.649-1.055 1.31-1.6 1.946-2.849 3.3-5.533 6.773-8.617 9.842a44.949 44.949 0 0 1-7.686 5.945 26.189 26.189 0 0 1-18.933 3.864c-1.087-.184-2.183-.322-3.446-.506-.339.826-.7 1.587-.972 2.378-2.186 6.3-4.3 12.633-6.551 18.915q-2.421 6.763-5.146 13.414a11.988 11.988 0 0 1-2.525 3.81 6.709 6.709 0 0 1-7.813 1.5 6.536 6.536 0 0 1-4.227-6.462 15.608 15.608 0 0 1 .855-4.766c2.949-8.665 6-17.3 9.011-25.939l.9-2.614zm73.808-22.663c.184.183.367.366.549.55.782-.262 1.576-.493 2.345-.789 10.016-3.848 17.546-10.755 23.673-19.35a42.545 42.545 0 0 0 7.322-18.693 21.569 21.569 0 0 0-.128-8.125c-1.035.61-1.845 1.037-2.6 1.542a36.8 36.8 0 0 0-9.193 8.86c-3.648 4.954-7.454 9.834-10.616 15.094-4.083 6.791-7.595 13.924-11.353 20.911zm-19.193-38.738a3.181 3.181 0 0 0-1.005.3 70.323 70.323 0 0 0-6.433 5.036c-10.291 9.934-16.964 22.191-22.3 35.275a3.88 3.88 0 0 0-.012 1.129c1.011-.5 1.773-.862 2.524-1.248 5-2.57 9.2-6.22 13.209-10.08 6.343-6.111 10.345-13.757 13.769-21.723a18.785 18.785 0 0 0 1.067-4.989 4.8 4.8 0 0 0-.82-3.7zm134.881-21.916a13.594 13.594 0 0 0-8.655 3.472c-2.207 1.887-4.219 4-6.4 5.926-5.7 5.027-8.638 11.571-10.419 18.761a14.264 14.264 0 0 0-.128 2.142c10.004-9.171 19.657-17.941 25.601-30.301zm35.054-18.077c-1.71 2.088-1.757 2.4-.788 3.785z" transform="translate(4358.332 5686.001)" style="fill:#fff"/>
    <path data-name="Path 1477" d="M-3658.824-4667.07c-1.01.929-1.867 1.759-2.769 2.536a17.869 17.869 0 0 1-11.428 4.618 13.142 13.142 0 0 1-13.234-9.364c-.284-.869-.517-1.753-.885-3.011a26.788 26.788 0 0 1-1.771 2.139c-2.084 2.011-4 4.287-6.358 5.9-5.712 3.911-13.859 3.8-18.524-3.2-.139-.21-.3-.408-.665-.9-.525.9-.974 1.568-1.317 2.283a28.361 28.361 0 0 1-13.05 13.327 40.157 40.157 0 0 1-4.784 1.751c-.638.228-1.3.4-1.922.665-3.049 1.32-5.763.473-7.354-2.535a18.711 18.711 0 0 1-2.109-10.191 64.456 64.456 0 0 1 1.8-11.375c2.284-8.776 4.883-17.468 7.345-26.2.228-.808.387-1.635.7-2.969a15.576 15.576 0 0 0-1.445 1.129 92.756 92.756 0 0 0-15.572 21.872 184.53 184.53 0 0 0-11.121 25.353 15.939 15.939 0 0 1-1.453 3.273 6.257 6.257 0 0 1-6.818 2.982 6.208 6.208 0 0 1-4.967-5.535 19.441 19.441 0 0 1 .232-5.1c1.842-10.535 3.774-21.054 5.663-31.58.3-1.669.529-3.35.859-5.456a10.966 10.966 0 0 0-1.741 1.15 72.45 72.45 0 0 0-5.352 5.869c-3.149 4.16-6.152 8.435-9.09 12.749a15.723 15.723 0 0 0-1.85 4.191c-2.256 7.275-4.459 14.565-7.794 21.448a20.655 20.655 0 0 1-4.792 6.916 13.457 13.457 0 0 1-3.152 2.165 5.193 5.193 0 0 1-7.1-2.661c-.248-.51-.448-1.044-.768-1.8-.742.731-1.285 1.368-1.93 1.88a36.288 36.288 0 0 1-5.1 3.836c-5.992 3.217-12.251.651-14.438-5.8a29.106 29.106 0 0 1-.813-3.752c-.145-.737-.235-1.484-.427-2.717l-1.727 2.333c-1.83 2.478-3.556 5.04-5.511 7.413a29.872 29.872 0 0 1-12.36 8.924c-8.529 3.327-16.254-1.288-17.513-10.383a26.338 26.338 0 0 1 .82-9.922 161.483 161.483 0 0 1 11.707-32.812 33.756 33.756 0 0 1 3.2-5.243 7.254 7.254 0 0 1 2.752-2.2 2.919 2.919 0 0 1 4.3 2.754 26.254 26.254 0 0 1-.875 5.289c-2.34 10.431-4.743 20.848-7.058 31.286-.458 2.066-.628 4.2-1 6.746a10.062 10.062 0 0 0 2.133-1.014 53.767 53.767 0 0 0 5.592-5.239c5.939-7.021 10.6-14.9 15.081-22.9 3.931-7.014 8.025-13.936 12.077-20.88a12.309 12.309 0 0 1 1.838-2.457 5.823 5.823 0 0 1 6.578-1.56 5.754 5.754 0 0 1 3.9 5.514 16.92 16.92 0 0 1-.529 4.051c-1.847 8.877-3.735 17.745-5.6 26.619a5.425 5.425 0 0 0 .023 2.5 17.5 17.5 0 0 0 1.183-1.315c7.744-10.439 13.73-21.864 18.906-33.743.751-1.725 1.452-3.476 2.267-5.171a14.138 14.138 0 0 1 1.731-2.835 6.674 6.674 0 0 1 7.412-2.138 6.63 6.63 0 0 1 4.372 6.343c.01 1.093-.165 2.187-.294 3.732l1.939-1.746c2.16-1.946 4.292-3.926 6.494-5.824a22.189 22.189 0 0 1 3.135-2.226c5.035-3 10.245-.915 11.417 4.839.605 2.973.38 6.117.513 9.184.035.81.005 1.624.005 2.832a9.348 9.348 0 0 0 .892-.99c4.538-7.427 10.706-13.552 16.251-20.166a21.352 21.352 0 0 1 5.56-4.476c4.916-2.88 9.886-1.032 11.729 4.373a24.458 24.458 0 0 1 1.133 6.792c.276 6.633-.931 13.131-2.325 19.576-1.212 5.6-2.616 11.163-3.927 16.743a4.909 4.909 0 0 0-.044 2.651c.7-1.219 1.5-2.39 2.073-3.666 3.964-8.851 9.012-17.1 14.03-25.365a60.171 60.171 0 0 1 9.069-11.763 40.531 40.531 0 0 1 19.171-10.382c2.819-.7 5.592-.8 8.162 1.379.419-.819.751-1.478 1.091-2.131 1.067-2.046 2.048-4.144 3.243-6.111a8.843 8.843 0 0 1 2.446-2.576 4.755 4.755 0 0 1 5.338-.2 4.641 4.641 0 0 1 2.421 4.5 8.271 8.271 0 0 1-.332 2.017c-3.095 10.322-6.263 20.622-9.293 30.962-1.322 4.512-2.4 9.1-3.515 13.665a11.555 11.555 0 0 0-.273 3.306c.072 1.358.8 1.922 2.071 1.453a9.878 9.878 0 0 0 3.5-2.025 42.14 42.14 0 0 0 4.815-5.643 113.953 113.953 0 0 0 12.23-23.374q3.821-9.528 7.764-19.006a24.262 24.262 0 0 1 1.979-3.878c1.913-2.957 5.142-4.024 7.994-2.769 2.771 1.218 4.116 4.117 3.338 7.53-.741 3.251-1.637 6.467-2.436 9.706a5.229 5.229 0 0 0-.061 2.523c.512-.649 1-1.318 1.54-1.945 4.951-5.779 9.827-11.627 14.91-17.289a36.356 36.356 0 0 1 6.394-5.527c5.164-3.567 11.1-.57 11.354 5.715a25.974 25.974 0 0 1-.724 6.346c-2.207 10.378-4.533 20.727-7.639 30.887-.692 2.262-1.108 4.607-1.812 7.6 1.408-.625 2.236-.923 3-1.344a83.357 83.357 0 0 0 17.27-13.237c1.911-1.839 3.694-3.81 5.576-5.68a15.094 15.094 0 0 1 6.939-4.205c2.721-.69 3.643.04 3.553 2.9a14.322 14.322 0 0 1-2.531 7.714 134.266 134.266 0 0 1-9.358 12.833 154.512 154.512 0 0 1-12.3 11.989 25.9 25.9 0 0 1-11.215 6c-8.515 2.154-15.286-2.486-16.354-11.21a25.134 25.134 0 0 1 .8-9.922c1.438-5.1 3.024-10.166 4.543-15.247q1.053-3.527 2.089-7.06l-.457-.233c-.416.493-.876.956-1.24 1.484-2.181 3.171-4.482 6.271-6.478 9.556-5.329 8.775-10.478 17.659-15.8 26.437a60.53 60.53 0 0 1-5.088 7.076c-3.83 4.642-8.543 4.415-12.142-.437a4.809 4.809 0 0 0-.538-.493zm-20.59-41.774a22.312 22.312 0 0 0-3.265.318 21.084 21.084 0 0 0-11.443 6.912 50.433 50.433 0 0 0-9.973 19.211 31.3 31.3 0 0 0-.919 4.521c-.184 1.587-.58 3.526 1.156 4.4 1.683.846 3.2-.423 4.3-1.557a36.413 36.413 0 0 0 4.344-5.359c2.633-4 5.212-8.05 7.579-12.211 2.621-4.6 4.99-9.353 7.442-14.052a18.291 18.291 0 0 0 .779-2.183z" transform="translate(4036.666 5013.575)" style="fill:#fff"/>
    <path data-name="Path 1478" d="M-4164.034-4677.427c-.983 0-1.813-.062-2.63.01-8.607.771-17.21 1.6-25.822 2.314a2.894 2.894 0 0 0-2.837 2.351c-4.737 13.928-10.029 27.667-14.035 41.842a31.784 31.784 0 0 1-2.059 5.244c-1.05 2.148-2.726 3.054-4.478 2.7a3.947 3.947 0 0 1-3.29-4.06 57.554 57.554 0 0 1 .9-10.943c2.205-10.984 4.7-21.912 7.083-32.862.144-.657.272-1.317.47-2.286l-2.3-.144c-3.664-.252-7.331-.462-10.987-.792a7.384 7.384 0 0 1-2.663-.868c-2.241-1.171-2.8-3.512-1.05-5.322a10.28 10.28 0 0 1 4.058-2.515 60.444 60.444 0 0 1 7.252-1.6q4.031-.786 8.083-1.449a2.307 2.307 0 0 0 2.023-1.654q5.26-14.333 10.583-28.645a5.591 5.591 0 0 0 .1-1.072c-.9.507-1.614.876-2.3 1.3a81.934 81.934 0 0 1-20.869 9.115 29.665 29.665 0 0 1-14.712.85 13.5 13.5 0 0 1-7.5-4.169 7.37 7.37 0 0 1-1.646-7.634c.744-2.178 3.078-3.591 4.828-1.186a4.021 4.021 0 0 0 3.925 1.41 35.647 35.647 0 0 0 7.088-1.037c15.188-4.545 28.721-11.907 39.546-23.746a25.3 25.3 0 0 0 5.358-8.375 24.74 24.74 0 0 1 2.065-4.121 6.8 6.8 0 0 1 4.2-3.165 5.894 5.894 0 0 1 7.4 4.535 9.036 9.036 0 0 1-.325 4.268c-2.129 6.231-4.455 12.394-6.659 18.6q-6.916 19.466-13.77 38.957a14.185 14.185 0 0 0-.36 1.945c2.093-.307 3.924-.629 5.768-.835 7.567-.847 15.132-1.727 22.712-2.43a3.2 3.2 0 0 0 3.111-2.371c3.961-9.84 7.886-19.7 12.128-29.421 2.663-6.1 5.812-12 8.848-17.938a26.325 26.325 0 0 1 3.054-4.421 7.6 7.6 0 0 1 2.356-1.932 3.065 3.065 0 0 1 4.733 2.713 7.8 7.8 0 0 1-.249 2.541c-1.355 4.766-2.663 9.55-4.192 14.261-3.7 11.39-7.51 22.743-11.267 34.114a13.446 13.446 0 0 0-.287 1.477c1.1.066 2.013.082 2.914.187a30.59 30.59 0 0 1 4.552.654 5.4 5.4 0 0 1 4.171 4.41 5.512 5.512 0 0 1-2.327 5.617 11.236 11.236 0 0 1-3.35 1.839 72.948 72.948 0 0 1-8.9 2.369 3.513 3.513 0 0 0-3.226 2.648c-4.044 12.175-8.173 24.323-12.3 36.471q-1.2 3.52-2.59 6.972a9.038 9.038 0 0 1-1.592 2.608 4.013 4.013 0 0 1-6.79-1.01 8.138 8.138 0 0 1-.694-3.978 110.945 110.945 0 0 1 1.784-12.163c2.095-9.435 4.443-18.813 6.678-28.217.132-.565.169-1.151.285-1.961z" transform="translate(4300.978 5029.27)" style="fill:#fff"/>
    <path data-name="Path 1479" d="M-3699.439-4238.9c.768-9.139 2.316-18.126 5.844-26.649a22.42 22.42 0 0 1 3.389-5.687c3.589-4.317 9.239-3.676 11.726 1.37a18.22 18.22 0 0 1 1.528 6.138 20.038 20.038 0 0 1-1.414 8.789 104.003 104.003 0 0 1-2.744 6.9 70.782 70.782 0 0 0-5.008 14.494 9.72 9.72 0 0 1-.979 2.623 3.991 3.991 0 0 1-3.511 2.216c-5.2.214-8.436-2.671-8.822-7.888-.058-.77-.009-1.542-.009-2.306z" transform="translate(3914.392 4685.071)" style="fill:#fff"/>
    <path data-name="Path 1480" d="M-3486.771-4246.643c.914-5.653 1.7-11.33 2.782-16.95a35.357 35.357 0 0 1 5.16-12.23c2.185-3.444 5.351-4.879 9.271-5a3.74 3.74 0 0 1 3.958 3.574 31.071 31.071 0 0 1-.081 5.874c-.865 10.773-4.56 20.854-7.682 31.073a17.157 17.157 0 0 1-1.365 3.315c-2.351 4.226-7.764 4.339-10.16.121a14.157 14.157 0 0 1-1.426-4.863 33.389 33.389 0 0 1-.051-4.866z" transform="translate(3763.152 4689.845)" style="fill:#fff"/>
    <path data-name="Path 1481" d="M-3223.473-5690.125a64.082 64.082 0 0 1-2.189 7.862 70.727 70.727 0 0 1-4.511 8.621 10.6 10.6 0 0 1-2.735 3.013 5.251 5.251 0 0 1-8.487-3.007 9.328 9.328 0 0 1-.282-3.049 28.319 28.319 0 0 1 4.414-13.78 22.2 22.2 0 0 1 4.574-4.769 5.479 5.479 0 0 1 6.264-.7c1.864.983 2.725 2.913 2.952 5.809z" transform="translate(3588.884 5696.612)" style="fill:#fff"/>
    <path data-name="Path 1482" d="M-3108.787-5216.93c.75-5.358 2.348-9.9 5.605-13.73a8.7 8.7 0 0 1 5.394-3.2c3.427-.507 6 1.589 5.828 5.042a12.585 12.585 0 0 1-1.329 5.138c-1.84 3.461-4 6.756-6.069 10.093a6.1 6.1 0 0 1-1.4 1.483 4.563 4.563 0 0 1-7.148-1.539 15.876 15.876 0 0 1-.881-3.287z" transform="translate(3494.367 5367.606)" style="fill:#fff"/>
</svg>
