<svg xmlns="http://www.w3.org/2000/svg" xmlns:xlink="http://www.w3.org/1999/xlink" width="31.868" height="33.275" viewBox="0 0 31.868 33.275">
  <defs>
    <style>
      .cls-1 {
        fill: #ffb81d;
        stroke: #ffb81d;
        stroke-width: 4px;
      }

      .cls-2 {
        clip-path: url(#clip-path);
      }

      .cls-3 {
        fill: #151515;
      }
    </style>
    <clipPath id="clip-path">
      <path id="bg" class="cls-1" d="M6.65.827C8,2.953,7.757,9.436,6.567,13.047A8.2,8.2,0,0,1,4.2,16.579c-.968.9-2.17,2.115-3.029,1.756-1.7-.814-1.455-7.3.084-12.22C2.823,1.036,5.286-1.4,6.65.827Z" transform="translate(18.119 0) rotate(80)"/>
    </clipPath>
  </defs>
  <g id="Group_5683" data-name="Group 5683" transform="translate(-2.442 -2.608)">
    <g id="Group_2571" data-name="Group 2571" transform="matrix(0.839, -0.545, 0.545, 0.839, 0, 13.478)">
      <path id="bg-2" data-name="bg" class="cls-1" d="M13.353,1.5c4.28,2.816,5.885,9.52,4.016,12.8-.967,1.615-2.716,2.035-4.967,2.692-2.227.525-4.955,1.287-7.332.539C.334,15.945-1.272,9.241,1.054,4.731A8.34,8.34,0,0,1,13.353,1.5Z" transform="matrix(-0.53, -0.848, 0.848, -0.53, 9.612, 24.84)"/>
    </g>
    <g id="Group_2572" data-name="Group 2572" transform="translate(12.347 4.496)">
      <path id="Path_1474" data-name="Path 1474" class="cls-3" d="M-2212.864,2666.954l4.572,4.753c.108.112.25.274.377.115q2.4-3.011,4.758-6.061,2.364-3.066,4.681-6.168,1.3-1.748,2.586-3.5c.073-.1-.025-.424-.049-.507a3.13,3.13,0,0,0-.325-.735c-.088-.145-.447-.765-.646-.493q-2.274,3.109-4.6,6.182t-4.725,6.133q-1.343,1.715-2.7,3.415l.376.115-4.572-4.753c-.051-.053-.213-.236-.322-.183s-.069.295-.055.367a2.765,2.765,0,0,0,.644,1.323Z" transform="translate(2213.525 -2654.287)"/>
    </g>
  </g>
</svg>
